<?xml version="1.0" standalone="no"?>
<!DOCTYPE svg PUBLIC "-//W3C//DTD SVG 20010904//EN"
 "http://www.w3.org/TR/2001/REC-SVG-20010904/DTD/svg10.dtd">
<svg version="1.0" xmlns="http://www.w3.org/2000/svg"
 width="722.000000pt" height="723.000000pt" viewBox="0 0 722.000000 723.000000"
 preserveAspectRatio="xMidYMid meet">
<metadata>
Created by potrace 1.12, written by Peter Selinger 2001-2015
</metadata>
<g transform="translate(0.000000,723.000000) scale(0.100000,-0.100000)"
fill="#000000" stroke="none">
<path d="M3389 6824 c-1 -104 -4 -259 -8 -344 -7 -150 -9 -165 -81 -442 -41
-158 -78 -284 -81 -280 -4 4 -16 36 -27 72 -11 36 -57 180 -102 320 -45 140
-117 368 -161 505 -97 301 -101 313 -94 265 3 -19 24 -172 48 -340 37 -254 43
-318 37 -385 -4 -44 -15 -182 -26 -307 -10 -126 -21 -228 -24 -228 -5 0 -32
52 -265 505 -246 479 -306 595 -310 595 -3 0 -2 -6 0 -12 3 -7 48 -146 100
-308 l95 -295 26 -300 c14 -164 24 -308 22 -318 -3 -20 -21 2 -493 638 -249
336 -283 379 -243 305 14 -25 84 -160 156 -301 l131 -256 76 -303 c42 -166 74
-304 73 -305 -2 -2 -208 193 -458 433 -250 240 -450 430 -445 422 5 -8 94
-130 199 -270 l190 -255 127 -290 c69 -159 125 -291 124 -293 -2 -2 -43 25
-93 60 -50 35 -141 98 -204 140 -62 42 -244 166 -403 275 -349 238 -364 248
-312 199 21 -19 131 -124 244 -233 225 -216 182 -162 470 -603 44 -69 80 -126
79 -128 -2 -1 -52 21 -112 49 -60 28 -192 89 -293 136 -102 47 -235 108 -295
137 -284 134 -426 198 -426 191 0 -2 60 -44 132 -93 342 -230 406 -278 473
-352 37 -41 91 -100 119 -130 153 -164 237 -260 230 -260 -6 0 -248 66 -494
135 -47 13 -161 45 -255 70 -93 26 -233 64 -309 86 -77 21 -141 37 -143 35 -2
-2 52 -28 119 -59 419 -189 466 -214 577 -299 236 -181 386 -300 389 -309 2
-5 -9 -7 -25 -4 -15 3 -181 21 -368 40 -187 19 -380 39 -430 45 -191 21 -407
42 -410 38 -2 -1 140 -42 314 -90 l318 -86 269 -147 c148 -81 272 -150 276
-154 5 -4 -85 -13 -200 -19 -114 -7 -274 -17 -357 -22 -82 -6 -220 -15 -305
-20 -400 -25 -379 -23 -330 -32 25 -4 173 -21 330 -37 l285 -29 235 -82 c129
-45 262 -91 295 -103 48 -16 56 -22 40 -28 -11 -5 -200 -49 -420 -99 -220 -50
-434 -99 -475 -110 -41 -10 -128 -30 -193 -45 -65 -15 -117 -28 -115 -30 2 -1
93 3 203 11 467 31 454 32 784 -25 161 -28 295 -52 297 -54 2 -2 -126 -57
-284 -122 -158 -65 -333 -138 -390 -161 -57 -24 -107 -44 -113 -44 -5 0 -20
-6 -32 -13 -12 -8 -93 -43 -179 -78 -86 -35 -155 -65 -154 -67 2 -1 148 31
326 73 l323 75 315 0 c221 0 313 -3 306 -10 -6 -6 -58 -40 -115 -75 -57 -35
-135 -84 -174 -108 -158 -100 -596 -373 -673 -420 -45 -27 -81 -51 -79 -53 2
-2 138 52 303 120 l300 125 308 51 c170 28 310 49 312 48 1 -2 -79 -75 -178
-163 -100 -88 -186 -164 -192 -170 -6 -5 -69 -61 -141 -123 -71 -63 -148 -130
-170 -150 -22 -21 -88 -79 -147 -131 -60 -52 -108 -96 -108 -98 0 -3 40 22
364 224 l198 125 306 104 c206 70 300 98 290 87 -8 -10 -53 -65 -99 -123 -47
-58 -163 -201 -259 -319 -96 -118 -224 -276 -284 -350 -60 -75 -116 -145 -125
-156 -20 -25 56 40 295 251 l191 169 273 148 c150 81 275 145 278 143 5 -5
-341 -622 -396 -706 -20 -30 -37 -59 -38 -65 -1 -5 -34 -66 -74 -135 -82 -142
-107 -189 -92 -175 5 6 100 121 209 257 149 184 218 261 274 305 211 167 429
332 429 324 0 -9 -58 -168 -182 -501 -28 -74 -54 -146 -58 -160 -5 -14 -47
-130 -94 -259 -48 -129 -85 -236 -83 -237 2 -2 74 122 161 277 l158 280 216
234 c119 129 217 233 218 232 1 -1 -33 -191 -77 -422 -44 -231 -84 -447 -89
-480 -6 -33 -22 -118 -36 -189 -14 -71 -23 -130 -21 -132 2 -2 27 63 56 144
177 489 157 446 326 703 84 129 163 248 175 264 l22 30 -6 -290 c-3 -159 -8
-441 -11 -625 l-5 -335 29 150 c17 83 44 227 62 320 31 163 36 179 124 380 51
116 108 246 126 288 18 42 36 77 40 77 3 0 11 -37 17 -82 14 -102 138 -951
156 -1068 l14 -85 2 65 c1 36 6 191 10 345 l7 280 72 275 c39 151 75 283 79
293 6 14 19 -16 49 -110 23 -70 107 -335 188 -588 81 -253 149 -462 152 -465
3 -3 3 13 0 35 -74 483 -89 604 -83 685 11 165 46 543 50 547 9 9 396 -750
396 -776 0 -12 4 -20 9 -17 4 3 44 -64 87 -148 44 -85 80 -153 82 -151 2 2
-17 65 -42 141 -159 491 -154 470 -171 694 -9 113 -20 252 -25 310 -5 58 -7
106 -6 107 1 1 51 -64 111 -145 320 -431 636 -852 641 -852 2 0 -11 28 -29 63
-19 34 -87 166 -152 292 l-119 230 -77 308 c-76 303 -77 308 -51 285 28 -24
168 -157 377 -359 147 -142 342 -329 365 -349 10 -8 48 -44 85 -80 l67 -65
-48 67 c-27 37 -118 159 -202 272 l-153 204 -125 287 c-69 158 -124 288 -122
290 2 1 131 -85 288 -192 157 -108 368 -252 470 -321 102 -69 208 -141 235
-159 51 -35 -103 120 -332 334 -79 74 -117 119 -173 206 -39 62 -116 181 -171
265 -55 85 -99 155 -97 157 2 1 172 -76 378 -172 485 -226 760 -352 760 -348
0 2 -1 3 -331 228 -212 144 -218 150 -355 299 -76 84 -172 188 -212 231 -40
44 -72 81 -70 83 4 3 488 -128 728 -197 58 -17 123 -35 145 -40 22 -4 103 -26
180 -48 77 -22 141 -38 143 -37 1 2 -39 22 -90 46 -51 23 -185 86 -298 138
l-204 95 -243 190 c-134 104 -245 192 -247 196 -3 4 30 3 72 -1 267 -28 763
-79 797 -83 22 -2 85 -9 140 -14 55 -6 129 -14 165 -17 36 -4 63 -4 60 -2 -3
3 -142 43 -310 88 -280 76 -314 87 -420 143 -256 135 -451 245 -443 250 4 2
60 8 123 11 359 21 772 47 890 56 75 5 160 11 190 11 47 1 40 3 -45 14 -55 7
-203 23 -330 35 l-230 22 -185 63 c-102 35 -241 83 -310 106 l-125 43 45 12
c39 11 321 76 620 145 278 63 479 110 505 118 28 8 26 9 -20 10 -27 1 -117 -4
-200 -9 -417 -29 -346 -32 -688 26 -170 29 -310 54 -313 56 -5 6 9 12 281 124
216 88 275 113 500 207 72 30 183 76 247 102 65 27 116 50 115 51 -2 2 -138
-29 -302 -69 l-300 -72 -340 -2 -340 -3 95 60 c52 34 214 135 360 226 146 90
321 200 390 243 69 43 148 93 175 110 28 17 46 31 42 31 -4 0 -142 -56 -305
-124 l-298 -124 -309 -51 c-170 -28 -310 -49 -312 -47 -5 5 635 569 656 578 9
4 13 7 8 7 -4 1 32 36 80 78 49 43 90 80 93 83 3 3 24 22 48 43 23 20 39 37
36 37 -3 0 -104 -62 -225 -137 -310 -195 -337 -211 -404 -232 -33 -11 -165
-55 -292 -99 -128 -45 -233 -79 -233 -76 0 4 61 80 280 349 344 421 500 615
500 621 0 4 -238 -202 -260 -226 -51 -55 -253 -216 -310 -247 -41 -22 -164
-89 -273 -148 -109 -59 -200 -106 -202 -104 -2 2 27 58 64 124 62 109 334 588
372 653 19 33 107 190 144 257 l27 50 -29 -31 c-15 -17 -109 -131 -208 -254
-170 -211 -187 -228 -310 -323 -71 -56 -184 -143 -249 -194 -65 -51 -120 -92
-122 -90 -3 3 49 147 160 447 14 36 46 124 71 195 26 72 53 144 60 160 11 25
108 294 130 360 9 26 -53 -79 -202 -343 l-121 -214 -207 -224 c-114 -123 -212
-227 -218 -231 -7 -4 -8 5 -4 28 8 43 46 249 141 755 42 220 76 407 76 415 -1
8 -51 -124 -113 -292 l-113 -307 -163 -248 c-90 -137 -170 -256 -178 -264 -12
-13 -14 -2 -9 80 3 52 8 266 11 475 3 209 8 450 10 535 3 85 3 151 0 145 -3
-5 -32 -153 -64 -327 l-60 -317 -122 -278 c-67 -153 -125 -282 -130 -286 -10
-12 -13 4 -64 363 -66 454 -68 469 -63 495 3 14 1 22 -3 19 -5 -3 -9 -2 -9 3
-1 29 -49 325 -54 330 -3 4 -6 -79 -7 -183z m-18 -1010 c-6 -242 -11 -452 -12
-469 -1 -33 -3 -27 -77 206 l-41 127 49 213 c26 118 56 249 65 292 10 43 19
76 22 74 2 -3 -1 -202 -6 -443z m365 -17 c-46 -247 -86 -450 -88 -452 -2 -3
-16 79 -30 181 l-27 185 93 227 c51 125 101 249 111 276 11 27 20 45 22 40 1
-5 -35 -211 -81 -457z m483 281 c-23 -62 -51 -142 -64 -178 -52 -145 -193
-527 -208 -560 -14 -32 -14 -21 -9 155 l5 190 140 230 c161 263 168 275 173
275 2 0 -15 -51 -37 -112z m-1190 -488 c23 -157 44 -298 47 -315 3 -16 -36 48
-86 144 -79 151 -91 178 -86 210 3 20 10 144 16 276 6 132 14 247 17 255 6 15
18 -56 92 -570z m1648 453 c-6 -11 -170 -300 -194 -343 -180 -319 -266 -470
-269 -467 -2 1 1 21 6 42 5 22 21 104 36 182 l26 143 195 225 c172 197 217
247 200 218z m-1977 -553 c50 -157 95 -296 101 -309 21 -51 -3 -26 -109 116
l-110 148 -31 285 c-17 157 -31 290 -30 295 1 13 63 -174 179 -535z m2318 283
c-35 -43 -169 -208 -297 -366 -128 -159 -235 -287 -237 -285 -1 2 25 79 58
172 l62 168 130 107 c270 223 341 281 344 281 2 0 -25 -35 -60 -77z m-2659
-381 c111 -217 201 -395 199 -397 -2 -2 -63 55 -136 127 l-132 130 -76 267
c-41 146 -77 275 -80 286 l-6 20 15 -20 c7 -11 105 -197 216 -413z m3004 125
c-32 -30 -76 -69 -98 -88 -22 -19 -123 -109 -225 -200 -245 -218 -320 -282
-320 -277 0 3 41 76 90 164 l90 158 253 147 c138 81 256 147 260 148 5 1 -18
-23 -50 -52z m-3289 -349 c146 -197 266 -360 266 -363 0 -3 -68 41 -151 97
l-152 103 -52 110 c-29 61 -76 160 -105 220 -82 172 -103 221 -87 205 8 -8
134 -176 281 -372z m3591 38 c-38 -24 -113 -71 -165 -104 -116 -72 -539 -336
-560 -348 -21 -11 -9 4 117 159 99 121 104 126 170 151 37 14 163 61 278 105
116 44 215 80 220 80 6 1 -21 -19 -60 -43z m-3885 -262 c218 -208 377 -364
370 -364 -4 0 -52 21 -106 46 -55 25 -127 59 -161 75 -47 22 -69 39 -94 76
-18 26 -87 127 -154 223 -169 242 -171 247 -64 144 52 -50 146 -140 209 -200z
m4189 -68 c-10 -10 -852 -357 -856 -353 -7 7 260 237 282 243 25 6 557 112
569 113 5 1 7 -1 5 -3z m-4462 -202 c444 -302 512 -348 510 -351 -2 -1 -83 20
-182 47 -180 50 -180 50 -224 97 -25 27 -119 123 -210 216 -91 92 -163 167
-159 167 4 0 123 -79 265 -176z m4628 -209 c-5 -2 -109 -27 -230 -55 -121 -27
-316 -72 -433 -100 -117 -27 -218 -50 -224 -50 -13 0 17 20 177 120 l119 75
146 6 c176 6 459 9 445 4z m-4590 -239 c209 -97 373 -176 365 -176 -47 0 -339
32 -358 40 -20 9 -461 327 -487 352 -12 12 12 1 480 -216z m4682 -178 c10 -3
-2 -8 -27 -11 -39 -6 -848 -58 -875 -56 -11 0 2 6 211 92 l131 53 271 -37
c149 -21 279 -39 289 -41z m-4859 -144 c468 -127 494 -135 490 -139 -2 -2 -85
-9 -186 -15 l-182 -11 -258 132 c-141 72 -259 133 -261 135 -10 9 30 -1 397
-102z m4459 -153 c32 -11 126 -40 208 -66 216 -67 263 -83 240 -84 -11 -1
-150 13 -310 29 -159 17 -337 35 -395 41 -58 6 -130 13 -160 17 l-55 7 175 42
c184 44 201 45 297 14z m-4571 -211 c159 -16 339 -35 399 -41 61 -6 133 -14
160 -18 l50 -7 -135 -32 c-257 -61 -198 -64 -510 33 -151 47 -279 87 -285 89
-23 10 48 4 321 -24z m4744 -245 c146 -74 260 -134 253 -134 -13 -1 -884 237
-890 243 -2 2 53 7 124 11 70 3 135 8 143 9 8 2 35 4 60 4 39 1 83 -18 310
-133z m-4101 -109 c-2 -2 -80 -36 -174 -74 l-170 -69 -300 42 c-165 24 -293
44 -285 45 39 4 841 57 884 59 27 0 47 -1 45 -3z m3613 -85 c189 -21 143 0
374 -171 56 -41 138 -102 183 -134 45 -33 80 -61 78 -63 -2 -2 -161 69 -353
158 -487 225 -491 228 -469 228 11 0 95 -8 187 -18z m-3532 -195 c0 -2 -69
-47 -152 -99 l-153 -95 -280 -7 c-154 -3 -289 -9 -300 -12 -12 -3 -16 -2 -10
4 10 9 74 25 540 133 143 33 276 64 295 69 41 10 60 13 60 7z m3429 -112 l155
-42 135 -139 c75 -76 172 -176 216 -222 l80 -84 -130 89 c-71 48 -251 171
-400 272 -148 101 -256 180 -240 176 17 -4 99 -26 184 -50z m-3290 -147 c-12
-10 -208 -184 -236 -210 -30 -28 -51 -34 -325 -88 -161 -31 -294 -56 -296 -54
-2 1 50 25 114 51 64 27 253 106 418 176 254 106 348 142 325 125z m3186 -161
l100 -47 80 -117 c244 -355 258 -377 225 -347 -42 37 -513 487 -595 567 l-60
59 75 -34 c41 -19 120 -56 175 -81z m-3125 -213 l-112 -138 -281 -107 c-155
-59 -283 -106 -284 -104 -2 1 130 85 292 187 162 101 339 212 392 245 54 34
100 60 102 58 1 -1 -47 -65 -109 -141z m2850 -3 c80 -55 148 -101 151 -102 8
-3 259 -532 259 -544 0 -6 -534 702 -554 735 -4 6 -5 11 -3 11 2 0 68 -45 147
-100z m-2607 -202 c-47 -84 -90 -159 -97 -166 -7 -7 -46 -32 -87 -55 -40 -24
-150 -87 -244 -141 -93 -54 -174 -101 -180 -103 -16 -7 64 66 365 332 157 139
291 259 299 268 7 10 17 17 22 17 4 0 -31 -69 -78 -152z m2441 -78 l68 -66 83
-290 c46 -159 82 -290 80 -292 -1 -2 -58 104 -125 235 -68 131 -166 321 -218
423 l-95 185 69 -65 c38 -35 100 -94 138 -130z m-2182 -112 l-67 -177 -225
-184 c-124 -102 -226 -184 -228 -182 -2 1 95 124 215 272 120 148 251 310 292
361 41 50 76 90 77 89 2 -2 -27 -82 -64 -179z m1979 -322 c10 -94 24 -216 29
-271 6 -55 13 -112 16 -127 3 -16 3 -28 1 -28 -6 0 -8 8 -147 440 -51 157
-103 319 -116 360 -13 41 -24 79 -24 84 0 5 50 -57 111 -139 l110 -148 20
-171z m-1685 192 l-33 -177 -89 -103 c-153 -178 -296 -343 -307 -353 -14 -14
-36 -53 235 425 58 102 131 231 163 288 31 56 59 101 61 99 2 -2 -11 -82 -30
-179z m1264 -6 l83 -162 -12 -208 c-6 -114 -14 -250 -18 -302 -8 -113 -6 -122
-57 231 -19 134 -47 320 -61 413 -24 165 -29 204 -21 195 2 -2 40 -77 86 -167z
m-952 -97 l-4 -160 -148 -240 c-142 -232 -178 -284 -162 -240 4 11 36 99 71
195 35 96 102 280 149 409 47 128 87 236 87 240 7 31 10 -74 7 -204z m638 28
l57 -178 -63 -285 c-35 -157 -67 -292 -72 -300 -7 -11 -8 -10 -4 5 3 11 8 226
12 478 4 251 8 457 10 457 1 0 28 -80 60 -177z m-316 -56 l22 -162 -113 -277
c-62 -153 -115 -276 -117 -274 -2 2 1 21 6 42 6 22 45 229 88 462 54 288 81
415 85 398 4 -15 17 -99 29 -189z"/>
<path d="M7008 4083 c7 -3 16 -2 19 1 4 3 -2 6 -13 5 -11 0 -14 -3 -6 -6z"/>
</g>
</svg>
