<?xml version="1.0" encoding="utf-8"?>
<svg version="1.1" id="Layer_1" xmlns="http://www.w3.org/2000/svg" xmlns:xlink="http://www.w3.org/1999/xlink" x="0px" y="0px"
	 viewBox="0 0 1656.828 1632.926" enable-background="new 0 0 1656.828 1632.926" xml:space="preserve">
<path d="M1407.962,478.353c-2.621,7.582-8.744,11.706-11.716,18.267c3.827-0.896,22.471-3.096,25.353-0.367
	c4.992,4.729-7.218,19.763-11.023,25.036c74.569-10.44,54.996,63.944,177.271,150.16c1.128,0.795,23.802,17.698,33.508,21.159
	c4.054,1.445,20.888-0.33,18.766,6.387c-1.153,3.651-6.75,4.345-10.417,6.873c-22.396,15.441-79.81,101.924-92.674,177.656
	c-7.341,43.216-36.215,60.775-51.825,58.352c3.723,3.436,18.552,11.45,19.38,16.4c0.839,5.019-2.326,3.641-5.597,5.439
	c-5.813,3.195-13.106,4.8-19.363,7.091c20.614,3.251,30.966,33.328,31.226,50.923c0.538,36.377-15.207,60.817,3.98,160.929
	c3.182,16.604,7.903,37.396,15.786,52.444c2.381,4.546,13.596,13.909,11.359,17.992c-2.14,3.905-21.37-1.812-28.928-0.517
	c-65.057,11.147-138.234,49.735-166.293,73.904c-23.771,20.475-51.634,31.344-80.619,13.632c2.17,7.517,9.433,25.74-0.343,27.044
	c-4.251,0.567-17.45-5.905-20.487-8.284c1.17-0.634,3.841,27.357,3.05,31.56c-8.515,45.226-56.304,42.2-115.072,156.569
	c-22.617,44.015-22.848,49.549-21.717,60.86c-0.021-0.213,1.664,4.403,1.748,4.174c-4.438,12.152-11.808-6.629-16.144-10.102
	c-12.397-9.931-30.236-16.603-44.784-22.643c-57.196-23.749-91.194-30.72-144.366-32.703c-26.083-0.973-59.116-11.331-64.782-41.115
	c-6.076,0-7.132,23.79-16.29,21.049c-6.047-1.81-8.98-16.106-13.05-20.589c-1.724,25.361-35.228,37.927-56.182,40.227
	c-23.137,2.541-11.699-3.252-66.375,6.709c-62.831,11.446-122.933,41.975-132.036,49.852c-2.647,2.291-7.849,13.049-10.185,13.467
	c-6.87,1.228-4.616-6.27-4.301-9.156c2.952-27.055-45.084-114.547-97.484-164.351c-9.158-8.704-20.132-16.227-27.497-26.631
	c-8.855-12.51-21.111-44.975-6.749-56.736c-7.066,0-13.981,7.728-20.981,7.571c-6.649-0.149-6.137-1.735-5.475-7.82
	c0.432-3.967,2.04-15.74,4.476-18.741c-43.729,26.615-77.387-12.347-100.812-28.384c-26.441-18.101-56.746-30.652-86.591-42.153
	c-65.363-25.187-74.851-14.964-83.865-15.183c-2.701-0.065-5.045,1.007-6.095-2.919c-1.219-4.557,1.319-1.589,2.83-3.929
	c13.93-21.584,9.425-8.653,17.541-37.364c31.084-109.967,11.177-162.675,11.686-183.941c0.565-23.624,9.3-44.908,30.918-55.654
	c-5.453-2.661-18.591-3.917-22.387-8.515c-5.918-7.17,14.038-14.94,17.867-20.715c-25.207,3.473-42.717-25.65-49.74-45.335
	c-6.143-17.218-9.104-69.817-61.121-149.231c-8.468-12.928-17.055-27.988-28.643-38.349c-4.117-3.682-19.46-5.485-15.199-12.576
	c1.622-2.698,4.85-1.247,8.302-1.393c24.922-1.053,96.652-67.094,116.204-88.869c15.878-17.685,26.974-36.972,40.478-56.26
	c12.566-17.947,40.356-39.054,63.848-27.874c-0.102-6.022-14.879-16.357-13.07-22.52c2.115-7.203,21.303-1.573,26.84-3.31
	c-44.816-62.324,25.357-66.619,41.429-224.997c1.359-13.395,3.786-27.028,2.034-40.457c-0.668-5.12-12.368-24.911-0.013-21.815
	c0.827,0.207,5.156,4.825,6.885,5.848c14.457,8.556,90.353,12.618,140.316,5.541c62.535-8.858,94.482-42.17,137.547,1.92
	c-0.659-3.828,0.765-19.754,3.35-23.12c5.308-6.911,19.092,8.043,23.65,13.47c-6.1-21.57,13.703-45.05,31.354-54.7
	c22.093-12.079,45.898-19.803,67.733-32.579c26.275-15.374,104.233-73.731,109.277-99.263c0.73-3.696,0.219-7.59,4.002-9.112
	c5.57-2.241,5.632,8.31,7.033,11.985c3.416,8.96,58.311,80.527,162.36,122.437c21.126,8.509,53.496,33.866,44.789,60.832
	c5.957-4.411,18.028-21.27,23.618-12.663c2.274,3.501,1.027,21.099,4.272,22.113c8.872-18.375,34.06-22.545,51.849-21.375
	c16.975,1.117,32.794,9.43,49.386,13.466c57.73,14.042,149.671,13.795,174.26,1.827c2.768-1.347,8.448-8,11.086-7.256
	c6.356,1.793,1.622,5.239,0.706,7.818c-12.531,35.284,6.625,123.59,28.554,175.944c4.516,10.781,10.711,20.303,16.144,30.497
	c6.071,11.39,6.904,23.065,9.752,35.268C1412.733,463.898,1410.089,472.2,1407.962,478.353z"/>
</svg>
