<?xml version="1.0" encoding="UTF-8" standalone="no"?>
<!-- Created with Inkscape (http://www.inkscape.org/) -->

<svg
   xmlns:dc="http://purl.org/dc/elements/1.1/"
   xmlns:cc="http://creativecommons.org/ns#"
   xmlns:rdf="http://www.w3.org/1999/02/22-rdf-syntax-ns#"
   xmlns:svg="http://www.w3.org/2000/svg"
   xmlns="http://www.w3.org/2000/svg"
   xmlns:sodipodi="http://sodipodi.sourceforge.net/DTD/sodipodi-0.dtd"
   xmlns:inkscape="http://www.inkscape.org/namespaces/inkscape"
   id="svg3394"
   version="1.1"
   inkscape:version="0.91 r13725"
   width="912.1875"
   height="696.5625"
   viewBox="0 0 912.1875 696.5625"
   sodipodi:docname="DiademaBolinaSilhouette.svg">
  <metadata
     id="metadata3400">
    <rdf:RDF>
      <cc:Work
         rdf:about="">
        <dc:format>image/svg+xml</dc:format>
        <dc:type
           rdf:resource="http://purl.org/dc/dcmitype/StillImage" />
        <dc:title></dc:title>
      </cc:Work>
    </rdf:RDF>
  </metadata>
  <defs
     id="defs3398" />
  <sodipodi:namedview
     pagecolor="#ffffff"
     bordercolor="#666666"
     borderopacity="1"
     objecttolerance="10"
     gridtolerance="10"
     guidetolerance="10"
     inkscape:pageopacity="0"
     inkscape:pageshadow="2"
     inkscape:window-width="1600"
     inkscape:window-height="837"
     id="namedview3396"
     showgrid="false"
     inkscape:zoom="0.96186631"
     inkscape:cx="456.09375"
     inkscape:cy="348.28125"
     inkscape:window-x="-8"
     inkscape:window-y="-8"
     inkscape:window-maximized="1"
     inkscape:current-layer="svg3394" />
  <path
     style="fill:#000000"
     d="m 520.3125,695.97941 c -5.03607,-0.86238 -10.90948,-2.42656 -13.59375,-3.62023 -1.54688,-0.68789 -3.86719,-1.46716 -5.15625,-1.73172 -1.28906,-0.26456 -4.875,-1.16202 -7.96875,-1.99437 -3.09375,-0.83234 -8.78906,-1.67883 -12.65625,-1.88109 -7.42508,-0.38832 -11.4339,-1.48947 -13.71043,-3.76601 -0.75996,-0.75995 -2.10787,-1.91846 -2.99537,-2.57448 -1.66143,-1.22809 -5.83195,-12.85623 -5.80778,-16.19311 0.0188,-2.59161 -2.3115,-13.4808 -4.05044,-18.92737 -0.79191,-2.48038 -1.90795,-6.88288 -2.48008,-9.78335 -0.57213,-2.90046 -2.31093,-7.27724 -3.86399,-9.72617 -1.55306,-2.44893 -3.25999,-6.81244 -3.79317,-9.69668 -0.53318,-2.88426 -1.77477,-6.82271 -2.75908,-8.75212 -0.98431,-1.9294 -1.78966,-4.09225 -1.78966,-4.80631 0,-0.71406 -0.88694,-2.10097 -1.97098,-3.08201 -2.46845,-2.23391 -4.59152,-6.26885 -4.59152,-8.72625 0,-1.03123 -0.56181,-2.21234 -1.24847,-2.62468 -4.71569,-2.83179 -9.80788,-20.44704 -15.12232,-52.31221 -0.85996,-5.15625 -2.17401,-11.90625 -2.92011,-15 -2.89064,-11.9862 -4.86317,-19.31032 -5.32503,-19.77218 -0.5494,-0.5494 -4.93809,7.00906 -5.90765,10.17449 -6.91904,22.5894 -21.4923,20.06104 -24.29869,-4.21566 -0.34181,-2.95672 -1.01306,-5.61787 -1.4917,-5.91368 -0.98298,-0.60752 -4.87772,1.81659 -4.12616,2.56815 0.26699,0.267 -0.15756,1.01909 -0.94346,1.67132 -0.78591,0.65224 -1.42891,1.75237 -1.42891,2.44473 0,0.69236 -1.25323,2.68618 -2.78496,4.43073 -1.53172,1.74454 -3.58876,5.02875 -4.57118,7.29824 -0.98243,2.2695 -3.63155,6.23573 -5.88692,8.81386 -5.4222,6.19811 -4.72138,5.18564 -11.4901,16.59982 -6.62214,11.16697 -14.96839,21.98617 -17.60677,22.82355 -0.9485,0.30105 -2.16083,1.36254 -2.69405,2.35887 -0.53322,0.99633 -1.54284,1.81151 -2.24361,1.81151 -1.568,0 -7.56616,5.48521 -7.56616,6.91911 0,0.57281 -1.6875,1.58557 -3.75,2.25059 -2.0625,0.66501 -4.17187,1.72154 -4.6875,2.34783 -0.51562,0.6263 -3.04687,2.82161 -5.625,4.87846 -5.89396,4.70227 -10.42425,8.71566 -13.23965,11.72901 -1.20437,1.28906 -4.97696,5.29687 -8.38352,8.90625 -3.40655,3.60937 -6.76888,7.93359 -7.47182,9.60937 -0.70295,1.67579 -1.71291,3.04688 -2.24437,3.04688 -0.53146,0 -1.79694,1.58203 -2.81218,3.51562 -7.47409,14.23483 -24.72199,21.01357 -38.34181,15.06905 -10.18381,-4.44483 -16.79536,-5.6482 -29.89642,-5.44148 -11.21061,0.17689 -16.32735,-1.72064 -25.86203,-9.5909 -2.99161,-2.46938 -5.81084,-4.48979 -6.26495,-4.48979 -0.4541,0 -1.0775,-0.79351 -1.38532,-1.76336 -0.32005,-1.00841 -1.78448,-2.00832 -3.42046,-2.33552 -1.57345,-0.31469 -3.83317,-1.33702 -5.02161,-2.27185 -1.18844,-0.93483 -5.47844,-2.46155 -9.53333,-3.39271 -4.0549,-0.93118 -8.75794,-2.27939 -10.45121,-2.99605 -1.69328,-0.71665 -3.91716,-1.30301 -4.94198,-1.30301 -1.07774,0 -2.3135,-0.98811 -2.93117,-2.34375 -0.58734,-1.28906 -1.42204,-2.34375 -1.85491,-2.34375 -0.43285,0 -0.78701,-0.40314 -0.78701,-0.89587 0,-0.97538 -3.56554,-6.61657 -6.54438,-10.35413 -1.02739,-1.28906 -1.87363,-2.85625 -1.88055,-3.48264 -0.007,-0.62639 -0.93694,-1.6336 -2.06673,-2.23825 -1.12979,-0.60464 -3.4166,-2.42253 -5.08181,-4.03976 -1.6652,-1.61723 -5.16463,-3.70886 -7.77651,-4.64808 -6.239189,-2.24359 -14.839611,-10.85329 -15.574464,-15.59127 -0.688173,-4.43701 -3.093441,-12.96248 -4.628654,-16.40625 -0.689587,-1.54688 -2.207403,-5.01517 -3.372925,-7.70731 -1.165522,-2.69214 -3.722914,-7.12183 -5.683094,-9.84375 -1.960178,-2.72192 -4.758153,-6.63644 -6.217722,-8.69894 -3.084907,-4.35925 -5.72498,-13.87962 -5.737774,-20.691 -0.01073,-5.70865 -2.898822,-14.45163 -7.366499,-22.30016 -6.181607,-10.85946 -7.165116,-16.56449 -4.438456,-25.74615 2.207189,-7.43242 0.920164,-29.20214 -2.076309,-35.12032 -1.352455,-2.67116 1.46073,-11.49745 5.019147,-15.74744 0.681577,-0.81404 1.23923,-2.03745 1.23923,-2.71869 0,-0.68125 1.650421,-4.10124 3.667601,-7.59999 2.017182,-3.49876 3.956335,-7.33785 4.309229,-8.53131 2.921043,-9.87877 6.829952,-15.49444 13.276041,-19.07281 3.521858,-1.95506 6.747345,-4.13147 7.167747,-4.83646 C 83.499416,354.42419 97.078734,345 98.075531,345 c 0.819891,0 6.452779,-4.21416 7.205429,-5.39063 0.41234,-0.64453 1.36156,-1.17187 2.10937,-1.17187 0.74782,0 1.35967,-0.4287 1.35967,-0.95267 0,-0.52397 1.58203,-1.68412 3.51563,-2.57812 1.93359,-0.894 3.72656,-1.883 3.98437,-2.19778 0.25781,-0.31476 1.94531,-1.32249 3.75,-2.23937 1.80469,-0.91689 4.58723,-2.76872 6.18344,-4.11519 1.59621,-1.34646 3.69699,-2.91055 4.6684,-3.47575 1.40406,-0.81691 -0.15218,-1.15953 -7.58969,-1.6709 C 71.755221,317.66632 45,307.41338 45,291.2167 c 0,-0.83808 -1.411171,-3.10704 -3.135935,-5.04213 -11.718849,-13.14782 -16.257721,-44.8715 -7.910223,-55.28716 1.353091,-1.68834 1.375065,-13.89039 0.03761,-20.88741 -1.432311,-7.49331 -1.538541,-27.74167 -0.173975,-33.16086 0.915745,-3.63675 0.715574,-4.69337 -2.254288,-11.89952 -3.127069,-7.5876 -4.812348,-13.52943 -7.295189,-25.72087 -1.205839,-5.92101 -5.37318,-15.27842 -7.643344,-17.16248 -0.737461,-0.61204 -2.50736,-3.9618 -3.933106,-7.44391 -1.425744,-3.48211 -3.1340545,-7.59673 -3.7962439,-9.14361 C 3.4238493,92.687417 -0.0079718,74.825816 0.01108623,59.229038 0.03176119,42.308985 7.6679306,19.904152 15.698322,13.202046 c 1.936236,-1.615968 4.224742,-3.598041 5.085569,-4.4046076 1.680341,-1.5744227 7.790544,-4.0013312 10.243948,-4.0687889 0.823124,-0.022632 2.792392,-0.6875808 4.37615,-1.4776634 15.773543,-7.8688793 71.202311,0.068895 111.314761,15.9410259 21.38839,8.463188 24.19282,9.739215 41.71875,18.982208 8.26103,4.356779 15.68954,8.154617 25.06791,12.816 3.73265,1.855266 8.79515,4.792902 11.25,6.52808 2.45483,1.735178 7.41646,4.776484 11.02584,6.75846 3.60937,1.981974 8.54689,5.160136 10.97225,7.06258 2.42536,1.902444 7.27692,5.386634 10.78125,7.742644 3.50433,2.356009 9.11369,6.422152 12.46525,9.035871 3.35156,2.613719 8.41406,6.507489 11.25,8.652826 5.88619,4.452789 17.24363,14.535999 29.53125,26.218029 4.64062,4.41191 9.81845,9.17606 11.50628,10.58699 2.72291,2.27622 22.47731,24.24346 31.09861,34.58223 1.77644,2.13032 7.10446,8.51394 11.84004,14.18582 7.86434,9.41923 11.30889,13.8369 25.16118,32.26937 2.53336,3.371 5.61679,8.61642 6.85208,11.65648 2.37474,5.84429 4.27633,9.24863 6.88398,12.32415 0.87437,1.03125 2.15018,3.46624 2.83515,5.41109 0.68496,1.94484 2.17716,4.41143 3.31596,5.48128 l 2.07058,1.94521 1.35981,-2.5953 c 1.22319,-2.33452 1.17576,-3.0114 -0.47202,-6.73647 -2.95456,-6.67928 0.21672,-14.09125 7.38592,-17.26253 3.68816,-1.63145 5.27261,-3.8785 3.30053,-4.68078 -0.42248,-0.17188 -2.59652,-3.05469 -4.83119,-6.40625 -2.23467,-3.35156 -5.71271,-8.20313 -7.72897,-10.78125 -4.30261,-5.5016 -12.62198,-18.39687 -14.49567,-22.46872 -0.71973,-1.56407 -2.5453,-4.74222 -4.05683,-7.06253 -1.51153,-2.32031 -4.04017,-6.53906 -5.61919,-9.375 -1.57902,-2.83594 -4.11659,-7.05469 -5.63903,-9.375 -1.52245,-2.32031 -3.04999,-4.85156 -3.39453,-5.625 -0.34454,-0.77344 -1.29563,-2.18333 -2.11353,-3.13312 -1.61682,-1.8775 -4.51167,-6.81133 -9.98806,-17.02313 -1.93564,-3.60937 -5.3019,-9.51562 -7.48058,-13.125 -2.17868,-3.60937 -5.33595,-9.30469 -7.01614,-12.65625 -1.6802,-3.351563 -4.20665,-7.78125 -5.61433,-9.84375 -1.40769,-2.0625 -2.88202,-4.804688 -3.27628,-6.09375 -0.39428,-1.289063 -1.6959,-4.03125 -2.89251,-6.09375 -3.46011,-5.963927 -4.10093,-11.972361 -1.23367,-11.567012 2.49724,0.353037 2.32643,0.05752 12.10404,20.942012 3.62105,7.734375 7.26471,15.32813 8.09704,16.875 0.83234,1.54688 5.62422,10.82813 10.64863,20.625 11.47615,22.37685 12.73239,24.71545 14.28691,26.59633 0.69488,0.84077 2.88871,4.27086 4.87519,7.62242 1.98648,3.35156 4.28539,6.87576 5.10869,7.83153 0.8233,0.95578 3.18441,4.80363 5.24691,8.55076 5.4116,9.83175 10.10979,16.95843 19.92187,30.2194 4.76954,6.446 8.67188,12.09761 8.67188,12.55915 0,2.5699 3.0318,0.12718 5.64911,-4.55146 9.54357,-17.05995 11.74151,-18.32518 10.99303,-6.32813 -0.27343,4.38281 -0.17117,7.96875 0.22726,7.96875 0.8521,0 1.8496,-3.35092 1.8678,-6.27454 0.0217,-3.48198 3.81544,-9.09721 5.14938,-7.62169 1.37859,1.52491 3.29585,10.00918 3.31527,14.67088 0.0319,7.64911 2.18817,7.22375 19.44971,-3.83667 4.21174,-2.6987 9.88735,-6.30948 12.61246,-8.02395 2.7251,-1.71449 7.27504,-4.99205 10.11098,-7.2835 2.83594,-2.29145 7.40678,-5.65237 10.15741,-7.46872 4.35479,-2.87563 12.16898,-9.01863 25.93634,-20.38942 2.0625,-1.70347 6.70312,-5.06678 10.3125,-7.47403 8.54235,-5.69726 30.43776,-27.23214 46.73554,-45.966 6.13462,-7.05158 8.69071,-8.87486 10.25241,-7.31316 1.86254,1.86254 -16.26509,22.34296 -29.96646,33.8558 -2.14775,1.80469 -6.36402,5.60698 -9.36949,8.44955 -5.24989,4.96531 -11.11368,9.72917 -14.40967,11.7067 -0.85941,0.51563 -3.62801,2.693 -6.15244,4.83862 -8.3204,7.07181 -35.89433,28.35271 -42.92714,33.13013 -3.38989,2.30276 -16.62417,10.82389 -21.66275,13.94794 -2.57812,1.5985 -7.2871,4.56533 -10.46438,6.59296 -3.17729,2.02761 -6.02495,3.43852 -6.32813,3.13534 -0.30319,-0.30318 -0.55123,0.0464 -0.55121,0.77688 2e-5,0.73047 1.44015,2.47721 3.2003,3.88164 5.71482,4.55985 7.64637,12.01486 5.26466,20.31941 -1.89529,6.60847 2.00471,6.48472 9.97705,-0.31659 1.97407,-1.68409 5.06577,-3.82153 6.87046,-4.74984 1.80469,-0.92832 5.17969,-3.25152 7.5,-5.16267 4.84075,-3.98713 16.5792,-12.17507 17.45452,-12.17507 0.3234,0 4.32311,-2.53674 8.88824,-5.63722 10.96492,-7.44698 28.60908,-18.03387 32.71974,-19.63256 1.80469,-0.70188 5.60156,-2.63686 8.4375,-4.29997 2.83594,-1.66311 6.21094,-3.34566 7.5,-3.73901 1.28906,-0.39333 3.82031,-1.62822 5.625,-2.74417 1.80469,-1.11596 6.86719,-3.44338 11.25,-5.17206 4.38281,-1.72866 9.23437,-3.91411 10.78125,-4.85653 5.43409,-3.31067 28.92624,-13.5506 37.15355,-16.19476 4.23198,-1.3601 25.95805,-9.14473 31.7527,-11.37724 1.80469,-0.6953 3.82898,-1.2827 4.49842,-1.30533 0.66943,-0.0226 2.98974,-0.89923 5.15625,-1.94802 5.09661,-2.4672 12.6166,-4.39485 25.46646,-6.52798 5.69119,-0.94475 11.40231,-1.96071 12.69137,-2.25767 13.75916,-3.16979 72.66408,-5.93506 93.75,-4.40108 36.17585,2.63175 75.62676,11.86931 88.87512,20.8104 2.21725,1.49638 4.41726,2.7207 4.8889,2.7207 0.47162,0 1.2612,0.7543 1.7546,1.67622 0.4934,0.92192 2.58005,3.51736 4.63702,5.76765 9.01533,9.86262 9.54746,51.44196 0.79159,61.85262 -0.68681,0.81662 -1.78993,3.3832 -2.45135,5.70351 -1.33577,4.68588 -5.42698,12.1875 -6.64678,12.1875 -0.43189,0 -1.02867,0.73828 -1.32617,1.64063 -0.29752,0.90234 -1.78364,3.11718 -3.30251,4.92187 -1.51886,1.80469 -3.72965,4.47502 -4.91287,5.93407 -3.62873,4.47465 -11.02147,11.87843 -11.86073,11.87843 -0.43655,0 -2.08907,1.16016 -3.67228,2.57812 -4.89815,4.38697 -6.1,5.32679 -9.38888,7.34189 -2.39297,1.46618 -3.93767,3.68024 -6.21367,8.90625 -1.66595,3.82524 -4.26352,8.81107 -5.77237,11.07961 -1.50885,2.26854 -3.16525,4.79812 -3.68087,5.62129 -2.00667,3.20358 -6.6241,9.18053 -9.95728,12.88902 -2.62816,2.92409 -3.64412,5.0109 -4.10778,8.4375 -1.32493,9.7917 -8.42288,25.37274 -14.67875,32.22204 -3.98317,4.36102 -4.50483,5.79278 -5.01403,13.76161 -1.22267,19.13474 -2.7389,23.71488 -9.40589,28.41267 -5.17338,3.64535 -9.79489,7.32464 -19.79116,15.75618 -14.97062,12.62726 -18.65546,14.78582 -26.4824,15.51326 -7.33491,0.6817 -27.40309,-1.3576 -35.25021,-3.58208 -2.57813,-0.73085 -7.70612,-2.19699 -11.39554,-3.25809 -3.68942,-1.0611 -7.21159,-1.92927 -7.82706,-1.92927 -0.61547,0 -2.56897,-0.68804 -4.34112,-1.52898 -5.87854,-2.78955 -3.37059,3.70273 4.81372,12.46116 1.03125,1.10359 3.14062,3.57224 4.6875,5.48588 1.54687,1.91365 3.88619,4.59228 5.19847,5.95253 1.31229,1.36023 4.4163,6.0591 6.89782,10.44191 2.48152,4.38281 5.57967,9.5525 6.88479,11.48819 1.30513,1.93569 3.71517,6.84829 5.35564,10.91688 l 2.98269,7.39744 -1.15706,10.17687 c -1.15184,10.13091 -0.85703,14.11429 1.70381,23.02186 1.65751,5.76548 0.39961,18.54754 -2.34736,23.8525 -1.29655,2.50388 -3.06695,6.87282 -3.93423,9.70876 -0.86729,2.83594 -2.13718,6.63281 -2.822,8.4375 -0.6848,1.80469 -1.97463,6.58613 -2.86626,10.62544 -0.89575,4.05789 -2.19312,7.56366 -2.89936,7.83468 -0.70301,0.26976 -1.2782,0.89312 -1.2782,1.38524 0,1.30856 -11.15232,11.87229 -13.22995,12.5317 -0.97353,0.30899 -1.77005,0.89807 -1.77005,1.30908 0,0.41101 -1.27012,2.17554 -2.82248,3.92119 -1.55237,1.74566 -3.0691,4.10093 -3.3705,5.23395 -0.30141,1.13302 -1.51073,2.69083 -2.68738,3.46179 -1.17664,0.77097 -2.42371,2.53471 -2.77124,3.91941 -1.17176,4.66866 -6.80753,12.19967 -12.61907,16.8627 C 667.83672,642.92768 660,649.94002 660,651.04504 c 0,1.15607 -3.39413,4.86486 -11.79596,12.88955 -5.15377,4.92243 -11.53895,8.20132 -16.03131,8.23232 -4.19081,0.0289 -24.17331,5.29796 -27.26413,7.18906 -1.41067,0.86312 -4.19873,2.64973 -6.19569,3.97027 -8.06408,5.33251 -17.08844,7.45571 -25.1793,5.92403 -11.75329,-2.225 -29.26717,0.004 -34.92433,4.44395 -1.59707,1.25356 -14.73728,2.89472 -18.29678,2.28519 z"
     id="path3404"
     inkscape:connector-curvature="0" />
</svg>
