<!DOCTYPE svg PUBLIC "-//W3C//DTD SVG 20010904//EN" "http://www.w3.org/TR/2001/REC-SVG-20010904/DTD/svg10.dtd">
<svg version="1.0" xmlns="http://www.w3.org/2000/svg" width="479px" height="436px" viewBox="0 0 4790 4360" preserveAspectRatio="xMidYMid meet">
<g id="layer1" fill="#000000" stroke="none">
 <path d="M2295 4193 c-88 -45 -84 -58 21 -68 41 -4 73 -9 70 -13 -3 -3 -39 -20 -80 -38 l-74 -32 -129 25 c-121 23 -135 24 -271 13 -147 -11 -245 -38 -329 -90 -34 -20 -53 -64 -36 -81 7 -7 66 -5 175 5 189 18 262 20 253 7 -3 -5 -31 -15 -61 -22 -66 -15 -105 -41 -88 -59 9 -9 42 -9 130 -2 65 6 121 8 123 6 26 -26 -256 -64 -470 -64 l-165 0 -129 -50 c-107 -41 -137 -57 -169 -91 -28 -30 -35 -44 -27 -52 8 -8 30 -2 84 24 69 33 75 34 135 25 34 -5 62 -12 62 -15 0 -4 -53 -24 -117 -45 -65 -21 -197 -69 -293 -107 l-175 -69 -155 -136 c-85 -74 -159 -139 -163 -143 -11 -11 -49 -241 -43 -258 8 -20 30 -6 143 92 84 73 111 90 191 121 51 20 96 34 98 31 3 -3 -36 -49 -86 -104 -83 -89 -99 -113 -177 -268 -47 -93 -119 -244 -159 -334 l-74 -165 0 -265 0 -266 74 -84 c108 -124 156 -141 121 -42 -18 52 -19 72 -3 69 7 -2 18 17 26 42 7 25 16 51 18 58 8 27 23 0 29 -53 4 -31 11 -58 16 -61 12 -7 29 39 29 76 0 36 10 61 21 54 5 -3 9 -48 9 -100 0 -52 7 -188 16 -302 15 -207 15 -207 51 -272 64 -114 79 -103 64 44 -11 98 -10 153 5 275 4 31 9 40 16 33 6 -6 11 -62 12 -134 1 -120 2 -126 49 -258 46 -130 51 -139 126 -225 71 -81 252 -247 371 -339 73 -57 427 -181 459 -161 6 3 11 10 11 14 0 4 -54 53 -120 110 -67 56 -118 106 -115 111 3 5 28 16 56 25 50 17 50 17 87 -9 20 -14 78 -63 127 -108 50 -46 149 -127 221 -180 l130 -98 190 -30 c185 -31 242 -32 286 -9 35 19 5 30 -136 50 -81 11 -146 25 -161 35 -14 9 -24 19 -22 21 3 2 55 -8 117 -22 91 -20 139 -25 250 -25 121 0 141 2 161 19 21 18 22 21 9 35 -8 8 -80 43 -160 78 -98 44 -179 88 -252 138 -58 41 -105 76 -103 78 1 2 33 -10 69 -27 72 -32 159 -44 427 -57 133 -6 167 0 136 24 -6 5 -75 30 -152 56 -124 42 -146 53 -195 96 -30 28 -49 50 -42 50 7 0 76 -16 154 -36 78 -19 147 -33 154 -30 23 9 6 29 -57 70 -33 21 -58 40 -56 42 6 7 337 -30 337 -37 0 -14 -124 -69 -156 -69 -63 0 -54 -21 31 -73 l60 -36 175 -12 175 -11 115 55 c93 45 129 68 190 126 54 51 71 74 64 81 -8 8 -23 8 -54 0 -23 -6 -44 -9 -46 -7 -5 5 133 98 235 158 47 27 88 61 113 92 45 58 40 74 -18 58 -22 -6 -42 -11 -46 -11 -22 0 96 156 279 371 17 20 77 329 66 340 -4 4 -13 5 -19 1 -6 -4 -61 -99 -122 -212 l-112 -205 -205 -154 c-200 -150 -278 -192 -162 -88 32 29 57 58 57 65 0 17 304 380 460 547 116 126 124 137 225 326 58 108 105 203 105 211 0 9 -7 21 -15 28 -17 14 -22 9 -198 -178 -48 -51 -87 -89 -87 -85 0 4 11 89 25 187 14 99 25 201 25 228 0 27 14 103 30 168 27 106 30 135 30 267 0 130 -4 162 -29 262 -16 63 -35 120 -43 127 -72 69 -180 147 -222 159 -57 17 -152 20 -161 5 -4 -6 18 -41 49 -78 31 -37 81 -97 112 -134 l56 -68 48 -191 48 -191 -10 -102 c-6 -55 -15 -105 -19 -110 -5 -6 -9 36 -9 95 0 57 -7 143 -15 192 -15 82 -66 237 -88 265 -23 30 -27 -10 -13 -123 9 -65 14 -121 11 -123 -7 -7 -11 9 -54 217 -23 106 -46 201 -53 210 -7 9 -67 81 -134 161 -66 80 -155 190 -198 245 -42 55 -113 132 -158 172 -72 63 -89 74 -149 88 -64 16 -89 15 -89 -4 0 -4 27 -30 60 -56 90 -72 204 -208 211 -253 4 -20 5 -40 3 -44 -2 -3 -22 1 -43 9 -32 12 -55 38 -124 132 -46 64 -111 157 -144 206 -70 105 -159 193 -176 176 -8 -8 -4 -25 16 -66 15 -31 27 -58 27 -60 0 -3 -33 19 -72 49 -110 81 -183 114 -334 147 -183 40 -325 41 -399 2z m-1165 -3236 c12 -37 12 -37 0 -37 -13 0 -38 29 -101 120 l-53 75 72 -64 c39 -36 76 -78 82 -94z m2351 136 c-35 -66 -157 -108 -269 -92 -36 5 -68 12 -71 14 -12 12 10 14 65 4 59 -11 59 -11 169 39 61 28 111 51 113 51 1 1 -2 -7 -7 -16z m-1460 -280 c13 -16 12 -17 -3 -4 -17 13 -22 21 -14 21 2 0 10 -8 17 -17z m-541 -94 c88 -53 114 -79 78 -79 -25 0 -198 116 -198 133 0 15 22 5 120 -54z m2150 21 c0 -5 -6 -10 -12 -10 -7 0 -24 -3 -38 -6 -24 -5 -24 -5 -6 10 22 18 56 21 56 6z"/>
 </g>

</svg>