<?xml version="1.0" encoding="utf-8"?>

<!DOCTYPE svg PUBLIC "-//W3C//DTD SVG 1.1//EN" "http://www.w3.org/Graphics/SVG/1.1/DTD/svg11.dtd">
<svg version="1.1" id="Layer_1" xmlns="http://www.w3.org/2000/svg" xmlns:xlink="http://www.w3.org/1999/xlink" x="0px" y="0px"
	 viewBox="0 0 1659.098 1659.098" enable-background="new 0 0 1659.098 1659.098" xml:space="preserve">
<g>
	<polygon stroke="#FFFFFF" stroke-width="0.7846" stroke-miterlimit="10" points="835.268,29.549 682.275,294.539 976.823,464.596 	
		"/>
	<polygon stroke="#FFFFFF" stroke-width="0.7846" stroke-miterlimit="10" points="434.502,133.869 434.502,439.854 774.615,439.854 
			"/>
	<polygon stroke="#FFFFFF" stroke-width="0.7846" stroke-miterlimit="10" points="139.588,424.596 292.58,689.587 587.128,519.53 	
		"/>
	<polygon stroke="#FFFFFF" stroke-width="0.7846" stroke-miterlimit="10" points="29.549,823.83 294.539,976.823 464.596,682.275 	
		"/>
	<polygon stroke="#FFFFFF" stroke-width="0.7846" stroke-miterlimit="10" points="133.869,1224.596 439.854,1224.596 
		439.854,884.483 	"/>
	<polygon stroke="#FFFFFF" stroke-width="0.7846" stroke-miterlimit="10" points="424.596,1519.51 689.587,1366.518 519.53,1071.97 
			"/>
	<polygon stroke="#FFFFFF" stroke-width="0.7846" stroke-miterlimit="10" points="823.83,1629.549 976.823,1364.558 
		682.275,1194.502 	"/>
	<polygon stroke="#FFFFFF" stroke-width="0.7846" stroke-miterlimit="10" points="1224.596,1525.229 1224.596,1219.244 
		884.483,1219.244 	"/>
	<polygon stroke="#FFFFFF" stroke-width="0.7846" stroke-miterlimit="10" points="1519.51,1234.502 1366.518,969.511 
		1071.97,1139.568 	"/>
	<polygon stroke="#FFFFFF" stroke-width="0.7846" stroke-miterlimit="10" points="1629.549,835.268 1364.558,682.275 
		1194.502,976.823 	"/>
	<polygon stroke="#FFFFFF" stroke-width="0.7846" stroke-miterlimit="10" points="1525.229,434.502 1219.244,434.502 
		1219.244,774.615 	"/>
	<polygon stroke="#FFFFFF" stroke-width="0.7846" stroke-miterlimit="10" points="1234.502,139.588 969.511,292.58 
		1139.568,587.128 	"/>
</g>
</svg>
