<!DOCTYPE svg PUBLIC "-//W3C//DTD SVG 20010904//EN" "http://www.w3.org/TR/2001/REC-SVG-20010904/DTD/svg10.dtd">
<svg version="1.0" xmlns="http://www.w3.org/2000/svg" width="652px" height="625px" viewBox="0 0 6520 6250" preserveAspectRatio="xMidYMid meet">
<g id="layer1" fill="#000000" stroke="none">
 <path d="M605 5828 c-3 -7 94 -306 215 -663 121 -358 218 -655 216 -661 -2 -5 -169 -127 -370 -269 -201 -142 -366 -264 -366 -270 0 -6 153 -121 340 -255 299 -213 339 -244 323 -255 -10 -6 -114 -67 -230 -135 -117 -68 -213 -129 -213 -136 0 -7 101 -66 225 -131 124 -65 225 -121 225 -126 0 -4 -167 -230 -372 -502 -254 -339 -368 -499 -361 -506 7 -7 265 -7 818 1 444 6 810 8 814 5 3 -4 60 -162 127 -352 66 -191 127 -351 135 -356 11 -7 125 46 417 192 221 111 407 201 413 201 6 0 570 -330 1252 -732 1246 -735 1300 -764 1322 -727 5 8 -152 334 -416 860 -233 466 -421 850 -419 853 3 2 334 -58 735 -135 402 -76 736 -137 743 -134 6 2 12 8 12 12 0 10 -741 696 -1030 953 -113 100 -208 185 -212 189 -4 4 118 125 272 271 154 145 280 269 280 275 0 10 -242 240 -388 371 l-46 41 413 852 c301 619 411 855 403 863 -8 8 -275 -105 -979 -412 -532 -233 -976 -425 -985 -427 -10 -3 -222 108 -507 267 -269 150 -495 270 -500 269 -6 -2 -71 -86 -146 -187 -74 -101 -139 -181 -143 -179 -116 65 -1982 1078 -1994 1082 -11 4 -20 2 -23 -7z"/>
 </g>

</svg>