<?xml version="1.0" encoding="UTF-8" standalone="no"?>
<!-- Created with Inkscape (http://www.inkscape.org/) -->

<svg
   xmlns:dc="http://purl.org/dc/elements/1.1/"
   xmlns:cc="http://creativecommons.org/ns#"
   xmlns:rdf="http://www.w3.org/1999/02/22-rdf-syntax-ns#"
   xmlns:svg="http://www.w3.org/2000/svg"
   xmlns="http://www.w3.org/2000/svg"
   xmlns:sodipodi="http://sodipodi.sourceforge.net/DTD/sodipodi-0.dtd"
   xmlns:inkscape="http://www.inkscape.org/namespaces/inkscape"
   version="1.1"
   id="svg10678"
   xml:space="preserve"
   width="800"
   height="800"
   viewBox="0 0 800 800"
   sodipodi:docname="halftone-burst-freesvg.org.svg"
   inkscape:version="0.92.4 (5da689c313, 2019-01-14)"><metadata
     id="metadata10684"><rdf:RDF><cc:Work
         rdf:about=""><dc:format>image/svg+xml</dc:format><dc:type
           rdf:resource="http://purl.org/dc/dcmitype/StillImage" /><dc:title /></cc:Work></rdf:RDF></metadata><defs
     id="defs10682"><clipPath
       clipPathUnits="userSpaceOnUse"
       id="clipPath10694"><path
         d="M 0,600 H 600 V 0 H 0 Z"
         id="path10692"
         inkscape:connector-curvature="0" /></clipPath></defs><sodipodi:namedview
     pagecolor="#ffffff"
     bordercolor="#666666"
     borderopacity="1"
     objecttolerance="10"
     gridtolerance="10"
     guidetolerance="10"
     inkscape:pageopacity="0"
     inkscape:pageshadow="2"
     inkscape:window-width="1920"
     inkscape:window-height="1018"
     id="namedview10680"
     showgrid="false"
     inkscape:zoom="0.81848039"
     inkscape:cx="262.67592"
     inkscape:cy="379.66102"
     inkscape:window-x="-8"
     inkscape:window-y="-8"
     inkscape:window-maximized="1"
     inkscape:current-layer="g10686" /><g
     id="g10686"
     inkscape:groupmode="layer"
     inkscape:label="halftone-burst-publicdomainvectors [Converted]"
     transform="matrix(1.3333333,0,0,-1.3333333,0,800)"><g
       id="g10688"
       transform="translate(-6,22.5)"><g
         id="g10690"
         clip-path="url(#clipPath10694)"><path
           d="m 350.001,283.248 c 0.828,-0.165 1.636,0.377 1.801,1.204 0.163,0.827 -0.373,1.636 -1.203,1.802 -0.83,0.162 -1.636,-0.373 -1.802,-1.206 -0.165,-0.827 0.375,-1.632 1.204,-1.8 m 23.243,-6.496 c 1.823,-0.363 3.597,0.824 3.961,2.648 0.363,1.825 -0.822,3.599 -2.645,3.96 -1.826,0.364 -3.6,-0.823 -3.964,-2.648 -0.364,-1.822 0.824,-3.599 2.648,-3.96 m 16.662,0.121 c 0.462,2.32 -1.045,4.58 -3.367,5.041 -2.322,0.462 -4.582,-1.045 -5.042,-3.369 -0.464,-2.319 1.047,-4.579 3.369,-5.04 2.322,-0.464 4.579,1.046 5.04,3.368 m 6.582,-6.617 c 2.82,-0.563 5.562,1.267 6.122,4.089 0.562,2.823 -1.271,5.563 -4.091,6.124 -2.821,0.562 -5.563,-1.272 -6.123,-4.093 -0.561,-2.819 1.27,-5.56 4.092,-6.12 m 133.81,-5.695 c -2.537,0.503 -5.05,0.343 -7.367,-0.35 -1.388,0.836 -2.93,1.463 -4.611,1.797 -2.528,0.503 -5.027,0.301 -7.311,-0.453 -1.387,0.894 -2.953,1.556 -4.67,1.898 -2.517,0.5 -5.002,0.25 -7.249,-0.573 -1.38,0.964 -2.975,1.669 -4.733,2.017 -2.517,0.502 -5.011,0.208 -7.221,-0.703 -1.362,1.036 -2.966,1.795 -4.756,2.152 -2.519,0.5 -5.004,0.135 -7.167,-0.871 -1.339,1.131 -2.973,1.951 -4.814,2.317 -2.534,0.503 -5.038,0.068 -7.15,-1.065 -1.298,1.234 -2.941,2.134 -4.827,2.509 -2.56,0.51 -5.08,-0.035 -7.128,-1.322 -1.235,1.373 -2.903,2.381 -4.855,2.768 -2.604,0.518 -5.163,-0.166 -7.12,-1.659 -1.136,1.551 -2.825,2.704 -4.861,3.108 -2.687,0.533 -5.326,-0.355 -7.143,-2.143 -0.961,1.794 -2.686,3.16 -4.836,3.588 -2.893,0.574 -5.719,-0.713 -7.251,-3.029 -0.573,2.204 -2.347,4.002 -4.729,4.474 -3.318,0.661 -6.545,-1.496 -7.203,-4.812 -0.66,-3.316 1.494,-6.542 4.813,-7.202 2.383,-0.475 4.71,0.507 6.081,2.323 0.53,-2.726 2.649,-4.999 5.539,-5.572 2.153,-0.428 4.269,0.174 5.842,1.462 0.994,-2.347 3.093,-4.177 5.781,-4.712 2.034,-0.404 4.036,0.013 5.679,1.011 1.237,-2.128 3.339,-3.742 5.943,-4.259 1.951,-0.387 3.878,-0.095 5.546,0.701 1.398,-1.973 3.518,-3.44 6.077,-3.947 1.885,-0.376 3.75,-0.174 5.422,0.47 1.517,-1.855 3.664,-3.215 6.199,-3.719 1.84,-0.368 3.664,-0.236 5.334,0.297 1.612,-1.757 3.769,-3.045 6.287,-3.546 1.791,-0.356 3.563,-0.268 5.217,0.167 1.694,-1.689 3.883,-2.915 6.404,-3.415 1.758,-0.35 3.498,-0.309 5.143,0.054 1.759,-1.621 3.96,-2.802 6.476,-3.302 1.717,-0.342 3.419,-0.331 5.043,-0.034 1.82,-1.572 4.055,-2.715 6.581,-3.216 1.681,-0.334 3.345,-0.344 4.946,-0.104 1.876,-1.529 4.137,-2.641 6.674,-3.145 8.294,-1.648 16.36,3.739 18.008,12.032 1.652,8.295 -3.737,16.359 -12.033,18.008 M 361.623,280 c 1.325,-0.263 2.616,0.6 2.88,1.927 0.265,1.327 -0.598,2.617 -1.925,2.882 -1.328,0.26 -2.616,-0.602 -2.881,-1.93 -0.263,-1.327 0.598,-2.615 1.926,-2.879 m 23.511,-19.84 c 0.966,2.33 -0.143,5.008 -2.476,5.975 -2.332,0.963 -5.007,-0.145 -5.972,-2.477 -0.967,-2.333 0.141,-5.007 2.475,-5.972 2.331,-0.966 5.006,0.14 5.973,2.474 m -28.87,11.958 c -0.553,-1.333 0.081,-2.86 1.413,-3.413 1.335,-0.553 2.861,0.08 3.415,1.412 0.552,1.333 -0.083,2.862 -1.415,3.413 -1.333,0.552 -2.862,-0.079 -3.413,-1.412 m 16.847,-6.981 c 0.761,1.834 -0.11,3.935 -1.943,4.696 -1.832,0.757 -3.934,-0.112 -4.693,-1.945 -0.76,-1.833 0.111,-3.935 1.944,-4.694 1.833,-0.759 3.935,0.112 4.692,1.943 M 520.55,221.738 c -2.424,1.004 -4.947,1.366 -7.399,1.19 -1.194,1.019 -2.561,1.879 -4.09,2.513 -2.42,1.002 -4.95,1.336 -7.386,1.092 -1.184,1.065 -2.552,1.963 -4.107,2.608 -2.404,0.996 -4.923,1.277 -7.333,0.964 -1.172,1.129 -2.561,2.071 -4.156,2.733 -2.396,0.992 -4.912,1.223 -7.293,0.828 -1.154,1.201 -2.563,2.195 -4.199,2.873 -2.397,0.992 -4.927,1.174 -7.289,0.678 -1.119,1.275 -2.528,2.328 -4.201,3.019 -2.398,0.994 -4.937,1.098 -7.268,0.487 -1.074,1.373 -2.498,2.498 -4.223,3.213 -2.412,1 -4.981,1.019 -7.279,0.259 -1.003,1.485 -2.435,2.703 -4.214,3.441 -2.44,1.01 -5.062,0.922 -7.317,-0.034 -0.899,1.623 -2.324,2.966 -4.172,3.732 -2.501,1.037 -5.209,0.784 -7.399,-0.443 -0.726,1.81 -2.15,3.339 -4.092,4.144 -2.626,1.087 -5.513,0.574 -7.581,-1.086 -0.407,2.076 -1.812,3.916 -3.911,4.785 -3.227,1.337 -6.909,-0.113 -8.39,-3.232 0.95,2.752 -0.375,5.803 -3.101,6.932 -2.834,1.174 -6.081,-0.171 -7.254,-3.006 -1.171,-2.832 0.172,-6.078 3.005,-7.252 2.727,-1.129 5.821,0.09 7.093,2.709 -1.156,-3.256 0.42,-6.88 3.648,-8.217 2.101,-0.871 4.394,-0.563 6.148,0.617 0.289,-2.639 1.968,-5.043 4.592,-6.129 1.945,-0.804 4.031,-0.728 5.825,0.037 0.681,-2.418 2.418,-4.511 4.917,-5.548 1.848,-0.764 3.809,-0.823 5.591,-0.309 0.919,-2.272 2.711,-4.188 5.152,-5.197 1.779,-0.739 3.653,-0.887 5.411,-0.547 1.087,-2.164 2.917,-3.965 5.329,-4.965 1.725,-0.715 3.53,-0.924 5.259,-0.713 1.216,-2.08 3.084,-3.803 5.484,-4.795 1.671,-0.693 3.414,-0.947 5.105,-0.838 1.318,-2.019 3.237,-3.679 5.634,-4.674 1.637,-0.677 3.335,-0.974 4.999,-0.939 1.407,-1.961 3.348,-3.576 5.742,-4.568 1.596,-0.662 3.247,-0.979 4.875,-1.008 1.483,-1.926 3.463,-3.504 5.867,-4.502 1.555,-0.645 3.157,-0.979 4.747,-1.061 1.551,-1.894 3.575,-3.447 5.995,-4.449 1.528,-0.633 3.101,-0.994 4.666,-1.117 1.608,-1.859 3.648,-3.389 6.073,-4.393 8.331,-3.449 17.885,0.506 21.334,8.838 3.455,8.33 -0.506,17.883 -8.837,21.33 m -171.481,53.359 c 0.346,0.833 -0.049,1.788 -0.883,2.135 -0.832,0.344 -1.788,-0.054 -2.131,-0.884 -0.347,-0.835 0.048,-1.789 0.88,-2.133 0.833,-0.347 1.791,0.051 2.134,0.882 m -6.92,-9.136 c 0.797,-0.531 1.874,-0.32 2.407,0.478 0.532,0.796 0.318,1.872 -0.48,2.403 -0.795,0.535 -1.872,0.32 -2.405,-0.475 -0.53,-0.799 -0.316,-1.875 0.478,-2.406 m 18.854,-15.102 c 1.752,-1.17 4.119,-0.699 5.29,1.055 1.172,1.75 0.7,4.12 -1.053,5.289 -1.75,1.174 -4.118,0.699 -5.291,-1.051 -1.168,-1.754 -0.697,-4.121 1.054,-5.293 m -9.427,7.551 c 1.276,-0.851 2.996,-0.51 3.85,0.765 0.85,1.276 0.507,2.995 -0.765,3.848 -1.277,0.852 -2.999,0.508 -3.85,-0.764 -0.851,-1.275 -0.51,-2.999 0.765,-3.849 m 18.852,-15.101 c 2.23,-1.489 5.246,-0.889 6.736,1.339 1.489,2.231 0.888,5.247 -1.341,6.737 -2.229,1.49 -5.245,0.89 -6.734,-1.34 -1.489,-2.229 -0.89,-5.246 1.339,-6.736 m 132.385,-61.758 c -2.224,1.484 -4.667,2.369 -7.147,2.726 -0.973,1.161 -2.114,2.209 -3.436,3.094 -2.207,1.473 -4.643,2.322 -7.112,2.617 -0.961,1.209 -2.119,2.295 -3.473,3.201 -2.201,1.471 -4.644,2.291 -7.108,2.512 -0.941,1.258 -2.094,2.387 -3.473,3.309 -2.185,1.459 -4.627,2.217 -7.075,2.357 -0.917,1.326 -2.085,2.51 -3.506,3.461 -2.178,1.455 -4.633,2.166 -7.073,2.209 -0.881,1.395 -2.053,2.637 -3.511,3.611 -2.176,1.454 -4.651,2.102 -7.084,2.032 -0.828,1.472 -1.997,2.783 -3.498,3.787 -2.182,1.459 -4.694,2.035 -7.12,1.824 -0.753,1.566 -1.913,2.961 -3.463,3.996 -2.197,1.469 -4.762,1.947 -7.18,1.557 -0.645,1.681 -1.79,3.187 -3.401,4.263 -2.236,1.495 -4.895,1.848 -7.307,1.211 -0.478,1.821 -1.589,3.481 -3.276,4.608 -2.314,1.547 -5.143,1.719 -7.532,0.715 -0.193,2 -1.249,3.9 -3.051,5.105 -2.542,1.699 -5.798,1.49 -8.091,-0.283 0.474,2.283 -0.431,4.726 -2.491,6.101 -2.707,1.811 -6.368,1.082 -8.179,-1.625 -1.808,-2.707 -1.078,-6.369 1.628,-8.179 2.059,-1.377 4.665,-1.278 6.591,0.035 -0.76,-2.797 0.292,-5.883 2.835,-7.584 1.802,-1.201 3.962,-1.449 5.885,-0.863 -0.016,-2.59 1.228,-5.139 3.542,-6.686 1.687,-1.127 3.646,-1.517 5.51,-1.264 0.337,-2.47 1.68,-4.793 3.917,-6.287 1.611,-1.076 3.441,-1.558 5.24,-1.509 0.566,-2.385 1.988,-4.573 4.184,-6.039 1.549,-1.036 3.284,-1.575 5.018,-1.67 0.734,-2.323 2.228,-4.422 4.409,-5.879 1.502,-1.004 3.161,-1.582 4.839,-1.785 0.864,-2.274 2.41,-4.313 4.588,-5.77 1.459,-0.975 3.054,-1.58 4.68,-1.859 0.973,-2.237 2.566,-4.233 4.745,-5.688 1.422,-0.949 2.963,-1.576 4.539,-1.916 1.065,-2.207 2.703,-4.174 4.89,-5.633 1.379,-0.922 2.862,-1.552 4.383,-1.943 1.146,-2.191 2.839,-4.137 5.04,-5.607 1.355,-0.905 2.802,-1.559 4.288,-1.983 1.216,-2.168 2.933,-4.094 5.139,-5.568 1.323,-0.885 2.731,-1.537 4.177,-1.992 1.279,-2.153 3.03,-4.071 5.251,-5.555 7.959,-5.322 18.732,-3.18 24.052,4.783 5.322,7.961 3.176,18.732 -4.783,24.053 m -145.814,64.396 c -1.578,1.577 -4.135,1.577 -5.709,0 -1.577,-1.578 -1.577,-4.133 0,-5.711 1.574,-1.576 4.131,-1.576 5.709,0 1.576,1.578 1.576,4.133 0,5.711 m 9.287,-14.996 c 2.008,2.006 2.008,5.262 0,7.268 -2.008,2.006 -5.262,2.006 -7.268,0 -2.006,-2.006 -2.006,-5.262 0,-7.268 2.006,-2.01 5.26,-2.01 7.268,0 m 104.839,-81.263 c -0.73,1.25 -1.613,2.437 -2.686,3.509 -1.913,1.912 -4.167,3.262 -6.562,4.088 -0.718,1.305 -1.617,2.535 -2.724,3.641 -1.897,1.898 -4.153,3.213 -6.547,3.97 -0.696,1.352 -1.605,2.625 -2.739,3.76 -1.889,1.889 -4.157,3.162 -6.558,3.836 -0.666,1.406 -1.566,2.731 -2.728,3.893 -1.876,1.877 -4.154,3.088 -6.556,3.674 -0.626,1.472 -1.531,2.855 -2.732,4.056 -1.871,1.871 -4.178,3.043 -6.593,3.52 -0.57,1.533 -1.461,2.976 -2.693,4.209 -1.868,1.867 -4.207,2.961 -6.634,3.306 -0.491,1.62 -1.374,3.145 -2.654,4.422 -1.876,1.877 -4.281,2.899 -6.734,3.08 -0.383,1.703 -1.227,3.325 -2.552,4.651 -1.899,1.898 -4.397,2.824 -6.885,2.789 -0.221,1.806 -1.017,3.554 -2.403,4.939 -1.949,1.948 -4.611,2.735 -7.144,2.381 0.041,1.932 -0.669,3.875 -2.143,5.35 -2.081,2.082 -5.1,2.644 -7.698,1.703 0.558,2.082 0.046,4.39 -1.589,6.025 -2.436,2.434 -6.385,2.434 -8.824,0 -2.437,-2.437 -2.437,-6.388 0,-8.828 1.636,-1.633 3.944,-2.144 6.026,-1.586 -0.941,-2.597 -0.379,-5.617 1.703,-7.699 1.473,-1.473 3.417,-2.184 5.347,-2.143 -0.354,-2.533 0.433,-5.195 2.382,-7.146 1.386,-1.385 3.135,-2.18 4.941,-2.4 -0.035,-2.489 0.891,-4.987 2.789,-6.885 1.327,-1.326 2.946,-2.17 4.65,-2.553 0.182,-2.453 1.203,-4.857 3.079,-6.732 1.279,-1.28 2.804,-2.163 4.421,-2.655 0.348,-2.425 1.44,-4.765 3.307,-6.633 1.233,-1.234 2.677,-2.125 4.212,-2.695 0.476,-2.414 1.648,-4.721 3.518,-6.59 1.201,-1.203 2.584,-2.107 4.057,-2.734 0.584,-2.4 1.799,-4.68 3.673,-6.555 1.163,-1.162 2.485,-2.062 3.89,-2.728 0.675,-2.401 1.947,-4.668 3.837,-6.557 1.136,-1.135 2.408,-2.045 3.763,-2.742 0.755,-2.393 2.071,-4.647 3.968,-6.543 1.104,-1.106 2.334,-2.006 3.637,-2.723 0.827,-2.398 2.178,-4.652 4.091,-6.564 1.075,-1.076 2.263,-1.959 3.515,-2.69 0.89,-2.404 2.284,-4.666 4.215,-6.597 7.168,-7.168 18.792,-7.168 25.96,0 7.167,7.168 7.167,18.791 0,25.959 -1.935,1.933 -4.196,3.326 -6.603,4.217 m -123.413,99.836 c 1.148,1.146 1.148,3.007 0,4.152 -1.147,1.148 -3.006,1.148 -4.154,0 -1.145,-1.145 -1.145,-3.006 0,-4.152 1.148,-1.147 3.007,-1.147 4.154,0 m -11.882,11.884 c -0.717,-0.719 -0.717,-1.881 0,-2.597 0.717,-0.717 1.881,-0.717 2.595,0 0.717,0.716 0.717,1.878 0,2.597 -0.714,0.715 -1.878,0.715 -2.595,0 m -7.071,-5.677 c -0.888,-0.591 -1.128,-1.793 -0.536,-2.683 0.595,-0.892 1.798,-1.128 2.687,-0.534 0.89,0.593 1.129,1.797 0.536,2.687 -0.594,0.887 -1.799,1.128 -2.687,0.53 m 16.811,-25.159 c 1.957,1.307 2.485,3.953 1.179,5.91 -1.309,1.957 -3.955,2.481 -5.912,1.176 -1.957,-1.308 -2.483,-3.955 -1.176,-5.91 1.306,-1.957 3.954,-2.482 5.909,-1.176 m 7.331,-10.972 c 2.492,1.662 3.161,5.033 1.498,7.525 -1.665,2.49 -5.033,3.16 -7.523,1.494 -2.489,-1.662 -3.159,-5.031 -1.497,-7.525 1.664,-2.487 5.033,-3.156 7.522,-1.494 m -14.66,21.941 c 1.422,0.951 1.805,2.875 0.856,4.301 -0.951,1.422 -2.876,1.803 -4.298,0.855 -1.425,-0.953 -1.809,-2.877 -0.857,-4.301 0.953,-1.421 2.877,-1.804 4.299,-0.855 M 440.47,120.41 c -0.485,1.299 -1.108,2.567 -1.911,3.768 -1.535,2.299 -3.511,4.115 -5.73,5.455 -0.467,1.347 -1.092,2.662 -1.921,3.904 -1.518,2.272 -3.496,4.045 -5.72,5.313 -0.442,1.4 -1.075,2.765 -1.932,4.046 -1.506,2.254 -3.491,3.997 -5.728,5.186 -0.41,1.447 -1.042,2.856 -1.922,4.174 -1.497,2.238 -3.506,3.922 -5.762,5.025 -0.367,1.504 -0.981,2.971 -1.889,4.33 -1.484,2.223 -3.517,3.852 -5.792,4.858 -0.307,1.564 -0.919,3.094 -1.859,4.502 -1.483,2.218 -3.561,3.797 -5.878,4.681 -0.228,1.623 -0.802,3.223 -1.774,4.678 -1.482,2.221 -3.621,3.736 -5.985,4.475 -0.118,1.691 -0.657,3.375 -1.666,4.884 -1.493,2.235 -3.727,3.67 -6.157,4.219 0.04,1.766 -0.438,3.559 -1.493,5.139 -1.522,2.281 -3.913,3.627 -6.441,3.904 0.278,1.84 -0.096,3.785 -1.21,5.455 -1.595,2.385 -4.283,3.594 -6.955,3.42 0.703,1.91 0.523,4.119 -0.695,5.94 -2.023,3.023 -6.111,3.836 -9.134,1.816 -3.025,-2.019 -3.84,-6.109 -1.817,-9.135 1.214,-1.822 3.185,-2.834 5.219,-2.914 -1.185,-2.402 -1.096,-5.351 0.497,-7.736 1.117,-1.67 2.771,-2.758 4.578,-3.205 -0.711,-2.442 -0.382,-5.166 1.141,-7.446 1.056,-1.578 2.531,-2.707 4.178,-3.345 -0.424,-2.455 0.049,-5.071 1.54,-7.305 1.009,-1.51 2.358,-2.65 3.875,-3.406 -0.222,-2.467 0.359,-5.022 1.843,-7.242 0.972,-1.455 2.231,-2.598 3.645,-3.428 -0.069,-2.481 0.591,-5.004 2.075,-7.223 0.941,-1.406 2.121,-2.558 3.45,-3.439 0.056,-2.487 0.786,-4.988 2.27,-7.211 0.908,-1.359 2.029,-2.488 3.277,-3.401 0.155,-2.507 0.942,-5.011 2.439,-7.25 0.881,-1.318 1.94,-2.439 3.118,-3.371 0.246,-2.523 1.095,-5.021 2.601,-7.277 0.856,-1.279 1.875,-2.389 2.997,-3.332 0.321,-2.539 1.203,-5.047 2.721,-7.32 0.83,-1.241 1.806,-2.321 2.872,-3.268 0.388,-2.562 1.311,-5.084 2.845,-7.381 0.803,-1.201 1.737,-2.261 2.75,-3.207 0.449,-2.586 1.419,-5.121 2.97,-7.443 5.941,-8.893 17.973,-11.285 26.865,-5.344 8.893,5.943 11.289,17.971 5.342,26.867 -1.551,2.321 -3.521,4.188 -5.737,5.59 M 332.438,223.301 c 2.29,0.947 3.375,3.57 2.427,5.859 -0.946,2.287 -3.57,3.375 -5.857,2.426 -2.288,-0.947 -3.376,-3.574 -2.428,-5.859 0.947,-2.288 3.568,-3.373 5.858,-2.426 m -5.072,12.246 c 1.665,0.689 2.455,2.596 1.765,4.262 -0.689,1.662 -2.596,2.451 -4.259,1.763 -1.665,-0.687 -2.457,-2.595 -1.767,-4.261 0.691,-1.663 2.597,-2.454 4.261,-1.764 m -3.968,14.91 c -0.43,1.04 -1.624,1.532 -2.663,1.101 -1.04,-0.429 -1.535,-1.622 -1.103,-2.662 0.43,-1.039 1.623,-1.535 2.663,-1.104 1.04,0.433 1.533,1.625 1.103,2.665 M 404.816,97.523 c -0.241,1.295 -0.612,2.588 -1.137,3.858 -1.08,2.605 -2.68,4.834 -4.614,6.642 -0.218,1.346 -0.577,2.69 -1.122,4.006 -1.067,2.576 -2.678,4.756 -4.629,6.496 -0.188,1.395 -0.54,2.791 -1.104,4.155 -1.056,2.547 -2.677,4.685 -4.648,6.349 -0.154,1.444 -0.503,2.889 -1.088,4.297 -1.045,2.528 -2.689,4.625 -4.691,6.209 -0.107,1.488 -0.44,2.985 -1.044,4.44 -1.036,2.505 -2.716,4.545 -4.757,6.037 -0.044,1.543 -0.35,3.101 -0.975,4.611 -1.033,2.49 -2.749,4.492 -4.842,5.879 0.035,1.588 -0.245,3.207 -0.892,4.769 -1.029,2.483 -2.815,4.42 -4.973,5.676 0.144,1.643 -0.088,3.342 -0.763,4.969 -1.033,2.496 -2.914,4.377 -5.165,5.469 0.294,1.691 0.137,3.48 -0.569,5.181 -1.046,2.528 -3.072,4.342 -5.452,5.209 0.513,1.731 0.462,3.641 -0.283,5.438 -1.083,2.617 -3.371,4.367 -5.954,4.879 0.877,1.738 1.025,3.832 0.221,5.771 -1.215,2.936 -4.214,4.584 -7.22,4.227 1.756,1.568 2.439,4.121 1.487,6.42 -1.208,2.914 -4.548,4.297 -7.457,3.092 -2.914,-1.207 -4.298,-4.547 -3.091,-7.457 0.954,-2.303 3.24,-3.625 5.593,-3.493 -2.378,-1.875 -3.334,-5.158 -2.118,-8.093 0.803,-1.938 2.388,-3.315 4.237,-3.924 -1.465,-2.188 -1.846,-5.045 -0.762,-7.658 0.744,-1.799 2.059,-3.186 3.646,-4.047 -1.069,-2.297 -1.218,-5.014 -0.172,-7.541 0.705,-1.701 1.858,-3.078 3.261,-4.065 -0.818,-2.365 -0.818,-5.023 0.214,-7.519 0.675,-1.627 1.713,-2.992 2.977,-4.051 -0.638,-2.416 -0.531,-5.047 0.498,-7.533 0.646,-1.563 1.594,-2.905 2.74,-4.004 -0.499,-2.457 -0.298,-5.086 0.734,-7.58 0.626,-1.508 1.513,-2.826 2.571,-3.948 -0.389,-2.5 -0.136,-5.128 0.903,-7.634 0.603,-1.455 1.426,-2.75 2.402,-3.877 -0.295,-2.537 0.027,-5.182 1.074,-7.707 0.585,-1.408 1.358,-2.68 2.269,-3.809 -0.215,-2.572 0.15,-5.228 1.205,-7.775 0.565,-1.364 1.302,-2.596 2.153,-3.717 -0.148,-2.609 0.253,-5.291 1.322,-7.867 0.545,-1.317 1.241,-2.52 2.038,-3.625 -0.089,-2.649 0.355,-5.356 1.434,-7.963 0.527,-1.27 1.178,-2.447 1.928,-3.535 -0.034,-2.682 0.459,-5.412 1.549,-8.045 4.308,-10.403 16.231,-15.342 26.632,-11.033 10.398,4.308 15.338,16.23 11.03,26.63 -1.092,2.635 -2.675,4.916 -4.596,6.791 m -86.718,121.196 c 2.549,0.506 4.206,2.984 3.699,5.537 -0.507,2.549 -2.984,4.205 -5.535,3.695 -2.549,-0.506 -4.205,-2.984 -3.698,-5.533 0.506,-2.549 2.985,-4.207 5.534,-3.699 m -2.596,13.058 c 1.852,0.371 3.059,2.172 2.689,4.028 -0.369,1.853 -2.171,3.056 -4.025,2.689 -1.854,-0.367 -3.06,-2.174 -2.69,-4.025 0.368,-1.856 2.17,-3.059 4.026,-2.692 M 365.453,81.863 c -0.009,1.25 -0.124,2.514 -0.378,3.785 -0.561,2.823 -1.698,5.383 -3.25,7.598 0.018,1.301 -0.092,2.623 -0.356,3.951 -0.556,2.791 -1.718,5.303 -3.299,7.453 0.052,1.348 -0.035,2.717 -0.31,4.098 -0.547,2.758 -1.729,5.225 -3.342,7.307 0.092,1.39 0.023,2.812 -0.261,4.246 -0.543,2.726 -1.74,5.156 -3.394,7.16 0.141,1.432 0.08,2.906 -0.215,4.393 -0.537,2.699 -1.781,5.074 -3.484,6.994 0.205,1.476 0.186,3.009 -0.121,4.552 -0.533,2.68 -1.821,5.01 -3.588,6.836 0.285,1.516 0.3,3.11 -0.019,4.715 -0.53,2.666 -1.886,4.951 -3.74,6.668 0.392,1.551 0.465,3.209 0.132,4.883 -0.529,2.664 -1.972,4.914 -3.936,6.492 0.532,1.578 0.678,3.309 0.329,5.059 -0.533,2.687 -2.117,4.898 -4.238,6.295 0.736,1.588 1.001,3.408 0.634,5.254 -0.55,2.755 -2.368,4.927 -4.723,6.05 1.053,1.555 1.51,3.512 1.116,5.5 -0.592,2.977 -2.924,5.162 -5.727,5.717 1.678,1.356 2.571,3.57 2.12,5.832 -0.645,3.246 -3.799,5.354 -7.045,4.709 -3.246,-0.642 -5.352,-3.799 -4.706,-7.043 0.45,-2.265 2.12,-3.969 4.191,-4.578 -2.379,-1.586 -3.695,-4.498 -3.102,-7.478 0.395,-1.987 1.566,-3.62 3.135,-4.653 -1.746,-1.937 -2.597,-4.64 -2.05,-7.396 0.369,-1.846 1.311,-3.428 2.598,-4.614 -1.425,-2.101 -2.043,-4.75 -1.508,-7.437 0.348,-1.748 1.146,-3.291 2.241,-4.545 -1.21,-2.209 -1.683,-4.84 -1.154,-7.506 0.334,-1.674 1.036,-3.178 1.993,-4.461 -1.055,-2.295 -1.433,-4.926 -0.903,-7.592 0.319,-1.605 0.942,-3.07 1.787,-4.361 -0.934,-2.363 -1.233,-5.01 -0.699,-7.687 0.306,-1.545 0.876,-2.969 1.631,-4.256 -0.84,-2.426 -1.081,-5.096 -0.542,-7.797 0.293,-1.485 0.804,-2.869 1.482,-4.139 -0.76,-2.484 -0.936,-5.185 -0.394,-7.912 0.285,-1.432 0.765,-2.771 1.381,-4.019 -0.693,-2.543 -0.842,-5.274 -0.292,-8.032 0.274,-1.381 0.719,-2.679 1.282,-3.904 -0.636,-2.594 -0.75,-5.357 -0.193,-8.146 0.264,-1.331 0.666,-2.594 1.182,-3.79 -0.586,-2.64 -0.655,-5.439 -0.094,-8.261 0.252,-1.27 0.629,-2.483 1.097,-3.641 -0.546,-2.697 -0.581,-5.543 -0.013,-8.412 2.307,-11.59 13.572,-19.115 25.16,-16.812 11.59,2.306 19.117,13.572 16.813,25.16 -0.571,2.867 -1.693,5.482 -3.228,7.765 M 310.388,246.52 c 0.229,-1.161 1.358,-1.913 2.515,-1.684 1.159,0.232 1.911,1.359 1.681,2.519 -0.23,1.157 -1.355,1.913 -2.515,1.68 -1.16,-0.23 -1.912,-1.357 -1.681,-2.515 m -7.291,1.011 c -0.841,0 -1.521,-0.679 -1.521,-1.517 0,-0.844 0.68,-1.52 1.521,-1.52 0.838,0 1.517,0.676 1.517,1.52 0,0.838 -0.679,1.517 -1.517,1.517 m -2.431,-13.551 c 0,-1.343 1.088,-2.429 2.431,-2.429 1.342,0 2.43,1.086 2.43,2.429 0,1.342 -1.088,2.43 -2.43,2.43 -1.343,0 -2.431,-1.088 -2.431,-2.43 m 2.431,-28.318 c 2.348,0 4.253,1.906 4.253,4.254 0,2.35 -1.905,4.252 -4.253,4.252 -2.349,0 -4.255,-1.902 -4.255,-4.252 0,-2.348 1.906,-4.254 4.255,-4.254 m 0,12.943 c 1.845,0 3.34,1.497 3.34,3.342 0,1.846 -1.495,3.344 -3.34,3.344 -1.848,0 -3.343,-1.498 -3.343,-3.344 0,-1.845 1.495,-3.342 3.343,-3.342 m 0,-25.884 c 2.85,0 5.166,2.312 5.166,5.162 0,2.855 -2.316,5.166 -5.166,5.166 -2.855,0 -5.168,-2.311 -5.168,-5.166 0,-2.85 2.313,-5.162 5.168,-5.162 M 317.376,77.564 c 0,2.571 -0.688,4.977 -1.877,7.061 0.616,1.539 0.965,3.213 0.965,4.973 0,2.562 -0.735,4.949 -1.985,6.984 0.683,1.543 1.073,3.246 1.073,5.045 0,2.566 -0.778,4.951 -2.109,6.934 0.76,1.541 1.2,3.265 1.2,5.099 0,2.567 -0.85,4.93 -2.267,6.848 0.858,1.533 1.353,3.301 1.353,5.183 0,2.584 -0.922,4.95 -2.452,6.791 0.971,1.514 1.54,3.311 1.54,5.243 0,2.609 -1.033,4.972 -2.705,6.718 1.121,1.479 1.794,3.317 1.794,5.313 0,2.658 -1.181,5.033 -3.042,6.648 1.318,1.412 2.13,3.301 2.13,5.385 0,2.746 -1.404,5.164 -3.532,6.58 1.598,1.279 2.623,3.244 2.623,5.449 0,2.969 -1.853,5.498 -4.462,6.512 2.093,0.959 3.55,3.07 3.55,5.522 0,3.355 -2.721,6.078 -6.076,6.078 -3.358,0 -6.077,-2.723 -6.077,-6.078 0,-2.452 1.456,-4.563 3.55,-5.522 -2.609,-1.014 -4.463,-3.543 -4.463,-6.512 0,-2.205 1.026,-4.17 2.623,-5.449 -2.128,-1.416 -3.533,-3.834 -3.533,-6.58 0,-2.084 0.813,-3.973 2.131,-5.385 -1.862,-1.615 -3.044,-3.99 -3.044,-6.648 0,-1.998 0.674,-3.836 1.795,-5.313 -1.671,-1.746 -2.704,-4.111 -2.704,-6.718 0,-1.932 0.569,-3.729 1.541,-5.243 -1.532,-1.841 -2.454,-4.207 -2.454,-6.791 0,-1.882 0.495,-3.65 1.355,-5.185 -1.417,-1.916 -2.266,-4.279 -2.266,-6.846 0,-1.832 0.438,-3.558 1.198,-5.097 -1.332,-1.983 -2.11,-4.37 -2.11,-6.936 0,-1.799 0.388,-3.504 1.074,-5.047 -1.25,-2.035 -1.984,-4.42 -1.984,-6.982 0,-1.76 0.348,-3.434 0.965,-4.973 -1.189,-2.084 -1.878,-4.49 -1.878,-7.061 0,-1.718 0.32,-3.361 0.876,-4.888 -1.137,-2.129 -1.786,-4.561 -1.786,-7.145 0,-8.388 6.801,-15.189 15.191,-15.189 8.389,0 15.191,6.801 15.191,15.189 0,2.586 -0.65,5.016 -1.789,7.147 0.559,1.527 0.877,3.168 0.877,4.886 M 291.117,210.65 c 0.486,2.455 -1.108,4.844 -3.568,5.334 -2.457,0.489 -4.846,-1.107 -5.335,-3.566 -0.489,-2.455 1.108,-4.846 3.566,-5.334 2.456,-0.488 4.847,1.109 5.337,3.566 m 1.392,11.989 c 0.385,1.933 -0.871,3.808 -2.802,4.193 -1.931,0.383 -3.808,-0.871 -4.192,-2.803 -0.383,-1.927 0.871,-3.806 2.802,-4.191 1.932,-0.383 3.807,0.871 4.192,2.801 m 1.393,11.988 c 0.281,1.406 -0.631,2.771 -2.038,3.051 -1.405,0.279 -2.767,-0.631 -3.048,-2.035 -0.278,-1.405 0.634,-2.77 2.038,-3.049 1.404,-0.28 2.769,0.631 3.048,2.033 M 283.243,194.33 c 2.985,-0.594 5.885,1.344 6.479,4.328 0.592,2.987 -1.345,5.885 -4.331,6.477 -2.982,0.595 -5.884,-1.342 -6.478,-4.326 -0.593,-2.985 1.344,-5.887 4.33,-6.479 m 1.094,-12.428 c 1.984,0.782 3.544,2.52 3.991,4.766 0.697,3.51 -1.582,6.926 -5.094,7.623 -3.509,0.695 -6.924,-1.584 -7.621,-5.094 -0.446,-2.244 0.329,-4.447 1.863,-5.929 -2.553,-0.768 -4.608,-2.883 -5.163,-5.68 -0.412,-2.076 0.083,-4.117 1.206,-5.723 -2.25,-1.125 -3.979,-3.232 -4.508,-5.892 -0.392,-1.969 -0.06,-3.912 0.808,-5.561 -2.055,-1.332 -3.593,-3.455 -4.108,-6.047 -0.378,-1.896 -0.154,-3.775 0.537,-5.435 -1.915,-1.479 -3.33,-3.621 -3.839,-6.178 -0.366,-1.836 -0.212,-3.654 0.344,-5.313 -1.81,-1.587 -3.139,-3.753 -3.645,-6.296 -0.355,-1.786 -0.258,-3.551 0.192,-5.194 -1.729,-1.679 -2.987,-3.879 -3.492,-6.42 -0.347,-1.742 -0.3,-3.47 0.067,-5.099 -1.655,-1.754 -2.863,-3.971 -3.369,-6.51 -0.339,-1.703 -0.325,-3.391 -0.028,-5 -1.6,-1.82 -2.766,-4.065 -3.272,-6.613 -0.33,-1.657 -0.342,-3.299 -0.106,-4.879 -1.558,-1.883 -2.686,-4.168 -3.196,-6.733 -0.324,-1.629 -0.365,-3.248 -0.175,-4.812 -1.51,-1.932 -2.614,-4.227 -3.125,-6.797 -1.747,-8.777 3.955,-17.311 12.731,-19.055 8.778,-1.744 17.31,3.953 19.056,12.731 0.511,2.57 0.368,5.113 -0.288,7.478 0.774,1.371 1.355,2.883 1.68,4.512 0.51,2.566 0.342,5.107 -0.376,7.443 0.822,1.369 1.441,2.893 1.771,4.549 0.507,2.549 0.288,5.069 -0.494,7.363 0.89,1.372 1.548,2.926 1.887,4.629 0.505,2.539 0.237,5.049 -0.622,7.303 0.963,1.365 1.669,2.941 2.015,4.686 0.507,2.541 0.186,5.054 -0.768,7.267 1.043,1.346 1.808,2.942 2.163,4.725 0.505,2.543 0.107,5.051 -0.957,7.211 1.148,1.318 1.985,2.939 2.351,4.775 0.509,2.561 0.021,5.082 -1.182,7.178 1.273,1.269 2.198,2.918 2.575,4.814 0.516,2.592 -0.093,5.145 -1.481,7.16 1.433,1.192 2.483,2.864 2.875,4.833 0.529,2.658 -0.262,5.267 -1.911,7.166 1.652,1.054 2.892,2.751 3.306,4.824 0.555,2.797 -0.534,5.535 -2.598,7.224 m 10.958,64.717 c 0.176,0.88 -0.396,1.731 -1.271,1.907 -0.878,0.173 -1.731,-0.395 -1.908,-1.274 -0.174,-0.875 0.398,-1.731 1.276,-1.904 0.877,-0.178 1.729,0.392 1.903,1.271 M 242.47,110.879 c 1.004,2.424 1.267,4.963 0.921,7.385 1.131,1.158 2.071,2.539 2.729,4.127 1.001,2.418 1.214,4.961 0.774,7.357 1.205,1.133 2.2,2.527 2.874,4.154 1.002,2.416 1.148,4.967 0.596,7.332 1.297,1.1 2.362,2.506 3.056,4.182 1.004,2.422 1.074,4.996 0.384,7.328 1.399,1.041 2.55,2.453 3.265,4.18 1.012,2.443 0.974,5.053 0.108,7.344 1.533,0.955 2.798,2.373 3.542,4.168 1.03,2.486 0.849,5.168 -0.259,7.404 1.705,0.81 3.131,2.226 3.91,4.107 1.068,2.578 0.668,5.395 -0.808,7.533 1.943,0.563 3.624,1.967 4.458,3.979 1.18,2.85 0.306,6.037 -1.942,7.916 2.362,-0.07 4.633,1.285 5.592,3.596 1.237,2.984 -0.183,6.41 -3.169,7.65 -2.986,1.236 -6.412,-0.182 -7.65,-3.17 -0.956,-2.312 -0.31,-4.875 1.412,-6.496 -2.917,0.26 -5.791,-1.375 -6.971,-4.226 -0.833,-2.012 -0.638,-4.194 0.339,-5.963 -2.556,-0.469 -4.83,-2.178 -5.898,-4.756 -0.779,-1.883 -0.771,-3.889 -0.14,-5.668 -2.364,-0.799 -4.387,-2.567 -5.418,-5.053 -0.744,-1.797 -0.852,-3.693 -0.442,-5.453 -2.232,-1.008 -4.105,-2.826 -5.117,-5.27 -0.714,-1.726 -0.899,-3.537 -0.645,-5.261 -2.138,-1.164 -3.909,-3.035 -4.913,-5.457 -0.695,-1.676 -0.935,-3.424 -0.796,-5.114 -2.063,-1.283 -3.764,-3.191 -4.764,-5.607 -0.674,-1.627 -0.955,-3.316 -0.904,-4.971 -2.005,-1.383 -3.654,-3.332 -4.655,-5.748 -0.657,-1.59 -0.969,-3.23 -0.989,-4.849 -1.956,-1.469 -3.566,-3.452 -4.57,-5.875 -0.638,-1.539 -0.966,-3.129 -1.045,-4.704 -1.925,-1.542 -3.502,-3.576 -4.513,-6.017 -0.626,-1.51 -0.981,-3.063 -1.103,-4.609 -1.888,-1.606 -3.442,-3.663 -4.456,-6.11 -0.613,-1.476 -0.98,-2.994 -1.139,-4.506 -1.862,-1.67 -3.4,-3.752 -4.421,-6.215 -3.637,-8.789 0.534,-18.861 9.32,-22.496 8.785,-3.638 18.858,0.53 22.497,9.317 1.02,2.465 1.406,5.027 1.269,7.521 0.957,1.184 1.769,2.514 2.38,3.992 1.014,2.448 1.368,4.998 1.17,7.471 1.007,1.178 1.855,2.527 2.48,4.039 1.012,2.442 1.334,4.994 1.063,7.446 1.059,1.169 1.949,2.525 2.588,4.066 m 41.55,137.207 c 0.878,-0.363 1.886,0.053 2.25,0.932 0.363,0.877 -0.054,1.884 -0.933,2.25 -0.878,0.363 -1.886,-0.054 -2.249,-0.936 -0.365,-0.877 0.053,-1.885 0.932,-2.246 m -5.002,-12.072 c 1.408,-0.582 3.019,0.086 3.601,1.49 0.584,1.408 -0.086,3.017 -1.49,3.6 -1.406,0.584 -3.018,-0.084 -3.602,-1.491 -0.58,-1.406 0.086,-3.017 1.491,-3.599 m -0.049,-10.022 c 0.801,1.932 -0.118,4.151 -2.051,4.949 -1.932,0.803 -4.147,-0.117 -4.948,-2.048 -0.801,-1.934 0.116,-4.149 2.049,-4.952 1.934,-0.798 4.149,0.12 4.95,2.051 m -9.949,-14.121 c 2.46,-1.017 5.279,0.152 6.298,2.609 1.021,2.463 -0.148,5.284 -2.608,6.303 -2.46,1.018 -5.281,-0.152 -6.298,-2.609 -1.021,-2.463 0.147,-5.283 2.608,-6.303 m -66.222,-96.717 c 1.488,2.227 2.335,4.692 2.603,7.184 1.2,0.945 2.277,2.088 3.172,3.428 1.481,2.216 2.282,4.685 2.469,7.17 1.258,0.925 2.388,2.068 3.307,3.441 1.469,2.201 2.21,4.67 2.308,7.133 1.332,0.898 2.519,2.06 3.467,3.48 1.468,2.198 2.164,4.686 2.15,7.147 1.403,0.853 2.652,2.009 3.625,3.467 1.464,2.191 2.076,4.697 1.934,7.142 1.5,0.793 2.832,1.959 3.841,3.469 1.473,2.205 1.999,4.76 1.689,7.199 1.606,0.699 3.04,1.848 4.086,3.412 1.49,2.231 1.903,4.863 1.37,7.293 1.74,0.561 3.311,1.684 4.405,3.32 1.532,2.293 1.775,5.063 0.915,7.477 1.913,0.32 3.697,1.391 4.861,3.133 1.641,2.457 1.587,5.547 0.122,7.906 2.166,-0.172 4.358,0.772 5.65,2.709 1.902,2.846 1.137,6.695 -1.709,8.598 -2.847,1.902 -6.695,1.136 -8.597,-1.709 -1.294,-1.938 -1.328,-4.326 -0.34,-6.26 -2.738,0.451 -5.613,-0.682 -7.255,-3.139 -1.163,-1.742 -1.472,-3.799 -1.036,-5.689 -2.558,-0.129 -5.026,-1.414 -6.558,-3.707 -1.094,-1.639 -1.529,-3.52 -1.381,-5.338 -2.448,-0.441 -4.723,-1.828 -6.214,-4.061 -1.046,-1.564 -1.555,-3.328 -1.588,-5.08 -2.372,-0.646 -4.532,-2.109 -6.006,-4.314 -1.008,-1.51 -1.576,-3.186 -1.735,-4.875 -2.312,-0.807 -4.395,-2.33 -5.86,-4.522 -0.972,-1.455 -1.562,-3.052 -1.815,-4.673 -2.276,-0.93 -4.309,-2.526 -5.778,-4.723 -0.948,-1.418 -1.567,-2.959 -1.889,-4.535 -2.239,-1.035 -4.236,-2.662 -5.705,-4.864 -0.919,-1.375 -1.542,-2.855 -1.918,-4.373 -2.221,-1.123 -4.196,-2.808 -5.678,-5.025 -0.894,-1.338 -1.535,-2.768 -1.951,-4.238 -2.199,-1.201 -4.154,-2.926 -5.643,-5.155 -0.873,-1.306 -1.518,-2.697 -1.965,-4.125 -2.184,-1.271 -4.13,-3.029 -5.628,-5.273 -0.847,-1.268 -1.483,-2.613 -1.955,-3.992 -2.182,-1.336 -4.125,-3.137 -5.64,-5.403 -5.594,-8.371 -3.342,-19.697 5.03,-25.289 8.373,-5.593 19.696,-3.345 25.29,5.03 1.514,2.265 2.435,4.75 2.834,7.277 1.093,0.965 2.093,2.066 2.94,3.336 1.499,2.242 2.38,4.711 2.718,7.217 1.147,0.961 2.185,2.088 3.058,3.394 m 63.525,116.731 c 1.231,1.844 0.737,4.334 -1.105,5.564 -1.842,1.231 -4.334,0.735 -5.565,-1.107 -1.23,-1.842 -0.735,-4.334 1.107,-5.565 1.842,-1.23 4.332,-0.732 5.563,1.108 m -12.856,-12.02 c 2.344,-1.566 5.515,-0.933 7.08,1.41 1.568,2.346 0.937,5.514 -1.408,7.08 -2.344,1.565 -5.514,0.938 -7.081,-1.408 -1.565,-2.343 -0.935,-5.517 1.409,-7.082 m 14.584,21.828 c 1.34,-0.896 3.153,-0.535 4.047,0.807 0.896,1.338 0.535,3.152 -0.805,4.043 -1.338,0.896 -3.15,0.535 -4.046,-0.805 -0.894,-1.338 -0.535,-3.15 0.804,-4.045 m 7.294,10.913 c 0.837,-0.557 1.968,-0.335 2.528,0.502 0.56,0.839 0.336,1.972 -0.503,2.531 -0.837,0.56 -1.969,0.334 -2.527,-0.502 -0.56,-0.838 -0.336,-1.969 0.502,-2.531 M 255.044,240.1 c 1.653,1.652 1.653,4.336 0,5.984 -1.655,1.656 -4.335,1.656 -5.989,0 -1.655,-1.648 -1.655,-4.332 0,-5.984 1.654,-1.657 4.334,-1.657 5.989,0 m 7.69,9.322 c 1.203,1.205 1.203,3.152 0,4.357 -1.203,1.2 -3.153,1.2 -4.355,0 -1.203,-1.205 -1.203,-3.152 0,-4.357 1.202,-1.201 3.152,-1.201 4.355,0 M 162.746,128.207 c 1.948,1.947 3.339,4.234 4.213,6.666 1.241,0.721 2.417,1.594 3.479,2.656 1.927,1.928 3.275,4.209 4.079,6.631 1.295,0.707 2.515,1.598 3.611,2.694 1.915,1.914 3.233,4.199 3.958,6.623 1.345,0.683 2.611,1.576 3.735,2.701 1.901,1.902 3.155,4.199 3.79,6.625 1.411,0.648 2.738,1.539 3.9,2.701 1.885,1.885 3.083,4.191 3.617,6.615 1.483,0.602 2.872,1.504 4.075,2.707 1.885,1.885 3.02,4.231 3.428,6.674 1.557,0.533 3.022,1.408 4.264,2.652 1.886,1.885 2.953,4.28 3.206,6.741 1.643,0.439 3.197,1.293 4.484,2.58 1.9,1.904 2.869,4.379 2.921,6.869 1.747,0.297 3.423,1.111 4.771,2.459 1.939,1.939 2.789,4.553 2.554,7.086 1.867,0.072 3.712,0.814 5.137,2.238 2.035,2.033 2.688,4.924 1.969,7.512 2.019,-0.342 4.165,0.254 5.723,1.81 2.555,2.559 2.555,6.701 0,9.258 -2.555,2.557 -6.701,2.557 -9.253,0 -1.559,-1.559 -2.155,-3.705 -1.812,-5.725 -2.589,0.721 -5.479,0.069 -7.514,-1.968 -1.426,-1.424 -2.166,-3.27 -2.24,-5.137 -2.532,0.236 -5.147,-0.615 -7.084,-2.555 -1.347,-1.349 -2.162,-3.023 -2.459,-4.769 -2.491,-0.053 -4.965,-1.022 -6.866,-2.92 -1.288,-1.289 -2.143,-2.846 -2.582,-4.486 -2.462,-0.256 -4.856,-1.323 -6.743,-3.209 -1.241,-1.241 -2.117,-2.706 -2.651,-4.262 -2.443,-0.408 -4.788,-1.543 -6.672,-3.426 -1.202,-1.203 -2.104,-2.592 -2.705,-4.074 -2.426,-0.533 -4.734,-1.731 -6.621,-3.619 -1.162,-1.162 -2.053,-2.491 -2.702,-3.901 -2.425,-0.636 -4.721,-1.89 -6.621,-3.791 -1.124,-1.123 -2.019,-2.388 -2.7,-3.734 -2.426,-0.725 -4.711,-2.043 -6.625,-3.959 -1.096,-1.094 -1.987,-2.315 -2.693,-3.607 -2.422,-0.805 -4.703,-2.153 -6.631,-4.081 -1.063,-1.064 -1.936,-2.24 -2.656,-3.48 -2.433,-0.873 -4.721,-2.264 -6.669,-4.213 -1.029,-1.027 -1.889,-2.156 -2.618,-3.344 -2.442,-0.937 -4.737,-2.377 -6.707,-4.347 -7.516,-7.514 -7.516,-19.702 0,-27.217 7.516,-7.516 19.704,-7.516 27.218,0 1.97,1.969 3.41,4.264 4.348,6.709 1.187,0.728 2.316,1.588 3.344,2.617 m 76.983,102.566 c 2.105,-2.103 5.517,-2.103 7.622,0 2.105,2.104 2.105,5.52 0,7.623 -2.105,2.104 -5.517,2.104 -7.622,0 -2.103,-2.103 -2.103,-5.519 0,-7.623 m 27.975,30.696 c -0.753,-0.752 -0.753,-1.971 0,-2.722 0.752,-0.751 1.97,-0.751 2.721,0 0.753,0.751 0.753,1.97 0,2.722 -0.751,0.752 -1.969,0.752 -2.721,0 m -2.94,7.059 c -0.622,0.929 -1.881,1.181 -2.81,0.558 -0.93,-0.623 -1.182,-1.88 -0.56,-2.813 0.623,-0.927 1.879,-1.179 2.811,-0.556 0.931,0.623 1.181,1.88 0.559,2.811 m -19.216,-18.201 c 2.044,1.364 2.597,4.136 1.229,6.18 -1.368,2.048 -4.135,2.598 -6.183,1.232 -2.046,-1.368 -2.598,-4.135 -1.23,-6.182 1.367,-2.047 4.136,-2.599 6.184,-1.23 m 9.328,7.693 c 1.489,0.998 1.888,3.008 0.894,4.498 -0.994,1.49 -3.009,1.889 -4.496,0.892 -1.489,-0.991 -1.888,-3.005 -0.895,-4.494 0.995,-1.489 3.009,-1.889 4.497,-0.896 M 130.011,156.105 c 1.236,0.491 2.441,1.108 3.59,1.875 2.339,1.563 4.205,3.563 5.594,5.811 1.287,0.475 2.543,1.09 3.733,1.885 2.314,1.547 4.131,3.551 5.45,5.799 1.34,0.457 2.648,1.074 3.88,1.898 2.287,1.527 4.061,3.531 5.303,5.783 1.393,0.43 2.751,1.057 4.025,1.91 2.269,1.518 3.999,3.536 5.156,5.807 1.447,0.393 2.859,1.01 4.174,1.889 2.252,1.506 3.92,3.549 4.978,5.842 1.51,0.339 2.986,0.945 4.351,1.855 2.241,1.498 3.863,3.572 4.806,5.893 1.57,0.271 3.112,0.861 4.523,1.804 2.233,1.492 3.779,3.619 4.581,5.981 1.647,0.172 3.277,0.728 4.748,1.713 2.243,1.498 3.714,3.713 4.337,6.134 1.721,0.034 3.453,0.534 4.991,1.561 2.273,1.518 3.653,3.863 4.028,6.369 1.804,-0.18 3.677,0.24 5.301,1.326 2.357,1.574 3.618,4.17 3.598,6.807 1.88,-0.539 3.977,-0.285 5.73,0.887 2.664,1.783 3.68,5.093 2.675,7.986 1.878,-1.486 4.558,-1.691 6.655,-0.289 2.604,1.738 3.305,5.264 1.566,7.869 -1.742,2.604 -5.264,3.305 -7.869,1.563 -2.098,-1.401 -2.934,-3.954 -2.28,-6.256 -2.287,2.034 -5.736,2.363 -8.401,0.584 -1.753,-1.172 -2.793,-3.01 -3.013,-4.955 -2.429,1.029 -5.309,0.857 -7.665,-0.719 -1.625,-1.086 -2.731,-2.656 -3.255,-4.391 -2.458,0.612 -5.153,0.235 -7.425,-1.283 -1.537,-1.027 -2.663,-2.436 -3.352,-4.014 -2.476,0.352 -5.085,-0.162 -7.327,-1.662 -1.471,-0.982 -2.611,-2.273 -3.4,-3.728 -2.489,0.162 -5.047,-0.451 -7.28,-1.944 -1.411,-0.943 -2.545,-2.14 -3.396,-3.49 -2.506,0.02 -5.044,-0.687 -7.284,-2.184 -1.365,-0.912 -2.489,-2.044 -3.382,-3.31 -2.521,-0.102 -5.046,-0.859 -7.297,-2.361 -1.317,-0.881 -2.427,-1.95 -3.344,-3.137 -2.54,-0.199 -5.066,-1.024 -7.335,-2.541 -1.275,-0.85 -2.375,-1.863 -3.305,-2.986 -2.558,-0.286 -5.088,-1.159 -7.375,-2.686 -1.233,-0.824 -2.304,-1.795 -3.239,-2.859 -2.582,-0.358 -5.128,-1.27 -7.442,-2.815 -1.191,-0.797 -2.239,-1.721 -3.171,-2.728 -2.607,-0.424 -5.169,-1.383 -7.508,-2.95 -1.148,-0.765 -2.179,-1.64 -3.103,-2.593 -2.631,-0.485 -5.21,-1.496 -7.576,-3.076 -9.303,-6.217 -11.807,-18.801 -5.591,-28.104 6.217,-9.303 18.799,-11.805 28.102,-5.588 2.365,1.58 4.285,3.574 5.74,5.818 m 129.435,117.652 c 1.086,0.45 1.602,1.694 1.15,2.779 -0.45,1.087 -1.694,1.601 -2.779,1.152 -1.085,-0.45 -1.601,-1.695 -1.151,-2.78 0.45,-1.086 1.694,-1.601 2.78,-1.151 m -10.628,-5.784 c 1.736,0.719 2.562,2.711 1.842,4.447 -0.72,1.736 -2.71,2.561 -4.446,1.842 -1.736,-0.719 -2.562,-2.711 -1.844,-4.448 0.72,-1.736 2.712,-2.56 4.448,-1.841 m -10.628,-5.785 c 2.388,0.99 3.523,3.728 2.533,6.117 -0.989,2.388 -3.727,3.521 -6.115,2.531 -2.388,-0.988 -3.522,-3.727 -2.534,-6.114 0.99,-2.386 3.728,-3.523 6.116,-2.534 M 106.993,191.67 c 1.233,0.252 2.46,0.615 3.666,1.115 2.654,1.1 4.934,2.711 6.798,4.662 1.287,0.235 2.57,0.602 3.829,1.121 2.622,1.088 4.85,2.715 6.644,4.68 1.34,0.211 2.675,0.561 3.983,1.104 2.593,1.074 4.774,2.711 6.493,4.701 1.39,0.177 2.779,0.523 4.135,1.084 2.562,1.06 4.705,2.705 6.342,4.715 1.438,0.138 2.881,0.486 4.286,1.068 2.539,1.051 4.619,2.732 6.164,4.779 1.496,0.082 3.001,0.399 4.464,1.004 2.518,1.043 4.549,2.76 5.988,4.85 1.548,0.01 3.12,0.304 4.639,0.935 2.509,1.037 4.48,2.815 5.795,4.967 1.603,-0.088 3.25,0.16 4.833,0.816 2.508,1.038 4.427,2.895 5.584,5.131 1.656,-0.222 3.39,-0.035 5.045,0.651 2.53,1.051 4.382,3.039 5.329,5.394 1.704,-0.424 3.551,-0.334 5.297,0.389 2.598,1.078 4.371,3.296 4.998,5.831 1.731,-0.747 3.75,-0.824 5.63,-0.046 2.816,1.168 4.498,3.908 4.46,6.781 1.65,-1.421 4.019,-1.886 6.168,-0.998 3.039,1.262 4.482,4.744 3.224,7.785 -1.26,3.038 -4.745,4.483 -7.784,3.222 -2.149,-0.89 -3.493,-2.893 -3.656,-5.063 -2.004,2.056 -5.131,2.802 -7.948,1.637 -1.88,-0.778 -3.253,-2.259 -3.95,-4.012 -2.236,1.349 -5.057,1.665 -7.655,0.59 -1.746,-0.725 -3.115,-1.967 -4.021,-3.471 -2.335,0.996 -5.052,1.092 -7.583,0.045 -1.654,-0.686 -3.013,-1.778 -4.026,-3.107 -2.4,0.763 -5.07,0.72 -7.579,-0.319 -1.583,-0.656 -2.921,-1.645 -3.993,-2.842 -2.452,0.594 -5.103,0.457 -7.612,-0.583 -1.519,-0.63 -2.839,-1.532 -3.942,-2.62 -2.494,0.459 -5.144,0.238 -7.663,-0.805 -1.461,-0.605 -2.75,-1.447 -3.865,-2.445 -2.538,0.354 -5.199,0.072 -7.739,-0.978 -1.405,-0.583 -2.671,-1.358 -3.786,-2.278 -2.579,0.264 -5.257,-0.088 -7.819,-1.148 -1.356,-0.563 -2.582,-1.301 -3.691,-2.157 -2.62,0.188 -5.321,-0.195 -7.912,-1.269 -1.309,-0.541 -2.501,-1.238 -3.597,-2.037 -2.66,0.123 -5.386,-0.301 -8.008,-1.389 -1.259,-0.521 -2.424,-1.17 -3.501,-1.916 -2.698,0.065 -5.452,-0.41 -8.104,-1.51 -1.207,-0.498 -2.332,-1.111 -3.382,-1.804 -2.742,0.013 -5.531,-0.506 -8.222,-1.621 -10.854,-4.496 -16.01,-16.94 -11.515,-27.793 4.497,-10.854 16.943,-16.008 27.797,-11.514 2.693,1.115 5.032,2.721 6.962,4.668 m -25.174,43.092 c 2.531,0.504 4.784,1.615 6.644,3.15 1.611,-0.256 3.289,-0.252 4.982,0.084 2.515,0.502 4.733,1.649 6.535,3.223 1.635,-0.317 3.355,-0.334 5.088,0.01 2.513,0.5 4.706,1.689 6.449,3.32 1.652,-0.383 3.407,-0.438 5.177,-0.084 2.514,0.5 4.698,1.73 6.373,3.429 1.662,-0.456 3.446,-0.554 5.25,-0.195 2.516,0.5 4.664,1.798 6.259,3.569 1.676,-0.557 3.511,-0.705 5.366,-0.336 2.531,0.504 4.666,1.877 6.164,3.744 1.676,-0.672 3.558,-0.889 5.461,-0.51 2.559,0.51 4.673,1.992 6.047,3.98 1.669,-0.826 3.61,-1.136 5.577,-0.745 2.609,0.517 4.707,2.15 5.914,4.302 1.639,-1.037 3.659,-1.476 5.71,-1.068 2.704,0.537 4.798,2.408 5.748,4.791 1.561,-1.346 3.7,-1.99 5.877,-1.557 2.931,0.582 5.051,2.935 5.49,5.723 1.325,-1.918 3.704,-2.972 6.134,-2.488 3.265,0.65 5.386,3.821 4.736,7.084 -0.65,3.268 -3.822,5.388 -7.088,4.74 -2.431,-0.485 -4.226,-2.371 -4.716,-4.651 -1.474,2.409 -4.332,3.772 -7.261,3.188 -2.178,-0.434 -3.907,-1.846 -4.834,-3.688 -1.79,1.838 -4.441,2.764 -7.142,2.227 -2.052,-0.407 -3.751,-1.586 -4.869,-3.172 -1.937,1.525 -4.502,2.231 -7.109,1.713 -1.967,-0.393 -3.641,-1.422 -4.866,-2.824 -2.032,1.311 -4.553,1.871 -7.112,1.363 -1.903,-0.379 -3.558,-1.299 -4.849,-2.562 -2.099,1.152 -4.596,1.603 -7.127,1.099 -1.855,-0.367 -3.494,-1.207 -4.829,-2.361 -2.149,1.025 -4.631,1.402 -7.148,0.902 -1.805,-0.359 -3.416,-1.133 -4.777,-2.189 -2.198,0.925 -4.686,1.228 -7.202,0.728 -1.769,-0.351 -3.369,-1.074 -4.749,-2.058 -2.234,0.838 -4.714,1.098 -7.226,0.599 -1.734,-0.346 -3.316,-1.019 -4.706,-1.937 -2.268,0.764 -4.756,0.976 -7.272,0.476 -1.693,-0.338 -3.245,-0.976 -4.634,-1.83 -2.305,0.707 -4.813,0.871 -7.344,0.367 -8.16,-1.621 -13.462,-9.554 -11.838,-17.714 1.623,-8.165 9.556,-13.463 17.717,-11.842 m 139.494,38.809 c 2.286,0.454 3.77,2.678 3.315,4.962 -0.455,2.285 -2.676,3.77 -4.961,3.315 -2.284,-0.455 -3.77,-2.678 -3.314,-4.963 0.454,-2.284 2.675,-3.768 4.96,-3.314 m -11.624,-3.235 c 2.775,0.553 4.577,3.25 4.025,6.025 -0.551,2.775 -3.249,4.577 -6.024,4.026 -2.776,-0.553 -4.578,-3.25 -4.025,-6.026 0.552,-2.775 3.248,-4.575 6.024,-4.025 m 34.873,9.705 c 1.306,0.258 2.155,1.527 1.894,2.834 -0.258,1.305 -1.528,2.152 -2.834,1.895 -1.305,-0.262 -2.154,-1.53 -1.895,-2.838 0.26,-1.305 1.53,-2.154 2.835,-1.891 m -11.624,-3.234 c 1.796,0.354 2.961,2.099 2.605,3.897 -0.358,1.795 -2.103,2.96 -3.899,2.603 -1.794,-0.356 -2.961,-2.101 -2.603,-3.9 0.355,-1.793 2.101,-2.96 3.897,-2.6 m 24.433,8.239 c -0.163,0.816 -0.956,1.346 -1.773,1.184 -0.815,-0.166 -1.346,-0.957 -1.183,-1.773 0.162,-0.816 0.956,-1.347 1.773,-1.184 0.815,0.163 1.345,0.956 1.183,1.773 M 81.75,279.805 c 1.5,-0.5 3.101,-0.781 4.769,-0.781 2.611,0 5.066,0.662 7.21,1.827 1.507,-0.548 3.126,-0.861 4.823,-0.861 2.593,0 5.014,0.707 7.103,1.924 1.524,-0.615 3.185,-0.963 4.929,-0.963 2.587,0 4.993,0.757 7.029,2.045 1.529,-0.687 3.218,-1.078 5.003,-1.078 2.587,10e-4 4.984,0.811 6.96,2.184 1.526,-0.774 3.245,-1.218 5.072,-1.218 2.593,-0.001 4.974,0.884 6.877,2.358 1.517,-0.881 3.274,-1.394 5.155,-1.394 2.606,0 4.98,0.976 6.794,2.574 1.493,-1.016 3.296,-1.609 5.238,-1.608 2.641,0 5.021,1.102 6.719,2.868 1.444,-1.191 3.296,-1.905 5.314,-1.905 2.713,0 5.117,1.299 6.645,3.303 1.349,-1.435 3.26,-2.338 5.385,-2.336 2.864,0 5.343,1.629 6.572,4.008 1.135,-1.825 3.153,-3.045 5.461,-3.045 3.553,0.004 6.434,2.881 6.432,6.434 0.002,3.552 -2.879,6.429 -6.432,6.433 -2.308,0 -4.326,-1.22 -5.461,-3.045 -1.23,2.379 -3.709,4.009 -6.572,4.012 -2.125,0 -4.036,-0.903 -5.385,-2.34 -1.529,2.003 -3.933,3.3 -6.645,3.302 -2.017,0 -3.867,-0.714 -5.312,-1.903 -1.697,1.766 -4.078,2.869 -6.721,2.867 -1.943,0 -3.745,-0.594 -5.239,-1.61 -1.813,1.598 -4.187,2.573 -6.794,2.572 -1.88,0.001 -3.636,-0.511 -5.153,-1.39 -1.903,1.473 -4.285,2.359 -6.878,2.358 -1.826,0 -3.546,-0.444 -5.072,-1.217 -1.976,1.374 -4.371,2.184 -6.96,2.184 -1.785,0 -3.475,-0.392 -5.003,-1.079 -2.037,1.286 -4.442,2.043 -7.029,2.042 -1.743,0 -3.403,-0.346 -4.926,-0.96 -2.09,1.217 -4.513,1.926 -7.106,1.926 -1.697,0 -3.317,-0.314 -4.825,-0.863 -2.142,1.165 -4.598,1.826 -7.208,1.826 -1.668,0 -3.269,-0.281 -4.77,-0.78 -2.183,1.108 -4.645,1.747 -7.262,1.747 -8.881,0 -16.083,-7.203 -16.081,-16.082 0,-8.881 7.2,-16.084 16.081,-16.084 2.617,0 5.079,0.638 7.263,1.748 m 130.559,14.332 c -0.003,3.022 -2.451,5.469 -5.469,5.473 -3.02,-0.004 -5.467,-2.451 -5.467,-5.469 0,-3.021 2.447,-5.468 5.467,-5.468 3.02,-10e-4 5.469,2.447 5.469,5.464 m 28.054,0.004 c 0,-1.42 1.153,-2.573 2.574,-2.573 1.42,0 2.573,1.153 2.573,2.573 0,1.421 -1.153,2.572 -2.574,2.572 -1.42,0 -2.573,-1.153 -2.573,-2.572 m 14.605,-1.607 c 0.889,0 1.608,0.716 1.608,1.607 0,0.89 -0.719,1.606 -1.608,1.606 -0.887,0.004 -1.608,-0.716 -1.608,-1.606 0,-0.887 0.72,-1.61 1.608,-1.607 M 230.904,290.6 c 1.955,0 3.538,1.588 3.538,3.541 0,1.955 -1.583,3.537 -3.538,3.539 -1.955,0 -3.538,-1.586 -3.538,-3.539 10e-4,-1.957 1.583,-3.537 3.538,-3.541 m -7.528,3.541 c 0,2.488 -2.017,4.502 -4.503,4.502 -2.487,0 -4.504,-2.014 -4.504,-4.502 0,-2.489 2.017,-4.504 4.504,-4.504 2.486,0 4.503,2.015 4.503,4.504 M 75.545,321.973 c 2.608,-0.519 5.188,-0.395 7.601,0.229 1.351,-0.717 2.823,-1.257 4.4,-1.572 2.595,-0.515 5.164,-0.362 7.544,0.319 1.356,-0.764 2.848,-1.338 4.457,-1.657 2.586,-0.515 5.147,-0.329 7.493,0.419 1.356,-0.82 2.864,-1.435 4.507,-1.763 2.568,-0.51 5.105,-0.269 7.406,0.547 1.358,-0.893 2.903,-1.552 4.596,-1.889 2.564,-0.509 5.098,-0.218 7.357,0.687 1.346,-0.969 2.91,-1.681 4.643,-2.025 2.561,-0.51 5.087,-0.151 7.293,0.857 1.328,-1.068 2.923,-1.846 4.709,-2.201 2.572,-0.511 5.11,-0.073 7.258,1.067 1.291,-1.18 2.902,-2.042 4.743,-2.409 2.592,-0.515 5.144,0.04 7.217,1.347 1.231,-1.332 2.87,-2.306 4.784,-2.687 2.64,-0.525 5.237,0.184 7.205,1.72 1.121,-1.528 2.788,-2.663 4.795,-3.062 2.745,-0.546 5.433,0.414 7.23,2.301 0.914,-1.819 2.621,-3.215 4.771,-3.641 3.056,-0.608 6.037,0.927 7.402,3.562 0.331,-2.383 2.107,-4.409 4.6,-4.904 3.149,-0.626 6.208,1.419 6.835,4.568 0.625,3.145 -1.419,6.206 -4.568,6.833 -2.49,0.497 -4.906,-0.694 -6.125,-2.766 -0.252,2.955 -2.42,5.511 -5.476,6.12 -2.15,0.428 -4.261,-0.208 -5.801,-1.538 -0.938,2.431 -3.055,4.346 -5.798,4.893 -2.006,0.399 -3.981,-0.013 -5.603,-0.996 -1.23,2.173 -3.358,3.822 -6,4.348 -1.913,0.38 -3.8,0.108 -5.445,-0.651 -1.415,2.001 -3.561,3.489 -6.154,4.006 -1.84,0.364 -3.659,0.185 -5.303,-0.412 -1.548,1.876 -3.726,3.252 -6.298,3.762 -1.786,0.356 -3.555,0.248 -5.192,-0.23 -1.652,1.776 -3.849,3.075 -6.409,3.585 -1.735,0.344 -3.452,0.285 -5.068,-0.094 -1.739,1.699 -3.969,2.936 -6.532,3.446 -1.693,0.337 -3.371,0.321 -4.968,0.015 -1.813,1.636 -4.065,2.829 -6.632,3.34 -1.644,0.326 -3.273,0.335 -4.84,0.096 -1.881,1.59 -4.176,2.743 -6.763,3.258 -1.609,0.32 -3.208,0.36 -4.752,0.172 -1.938,1.54 -4.253,2.665 -6.847,3.18 -1.577,0.314 -3.144,0.378 -4.666,0.233 -1.99,1.501 -4.328,2.603 -6.937,3.121 -9.258,1.842 -18.258,-4.174 -20.1,-13.433 -1.842,-9.259 4.173,-18.259 13.431,-20.101 m 178.672,-18.11 c -0.185,-0.925 0.416,-1.826 1.344,-2.008 0.924,-0.185 1.824,0.416 2.008,1.342 0.185,0.925 -0.418,1.824 -1.342,2.01 -0.927,0.184 -1.827,-0.418 -2.01,-1.344 m -25.614,5.094 c -0.405,-2.036 0.917,-4.015 2.955,-4.422 2.036,-0.404 4.016,0.919 4.422,2.957 0.406,2.034 -0.918,4.015 -2.955,4.42 -2.038,0.405 -4.017,-0.916 -4.422,-2.955 m 18.172,-3.614 c 0.295,1.482 -0.668,2.92 -2.15,3.217 -1.48,0.294 -2.92,-0.669 -3.216,-2.149 -0.295,-1.482 0.668,-2.924 2.15,-3.218 1.481,-0.293 2.921,0.668 3.216,2.15 m -25.351,9.925 c -2.593,0.513 -5.111,-1.17 -5.629,-3.761 -0.515,-2.594 1.169,-5.115 3.761,-5.631 2.593,-0.515 5.114,1.169 5.628,3.762 0.516,2.591 -1.168,5.112 -3.76,5.63 m 36.514,-4.384 c 0.925,-0.383 1.984,0.056 2.366,0.981 0.384,0.922 -0.056,1.983 -0.98,2.365 -0.924,0.385 -1.983,-0.057 -2.366,-0.979 -0.382,-0.925 0.056,-1.982 0.98,-2.367 M 84.96,364.893 c 2.512,-1.041 5.121,-1.455 7.67,-1.348 1.161,-0.893 2.444,-1.664 3.862,-2.251 2.485,-1.03 5.072,-1.407 7.587,-1.246 1.168,-0.947 2.484,-1.751 3.944,-2.355 2.471,-1.024 5.051,-1.371 7.541,-1.143 1.165,-0.999 2.497,-1.841 3.991,-2.459 2.459,-1.017 5.032,-1.315 7.497,-1.009 1.156,-1.063 2.502,-1.955 4.036,-2.591 2.44,-1.011 5.001,-1.252 7.432,-0.862 1.141,-1.139 2.517,-2.082 4.099,-2.738 2.44,-1.01 5.013,-1.201 7.418,-0.701 1.11,-1.219 2.49,-2.227 4.114,-2.899 2.434,-1.008 5.011,-1.114 7.375,-0.491 1.068,-1.327 2.473,-2.413 4.157,-3.111 2.448,-1.014 5.056,-1.024 7.383,-0.235 0.996,-1.45 2.404,-2.642 4.149,-3.366 2.479,-1.026 5.142,-0.908 7.415,0.1 0.88,-1.61 2.291,-2.942 4.117,-3.699 2.551,-1.058 5.322,-0.744 7.515,0.588 0.675,-1.829 2.073,-3.384 4.017,-4.189 2.728,-1.13 5.75,-0.465 7.763,1.447 0.229,-2.172 1.608,-4.154 3.768,-5.049 3.143,-1.301 6.745,0.192 8.046,3.335 1.302,3.14 -0.19,6.741 -3.332,8.043 -2.16,0.894 -4.537,0.469 -6.234,-0.904 -0.071,2.774 -1.737,5.381 -4.466,6.514 -1.944,0.805 -4.033,0.694 -5.803,-0.122 -0.609,2.491 -2.348,4.672 -4.898,5.729 -1.827,0.756 -3.767,0.811 -5.526,0.295 -0.896,2.32 -2.696,4.286 -5.174,5.313 -1.746,0.724 -3.585,0.876 -5.315,0.555 -1.087,2.203 -2.939,4.039 -5.385,5.053 -1.685,0.698 -3.447,0.924 -5.14,0.74 -1.231,2.114 -3.128,3.861 -5.562,4.869 -1.624,0.672 -3.311,0.935 -4.958,0.859 -1.346,2.054 -3.301,3.74 -5.742,4.751 -1.583,0.656 -3.222,0.962 -4.836,0.963 -1.443,1.993 -3.423,3.635 -5.863,4.645 -1.535,0.635 -3.118,0.955 -4.685,1.022 -1.528,1.959 -3.558,3.567 -6.017,4.586 -1.493,0.618 -3.03,0.966 -4.56,1.081 -1.599,1.924 -3.669,3.503 -6.14,4.526 -1.459,0.605 -2.958,0.967 -4.453,1.123 -1.665,1.893 -3.761,3.455 -6.247,4.485 -1.418,0.587 -2.87,0.948 -4.322,1.138 -1.728,1.878 -3.866,3.431 -6.379,4.472 -9.238,3.826 -19.834,-0.561 -23.661,-9.802 -3.827,-9.239 0.562,-19.834 9.802,-23.662 m 159.878,-46.622 c -0.612,-1.476 0.09,-3.172 1.568,-3.786 1.479,-0.61 3.175,0.092 3.787,1.569 0.612,1.478 -0.091,3.173 -1.568,3.786 -1.48,0.612 -3.175,-0.09 -3.787,-1.569 m -12.12,5.021 c -0.841,-2.033 0.123,-4.365 2.157,-5.206 2.032,-0.842 4.363,0.124 5.206,2.156 0.84,2.033 -0.123,4.364 -2.157,5.206 -2.033,0.843 -4.363,-0.123 -5.206,-2.156 m -2.75,1.141 c 1.07,2.584 -0.157,5.551 -2.746,6.623 -2.585,1.072 -5.552,-0.156 -6.624,-2.744 -1.071,-2.588 0.157,-5.555 2.746,-6.624 2.585,-1.072 5.552,0.156 6.624,2.745 m 6.074,20.952 c -2.459,1.642 -5.786,0.981 -7.428,-1.477 -1.643,-2.459 -0.981,-5.784 1.477,-7.427 2.46,-1.644 5.785,-0.981 7.428,1.477 1.643,2.459 0.982,5.785 -1.477,7.427 m -133.651,59.864 c 2.309,-1.545 4.835,-2.504 7.407,-2.941 0.949,-1.031 2.018,-1.978 3.234,-2.791 2.286,-1.528 4.797,-2.441 7.347,-2.818 0.951,-1.084 2.04,-2.074 3.296,-2.912 2.261,-1.512 4.756,-2.385 7.282,-2.696 0.946,-1.14 2.064,-2.171 3.359,-3.036 2.247,-1.502 4.743,-2.346 7.258,-2.577 0.93,-1.194 2.056,-2.268 3.383,-3.154 2.231,-1.491 4.727,-2.267 7.226,-2.411 0.909,-1.265 2.045,-2.4 3.417,-3.317 2.215,-1.481 4.712,-2.202 7.192,-2.245 0.875,-1.345 2.03,-2.538 3.449,-3.486 2.213,-1.48 4.733,-2.129 7.204,-2.046 0.825,-1.431 1.972,-2.706 3.438,-3.685 2.217,-1.482 4.773,-2.058 7.235,-1.816 0.746,-1.534 1.887,-2.9 3.406,-3.916 2.234,-1.492 4.852,-1.954 7.303,-1.508 0.623,-1.665 1.748,-3.16 3.34,-4.223 2.28,-1.524 5.014,-1.839 7.448,-1.1 0.425,-1.828 1.511,-3.506 3.194,-4.631 2.394,-1.6 5.363,-1.666 7.754,-0.435 0.039,-2.057 1.046,-4.063 2.886,-5.293 2.987,-1.997 7.023,-1.192 9.021,1.792 1.993,2.988 1.19,7.024 -1.796,9.018 -1.84,1.23 -4.08,1.394 -5.994,0.641 0.221,2.682 -0.977,5.4 -3.371,6.999 -1.685,1.126 -3.651,1.486 -5.502,1.178 -0.248,2.533 -1.586,4.937 -3.867,6.461 -1.59,1.063 -3.4,1.53 -5.178,1.47 -0.525,2.434 -1.954,4.675 -4.187,6.167 -1.521,1.015 -3.22,1.547 -4.922,1.649 -0.719,2.367 -2.229,4.51 -4.446,5.992 -1.466,0.978 -3.082,1.55 -4.72,1.763 -0.868,2.317 -2.433,4.395 -4.647,5.873 -1.418,0.949 -2.964,1.559 -4.541,1.855 -0.988,2.275 -2.611,4.306 -4.825,5.786 -1.374,0.918 -2.857,1.532 -4.376,1.889 -1.089,2.253 -2.761,4.259 -4.991,5.749 -1.327,0.886 -2.749,1.516 -4.208,1.918 -1.176,2.236 -2.911,4.218 -5.16,5.719 -1.295,0.866 -2.673,1.505 -4.089,1.943 -1.254,2.215 -3.016,4.186 -5.277,5.697 -1.256,0.84 -2.588,1.468 -3.954,1.931 -1.324,2.212 -3.128,4.181 -5.414,5.708 -1.216,0.813 -2.5,1.437 -3.815,1.919 -1.389,2.21 -3.241,4.175 -5.55,5.719 -8.782,5.869 -20.658,3.505 -26.525,-5.276 -5.867,-8.781 -3.506,-20.658 5.276,-26.523 m 143.018,-67.501 c -1.932,1.288 -4.545,0.769 -5.837,-1.164 -1.29,-1.929 -0.77,-4.544 1.161,-5.834 1.931,-1.293 4.544,-0.773 5.836,1.161 1.291,1.932 0.77,4.544 -1.16,5.837 m 10.21,-11.886 c 0.939,1.408 0.561,3.307 -0.845,4.245 -1.403,0.94 -3.305,0.561 -4.243,-0.843 -0.938,-1.407 -0.562,-3.305 0.845,-4.245 1.404,-0.94 3.304,-0.561 4.243,0.843 m 6.398,-6.574 c 0.878,-0.587 2.067,-0.349 2.652,0.529 0.586,0.878 0.351,2.065 -0.527,2.653 -0.879,0.583 -2.066,0.349 -2.652,-0.53 -0.588,-0.878 -0.351,-2.065 0.527,-2.652 m -3.739,15.114 c 1.257,-1.257 3.298,-1.257 4.556,0 1.26,1.257 1.26,3.298 0,4.555 -1.258,1.258 -3.299,1.258 -4.556,0 -1.257,-1.257 -1.257,-3.298 0,-4.555 m -9.363,13.918 c -1.729,-1.731 -1.729,-4.535 0,-6.266 1.73,-1.727 4.536,-1.727 6.266,0 1.731,1.731 1.731,4.535 0,6.266 -1.73,1.73 -4.536,1.73 -6.266,0 m 21.573,-18.723 c -0.786,0.786 -2.061,0.786 -2.847,0 -0.785,-0.788 -0.785,-2.063 0,-2.851 0.786,-0.785 2.061,-0.785 2.847,0 0.786,0.788 0.786,2.063 0,2.851 M 134.021,437.075 c 0.722,-1.124 1.564,-2.194 2.547,-3.177 1.985,-1.985 4.307,-3.419 6.776,-4.338 0.718,-1.177 1.568,-2.297 2.587,-3.316 1.963,-1.962 4.276,-3.348 6.735,-4.197 0.709,-1.233 1.572,-2.402 2.626,-3.456 1.942,-1.941 4.249,-3.286 6.697,-4.058 0.693,-1.291 1.578,-2.506 2.667,-3.595 1.927,-1.927 4.241,-3.223 6.691,-3.908 0.664,-1.351 1.546,-2.622 2.671,-3.747 1.911,-1.911 4.238,-3.143 6.688,-3.727 0.626,-1.423 1.508,-2.76 2.673,-3.925 1.904,-1.903 4.254,-3.085 6.713,-3.549 0.569,-1.496 1.446,-2.902 2.651,-4.107 1.896,-1.896 4.285,-2.992 6.755,-3.31 0.484,-1.588 1.351,-3.085 2.607,-4.341 1.906,-1.906 4.364,-2.911 6.859,-3.041 0.36,-1.691 1.19,-3.301 2.502,-4.614 1.934,-1.933 4.509,-2.822 7.039,-2.689 0.165,-1.811 0.938,-3.577 2.325,-4.963 2.014,-2.016 4.829,-2.733 7.419,-2.167 -0.185,-1.962 0.441,-3.985 1.943,-5.489 2.287,-2.287 5.786,-2.601 8.424,-0.973 -1.169,-2.14 -0.873,-4.869 0.938,-6.679 2.201,-2.203 5.772,-2.203 7.973,0 2.202,2.2 2.202,5.772 0,7.973 -1.812,1.812 -4.539,2.109 -6.679,0.939 1.629,2.639 1.315,6.135 -0.974,8.425 -1.501,1.502 -3.525,2.129 -5.486,1.943 0.565,2.591 -0.153,5.405 -2.168,7.419 -1.387,1.386 -3.153,2.158 -4.964,2.323 0.134,2.531 -0.756,5.105 -2.69,7.039 -1.312,1.313 -2.922,2.142 -4.612,2.501 -0.13,2.496 -1.136,4.955 -3.041,6.86 -1.256,1.257 -2.753,2.123 -4.341,2.607 -0.319,2.47 -1.414,4.859 -3.311,6.756 -1.205,1.205 -2.611,2.083 -4.108,2.651 -0.464,2.459 -1.644,4.808 -3.547,6.71 -1.165,1.167 -2.503,2.051 -3.927,2.676 -0.584,2.449 -1.816,4.776 -3.726,6.686 -1.124,1.124 -2.395,2.007 -3.746,2.672 -0.686,2.45 -1.981,4.765 -3.908,6.692 -1.089,1.088 -2.304,1.974 -3.595,2.666 -0.772,2.449 -2.118,4.756 -4.058,6.697 -1.055,1.054 -2.224,1.918 -3.457,2.627 -0.849,2.459 -2.235,4.772 -4.197,6.734 -1.018,1.019 -2.138,1.869 -3.316,2.588 -0.919,2.469 -2.353,4.79 -4.338,6.775 -0.983,0.983 -2.052,1.825 -3.175,2.547 -0.983,2.481 -2.471,4.808 -4.477,6.814 -7.865,7.864 -20.617,7.864 -28.479,0 -7.864,-7.862 -7.864,-20.614 0,-28.478 2.006,-2.007 4.334,-3.494 6.814,-4.476 m 138.467,-91.032 c -1.039,1.553 -3.141,1.971 -4.696,0.931 -1.553,-1.036 -1.972,-3.14 -0.933,-4.693 1.038,-1.554 3.14,-1.972 4.695,-0.932 1.552,1.036 1.972,3.139 0.934,4.694 m -13.369,5.538 c 1.428,-2.136 4.318,-2.712 6.454,-1.285 2.136,1.428 2.712,4.319 1.285,6.454 -1.428,2.139 -4.318,2.712 -6.456,1.284 -2.135,-1.428 -2.711,-4.315 -1.283,-6.453 m 18.414,-19.183 c 0.97,0.649 1.231,1.963 0.583,2.935 -0.648,0.968 -1.962,1.23 -2.934,0.581 -0.971,-0.646 -1.233,-1.961 -0.582,-2.931 0.65,-0.973 1.963,-1.234 2.933,-0.585 m -113.11,134.177 c 0.488,-1.169 1.089,-2.31 1.819,-3.403 1.591,-2.381 3.613,-4.297 5.887,-5.737 0.481,-1.227 1.09,-2.423 1.851,-3.563 1.575,-2.355 3.602,-4.217 5.878,-5.586 0.467,-1.28 1.073,-2.53 1.863,-3.713 1.556,-2.328 3.585,-4.142 5.866,-5.435 0.444,-1.335 1.056,-2.637 1.875,-3.863 1.537,-2.3 3.564,-4.077 5.851,-5.283 0.413,-1.392 1.039,-2.746 1.888,-4.017 1.524,-2.282 3.578,-3.989 5.884,-5.098 0.369,-1.458 0.972,-2.88 1.856,-4.201 1.512,-2.262 3.589,-3.914 5.916,-4.91 0.307,-1.525 0.906,-3.017 1.824,-4.391 1.506,-2.254 3.633,-3.835 6.001,-4.696 0.219,-1.597 0.782,-3.171 1.738,-4.6 1.507,-2.257 3.706,-3.771 6.125,-4.461 0.097,-1.674 0.616,-3.345 1.615,-4.84 1.522,-2.278 3.839,-3.7 6.335,-4.159 -0.094,-1.76 0.35,-3.563 1.404,-5.141 1.565,-2.339 4.093,-3.64 6.705,-3.745 -0.41,-1.848 -0.1,-3.853 1.036,-5.552 1.703,-2.554 4.756,-3.656 7.58,-3.011 -1.116,-1.897 -1.145,-4.336 0.16,-6.29 1.817,-2.72 5.495,-3.451 8.214,-1.633 2.72,1.815 3.45,5.494 1.634,8.213 -1.305,1.955 -3.569,2.861 -5.749,2.555 1.675,2.362 1.824,5.606 0.119,8.155 -1.135,1.699 -2.869,2.753 -4.735,3.081 0.905,2.453 0.67,5.288 -0.894,7.627 -1.054,1.578 -2.55,2.679 -4.211,3.267 0.531,2.481 0.103,5.166 -1.418,7.443 -0.999,1.495 -2.344,2.615 -3.855,3.344 0.289,2.5 -0.268,5.11 -1.775,7.366 -0.956,1.43 -2.194,2.553 -3.585,3.368 0.109,2.516 -0.538,5.087 -2.044,7.342 -0.917,1.373 -2.067,2.496 -3.358,3.363 -0.03,2.531 -0.761,5.084 -2.273,7.346 -0.883,1.321 -1.965,2.423 -3.171,3.322 -0.142,2.554 -0.933,5.105 -2.458,7.386 -0.849,1.272 -1.861,2.368 -2.989,3.283 -0.239,2.573 -1.103,5.126 -2.641,7.426 -0.819,1.227 -1.788,2.29 -2.852,3.212 -0.321,2.601 -1.22,5.171 -2.776,7.498 -0.791,1.183 -1.713,2.222 -2.718,3.143 -0.394,2.627 -1.339,5.211 -2.911,7.566 -0.763,1.141 -1.635,2.16 -2.584,3.073 -0.459,2.653 -1.455,5.255 -3.046,7.637 -0.731,1.092 -1.554,2.082 -2.447,2.981 -0.518,2.684 -1.567,5.312 -3.182,7.728 -6.489,9.714 -19.627,12.324 -29.338,5.836 -9.711,-6.49 -12.324,-19.627 -5.835,-29.337 1.614,-2.415 3.64,-4.389 5.921,-5.896 m 41.766,27.169 c 0.056,-1.637 0.385,-3.288 1.047,-4.89 0.98,-2.364 2.539,-4.309 4.434,-5.76 0.002,-1.672 0.32,-3.372 0.999,-5.013 0.979,-2.363 2.576,-4.278 4.517,-5.661 -0.06,-1.699 0.223,-3.437 0.916,-5.111 0.98,-2.366 2.617,-4.259 4.611,-5.562 -0.133,-1.724 0.116,-3.503 0.823,-5.21 0.981,-2.37 2.678,-4.22 4.731,-5.428 -0.23,-1.756 -0.026,-3.593 0.7,-5.346 0.988,-2.383 2.756,-4.202 4.884,-5.294 -0.347,-1.781 -0.195,-3.678 0.551,-5.48 0.998,-2.41 2.87,-4.191 5.096,-5.137 -0.502,-1.802 -0.435,-3.775 0.335,-5.637 1.019,-2.457 3.04,-4.194 5.392,-4.941 -0.716,-1.811 -0.761,-3.889 0.043,-5.829 1.056,-2.554 3.319,-4.236 5.854,-4.678 -1.045,-1.792 -1.277,-4.031 -0.422,-6.097 1.152,-2.781 3.919,-4.397 6.764,-4.226 -1.683,-1.658 -2.29,-4.231 -1.332,-6.546 1.264,-3.05 4.761,-4.499 7.811,-3.235 3.051,1.264 4.499,4.759 3.236,7.811 -0.959,2.316 -3.207,3.705 -5.571,3.687 2.133,1.891 2.947,4.991 1.795,7.772 -0.855,2.066 -2.602,3.484 -4.609,4.012 1.479,2.105 1.891,4.894 0.833,7.447 -0.804,1.941 -2.306,3.379 -4.092,4.152 1.135,2.192 1.335,4.849 0.317,7.308 -0.771,1.86 -2.119,3.303 -3.747,4.221 0.904,2.243 0.968,4.827 -0.031,7.238 -0.745,1.8 -1.98,3.249 -3.484,4.263 0.732,2.277 0.696,4.814 -0.292,7.197 -0.725,1.753 -1.879,3.196 -3.282,4.276 0.596,2.305 0.489,4.813 -0.492,7.182 -0.708,1.707 -1.79,3.142 -3.104,4.267 0.489,2.33 0.308,4.827 -0.672,7.192 -0.693,1.675 -1.723,3.104 -2.968,4.264 0.395,2.35 0.17,4.833 -0.809,7.196 -0.68,1.641 -1.657,3.067 -2.838,4.251 0.315,2.367 0.042,4.843 -0.938,7.208 -0.663,1.601 -1.598,3.001 -2.715,4.198 0.25,2.394 -0.075,4.883 -1.061,7.262 -3.158,7.625 -11.901,11.245 -19.527,8.087 -7.626,-3.157 -11.246,-11.901 -8.088,-19.526 0.986,-2.38 2.515,-4.369 4.385,-5.884 m 68.022,-129.87 c -1.679,-0.693 -2.473,-2.618 -1.779,-4.295 0.693,-1.677 2.618,-2.473 4.296,-1.78 1.678,0.695 2.475,2.62 1.78,4.297 -0.696,1.678 -2.618,2.473 -4.297,1.778 m -4.948,11.947 c -2.135,-0.884 -3.148,-3.334 -2.264,-5.47 0.884,-2.136 3.331,-3.15 5.467,-2.265 2.136,0.884 3.149,3.334 2.266,5.47 -0.884,2.133 -3.333,3.149 -5.469,2.265 m 15.987,-38.596 c 0.763,0.314 1.125,1.19 0.809,1.953 -0.316,0.761 -1.189,1.122 -1.953,0.808 -0.761,-0.318 -1.125,-1.189 -0.808,-1.953 0.316,-0.761 1.188,-1.125 1.952,-0.808 m -7.385,11.583 c 0.506,-1.223 1.905,-1.801 3.124,-1.297 1.22,0.506 1.801,1.905 1.293,3.126 -0.504,1.219 -1.903,1.797 -3.124,1.293 -1.219,-0.506 -1.799,-1.904 -1.293,-3.122 m -13.55,38.956 c -2.592,-1.075 -3.823,-4.048 -2.749,-6.639 1.073,-2.593 4.047,-3.825 6.639,-2.749 2.594,1.072 3.825,4.045 2.75,6.64 -1.074,2.59 -4.047,3.82 -6.64,2.748 m 18.944,6.104 c -2.939,-0.585 -4.849,-3.442 -4.265,-6.38 0.586,-2.937 3.444,-4.847 6.382,-4.262 2.938,0.585 4.849,3.44 4.263,6.38 -0.584,2.937 -3.441,4.847 -6.38,4.262 m -37.283,114.611 c -0.204,-1.575 -0.172,-3.207 0.155,-4.851 0.509,-2.554 1.639,-4.825 3.201,-6.691 -0.251,-1.592 -0.248,-3.249 0.085,-4.922 0.505,-2.536 1.675,-4.767 3.277,-6.572 -0.314,-1.619 -0.332,-3.324 0.01,-5.043 0.504,-2.535 1.718,-4.743 3.381,-6.481 -0.384,-1.636 -0.444,-3.376 -0.095,-5.132 0.505,-2.535 1.771,-4.721 3.506,-6.382 -0.471,-1.652 -0.577,-3.433 -0.218,-5.233 0.505,-2.541 1.842,-4.7 3.664,-6.27 -0.579,-1.662 -0.747,-3.493 -0.378,-5.344 0.508,-2.557 1.937,-4.691 3.866,-6.147 -0.719,-1.664 -0.96,-3.554 -0.579,-5.466 0.515,-2.593 2.072,-4.709 4.145,-6.016 -0.902,-1.649 -1.255,-3.611 -0.86,-5.599 0.53,-2.665 2.287,-4.768 4.563,-5.859 -1.166,-1.6 -1.693,-3.659 -1.278,-5.755 0.563,-2.819 2.672,-4.93 5.267,-5.642 -1.605,-1.456 -2.432,-3.69 -1.977,-5.971 0.686,-3.457 4.046,-5.704 7.503,-5.016 3.46,0.686 5.703,4.05 5.017,7.507 -0.453,2.281 -2.072,4.027 -4.113,4.759 2.125,1.651 3.265,4.409 2.704,7.229 -0.416,2.094 -1.69,3.795 -3.381,4.826 1.685,1.88 2.504,4.494 1.974,7.16 -0.395,1.987 -1.471,3.665 -2.936,4.843 1.414,2.002 2.044,4.552 1.528,7.146 -0.381,1.912 -1.327,3.566 -2.629,4.828 1.225,2.084 1.728,4.602 1.22,7.158 -0.368,1.852 -1.223,3.478 -2.395,4.792 1.083,2.147 1.492,4.654 0.985,7.197 -0.357,1.799 -1.135,3.405 -2.202,4.749 0.968,2.199 1.3,4.703 0.796,7.238 -0.349,1.756 -1.07,3.34 -2.053,4.705 0.874,2.243 1.15,4.747 0.645,7.283 -0.342,1.718 -1.011,3.286 -1.921,4.662 0.791,2.28 1.017,4.788 0.513,7.326 -0.332,1.672 -0.963,3.206 -1.804,4.58 0.729,2.321 0.904,4.852 0.396,7.406 -0.328,1.644 -0.922,3.165 -1.714,4.542 0.666,2.351 0.815,4.886 0.306,7.447 -1.72,8.643 -10.123,14.259 -18.766,12.539 -8.643,-1.719 -14.259,-10.122 -12.539,-18.767 0.509,-2.561 1.615,-4.846 3.131,-6.763 m 39.817,-127.351 c -2.421,-0.482 -3.992,-2.835 -3.511,-5.255 0.482,-2.419 2.834,-3.992 5.255,-3.51 2.419,0.482 3.992,2.834 3.512,5.255 -0.483,2.421 -2.835,3.992 -5.256,3.51 m 2.535,-12.739 c -1.902,-0.38 -3.137,-2.227 -2.759,-4.127 0.379,-1.904 2.228,-3.138 4.129,-2.759 1.902,0.376 3.135,2.226 2.757,4.127 -0.378,1.901 -2.226,3.137 -4.127,2.759 m 2.532,-12.741 c -1.382,-0.275 -2.279,-1.617 -2.005,-3.001 0.274,-1.384 1.621,-2.284 3.002,-2.006 1.384,0.275 2.283,1.618 2.007,3.002 -0.275,1.383 -1.619,2.282 -3.004,2.005 m 1.282,-14.616 c 0.171,-0.864 1.012,-1.425 1.876,-1.255 0.864,0.174 1.425,1.014 1.254,1.877 -0.173,0.864 -1.013,1.429 -1.877,1.255 -0.863,-0.171 -1.424,-1.013 -1.253,-1.877 m -5.001,169.685 c 0,-2.642 0.652,-5.129 1.79,-7.322 -0.493,-1.483 -0.77,-3.063 -0.77,-4.711 0,-2.631 0.685,-5.099 1.881,-7.246 -0.549,-1.494 -0.864,-3.101 -0.864,-4.785 0,-2.613 0.733,-5.049 1.987,-7.138 -0.622,-1.51 -0.969,-3.161 -0.969,-4.894 0,-2.612 0.783,-5.038 2.116,-7.069 -0.696,-1.512 -1.096,-3.189 -1.096,-4.964 0,-2.606 0.849,-5.009 2.273,-6.968 -0.799,-1.513 -1.255,-3.234 -1.255,-5.063 0,-2.62 0.927,-5.024 2.473,-6.901 -0.917,-1.495 -1.456,-3.248 -1.456,-5.131 0,-2.643 1.048,-5.038 2.744,-6.807 -1.079,-1.464 -1.725,-3.268 -1.725,-5.226 0,-2.693 1.21,-5.101 3.114,-6.721 -1.297,-1.394 -2.096,-3.257 -2.096,-5.31 0,-2.805 1.483,-5.257 3.704,-6.634 -1.628,-1.24 -2.683,-3.194 -2.683,-5.399 0,-3.146 2.144,-5.786 5.049,-6.555 -2.331,-0.742 -4.032,-2.9 -4.032,-5.477 0,-3.187 2.582,-5.771 5.771,-5.771 3.186,0 5.769,2.584 5.769,5.771 0,2.577 -1.7,4.735 -4.032,5.477 2.906,0.769 5.051,3.409 5.051,6.555 0,2.205 -1.056,4.158 -2.685,5.399 2.222,1.376 3.705,3.829 3.705,6.634 0,2.054 -0.799,3.917 -2.095,5.31 1.901,1.62 3.112,4.028 3.112,6.721 0,1.958 -0.647,3.761 -1.725,5.226 1.697,1.769 2.744,4.163 2.744,6.807 0,1.883 -0.538,3.636 -1.455,5.131 1.545,1.877 2.474,4.281 2.474,6.901 0,1.829 -0.456,3.551 -1.256,5.064 1.423,1.958 2.274,4.361 2.274,6.967 0,1.775 -0.401,3.452 -1.098,4.964 1.334,2.031 2.116,4.457 2.116,7.069 0,1.733 -0.347,3.384 -0.967,4.893 1.252,2.09 1.987,4.526 1.987,7.139 0,1.684 -0.316,3.292 -0.864,4.786 1.195,2.146 1.88,4.615 1.88,7.245 0,1.648 -0.278,3.229 -0.77,4.712 1.136,2.194 1.789,4.68 1.789,7.321 0,1.616 -0.245,3.174 -0.692,4.643 1.085,2.237 1.711,4.737 1.711,7.389 0,9.373 -7.599,16.973 -16.973,16.973 -9.374,0 -16.973,-7.6 -16.973,-16.973 0,-2.651 0.625,-5.15 1.709,-7.385 -0.447,-1.471 -0.692,-3.03 -0.692,-4.647 m 15.956,-166.751 c -0.937,0 -1.699,-0.761 -1.699,-1.697 0,-0.938 0.762,-1.699 1.699,-1.699 0.937,0 1.696,0.761 1.696,1.699 0,0.936 -0.759,1.697 -1.696,1.697 m 0,39.151 c -2.625,0 -4.753,-2.129 -4.753,-4.752 0,-2.624 2.128,-4.753 4.753,-4.753 2.626,0 4.752,2.129 4.752,4.753 0,2.623 -2.126,4.752 -4.752,4.752 m 0,-26.102 c -1.5,0 -2.716,-1.213 -2.716,-2.715 0,-1.501 1.216,-2.714 2.716,-2.714 1.498,0 2.715,1.213 2.715,2.714 0,1.502 -1.217,2.715 -2.715,2.715 m 0,13.05 c -2.065,0 -3.734,-1.671 -3.734,-3.732 0,-2.063 1.669,-3.735 3.734,-3.735 2.061,0 3.733,1.672 3.733,3.735 0,2.061 -1.672,3.732 -3.733,3.732 m 17.414,11.622 c -2.729,0.54 -5.38,-1.231 -5.924,-3.957 -0.541,-2.73 1.229,-5.381 3.957,-5.922 2.728,-0.544 5.382,1.228 5.922,3.957 0.543,2.726 -1.228,5.379 -3.955,5.922 M 313.3,365.718 c -0.428,-2.143 0.964,-4.227 3.109,-4.653 2.143,-0.429 4.226,0.964 4.653,3.108 0.425,2.145 -0.966,4.227 -3.11,4.653 -2.145,0.426 -4.226,-0.966 -4.652,-3.108 m -1.289,-12.011 c -0.311,-1.561 0.703,-3.077 2.261,-3.384 1.559,-0.312 3.075,0.702 3.383,2.26 0.311,1.559 -0.703,3.074 -2.262,3.384 -1.557,0.311 -3.072,-0.704 -3.382,-2.26 m 7.733,72.067 c -0.523,-2.631 0.119,-5.219 1.562,-7.245 -1.421,-1.172 -2.464,-2.821 -2.851,-4.768 -0.539,-2.711 0.319,-5.37 2.069,-7.251 -1.677,-1.008 -2.945,-2.687 -3.358,-4.76 -0.578,-2.91 0.687,-5.758 2.987,-7.337 -2.111,-0.622 -3.817,-2.364 -4.275,-4.671 -0.66,-3.315 1.491,-6.534 4.803,-7.191 3.312,-0.662 6.535,1.491 7.191,4.802 0.461,2.311 -0.448,4.573 -2.162,5.955 2.729,0.579 4.988,2.726 5.568,5.636 0.413,2.071 -0.115,4.108 -1.282,5.681 2.338,1.068 4.149,3.197 4.689,5.907 0.387,1.948 0.055,3.871 -0.811,5.497 2.108,1.321 3.693,3.465 4.218,6.096 0.369,1.86 0.155,3.701 -0.511,5.337 1.953,1.486 3.398,3.656 3.913,6.252 0.359,1.795 0.228,3.573 -0.29,5.2 1.836,1.612 3.184,3.809 3.696,6.391 0.346,1.732 0.27,3.446 -0.135,5.051 1.754,1.714 3.028,3.954 3.543,6.54 0.336,1.688 0.315,3.363 -0.006,4.951 1.675,1.796 2.897,4.053 3.411,6.639 0.326,1.637 0.329,3.258 0.081,4.814 1.625,1.871 2.808,4.17 3.326,6.775 0.317,1.592 0.354,3.175 0.162,4.701 1.577,1.937 2.722,4.272 3.243,6.891 0.311,1.559 0.374,3.108 0.229,4.612 1.53,1.993 2.653,4.346 3.177,6.977 0.3,1.515 0.37,3.018 0.267,4.488 1.504,2.051 2.609,4.443 3.138,7.103 1.94,9.742 -4.39,19.213 -14.132,21.15 -9.741,1.94 -19.212,-4.39 -21.15,-14.132 -0.529,-2.659 -0.422,-5.293 0.181,-7.763 -0.658,-1.319 -1.167,-2.734 -1.468,-4.249 -0.525,-2.631 -0.388,-5.236 0.263,-7.663 -0.709,-1.334 -1.243,-2.789 -1.552,-4.347 -0.522,-2.619 -0.357,-5.214 0.359,-7.606 -0.761,-1.339 -1.332,-2.812 -1.649,-4.405 -0.518,-2.604 -0.305,-5.181 0.481,-7.532 -0.826,-1.343 -1.445,-2.843 -1.77,-4.48 -0.514,-2.585 -0.249,-5.14 0.613,-7.441 -0.905,-1.343 -1.566,-2.883 -1.901,-4.571 -0.515,-2.585 -0.194,-5.141 0.77,-7.396 -0.989,-1.328 -1.717,-2.883 -2.062,-4.615 -0.513,-2.582 -0.108,-5.129 0.973,-7.321 -1.104,-1.304 -1.902,-2.896 -2.26,-4.69 -0.516,-2.597 -0.01,-5.155 1.224,-7.275 -1.24,-1.258 -2.141,-2.876 -2.512,-4.737 m -9.022,-84.078 c -0.193,-0.976 0.438,-1.922 1.414,-2.116 0.973,-0.193 1.921,0.438 2.113,1.413 0.194,0.972 -0.438,1.923 -1.412,2.115 -0.975,0.195 -1.921,-0.44 -2.115,-1.412 m 16.14,20.742 c -0.884,-2.134 0.127,-4.58 2.261,-5.461 2.134,-0.885 4.579,0.129 5.462,2.262 0.886,2.132 -0.131,4.576 -2.262,5.46 -2.132,0.884 -4.578,-0.13 -5.461,-2.261 m -3.552,-11.555 c -0.644,-1.55 0.095,-3.328 1.645,-3.971 1.552,-0.643 3.33,0.095 3.971,1.646 0.643,1.55 -0.093,3.328 -1.645,3.971 -1.549,0.643 -3.33,-0.095 -3.971,-1.646 m 41.401,130.981 c -0.941,-1.153 -1.739,-2.457 -2.339,-3.904 -1.031,-2.493 -1.368,-5.1 -1.099,-7.607 -0.999,-1.147 -1.837,-2.463 -2.451,-3.944 -1.024,-2.474 -1.294,-5.067 -0.944,-7.539 -1.073,-1.141 -1.972,-2.481 -2.607,-4.015 -1.018,-2.458 -1.235,-5.045 -0.787,-7.481 -1.156,-1.121 -2.11,-2.488 -2.765,-4.07 -1.018,-2.456 -1.158,-5.052 -0.586,-7.455 -1.253,-1.085 -2.287,-2.462 -2.965,-4.098 -1.02,-2.461 -1.081,-5.082 -0.356,-7.444 -1.369,-1.027 -2.494,-2.414 -3.196,-4.11 -1.028,-2.482 -0.965,-5.14 -0.038,-7.45 -1.521,-0.931 -2.776,-2.326 -3.512,-4.1 -1.048,-2.535 -0.815,-5.28 0.399,-7.517 -1.724,-0.762 -3.172,-2.158 -3.95,-4.036 -1.105,-2.667 -0.579,-5.602 1.118,-7.698 -2.028,-0.418 -3.818,-1.8 -4.669,-3.855 -1.365,-3.297 0.2,-7.074 3.496,-8.44 3.296,-1.365 7.076,0.199 8.44,3.496 0.853,2.056 0.564,4.3 -0.574,6.029 2.681,0.282 5.128,1.985 6.233,4.652 0.777,1.878 0.74,3.887 0.06,5.645 2.441,0.723 4.548,2.498 5.597,5.032 0.734,1.775 0.833,3.65 0.416,5.384 2.289,0.98 4.215,2.816 5.242,5.298 0.701,1.695 0.887,3.471 0.645,5.164 2.183,1.158 3.993,3.054 5.013,5.516 0.677,1.636 0.92,3.34 0.801,4.995 2.103,1.294 3.838,3.229 4.855,5.685 0.656,1.582 0.949,3.222 0.924,4.832 2.039,1.405 3.715,3.388 4.734,5.847 0.635,1.533 0.948,3.116 0.996,4.682 1.996,1.5 3.637,3.525 4.662,5.999 0.613,1.48 0.949,3.005 1.056,4.52 1.962,1.583 3.57,3.665 4.602,6.159 0.599,1.446 0.958,2.932 1.108,4.413 1.924,1.655 3.512,3.761 4.55,6.268 0.58,1.403 0.938,2.839 1.122,4.276 1.909,1.722 3.487,3.87 4.537,6.403 0.562,1.36 0.923,2.749 1.137,4.142 1.895,1.785 3.459,3.978 4.519,6.537 4.016,9.696 -0.589,20.812 -10.282,24.827 -9.696,4.015 -20.812,-0.59 -24.827,-10.284 -1.061,-2.56 -1.505,-5.217 -1.427,-7.819 -0.835,-1.136 -1.562,-2.374 -2.125,-3.734 -1.05,-2.532 -1.451,-5.166 -1.32,-7.733 -0.886,-1.147 -1.65,-2.415 -2.231,-3.818 -1.038,-2.507 -1.403,-5.118 -1.212,-7.65 M 337.364,376.869 c -2.714,1.122 -5.828,-0.164 -6.952,-2.879 -1.125,-2.714 0.163,-5.828 2.88,-6.952 2.714,-1.125 5.825,0.163 6.951,2.879 1.125,2.713 -0.165,5.828 -2.879,6.952 m -15.123,-36.51 c -0.97,0.402 -2.083,-0.059 -2.48,-1.028 -0.404,-0.97 0.057,-2.08 1.026,-2.482 0.97,-0.4 2.083,0.059 2.484,1.027 0.399,0.97 -0.061,2.083 -1.03,2.483 m 23.409,17.47 c -2.021,1.347 -4.755,0.805 -6.107,-1.217 -1.351,-2.021 -0.808,-4.756 1.214,-6.107 2.022,-1.351 4.758,-0.808 6.109,1.213 1.35,2.025 0.805,4.759 -1.216,6.111 M 330.948,335.82 c -0.921,0.615 -2.165,0.368 -2.777,-0.552 -0.613,-0.919 -0.367,-2.162 0.554,-2.775 0.917,-0.615 2.161,-0.368 2.775,0.552 0.611,0.919 0.366,2.162 -0.552,2.775 m 7.349,11.004 c -1.469,0.982 -3.457,0.588 -4.442,-0.885 -0.982,-1.467 -0.585,-3.456 0.885,-4.44 1.472,-0.981 3.459,-0.587 4.441,0.884 0.985,1.469 0.59,3.457 -0.884,4.441 m 66.56,130.372 c -1.022,-0.937 -1.961,-1.993 -2.766,-3.197 -1.538,-2.303 -2.443,-4.837 -2.789,-7.408 -1.079,-0.938 -2.065,-2.019 -2.898,-3.265 -1.521,-2.277 -2.386,-4.795 -2.662,-7.342 -1.138,-0.931 -2.162,-2.042 -3.021,-3.329 -1.512,-2.261 -2.326,-4.781 -2.515,-7.314 -1.204,-0.915 -2.286,-2.029 -3.173,-3.357 -1.499,-2.244 -2.249,-4.762 -2.338,-7.274 -1.283,-0.89 -2.428,-2.022 -3.349,-3.399 -1.492,-2.234 -2.186,-4.767 -2.155,-7.265 -1.366,-0.846 -2.581,-1.982 -3.532,-3.405 -1.488,-2.228 -2.092,-4.783 -1.916,-7.263 -1.471,-0.781 -2.778,-1.926 -3.769,-3.409 -1.497,-2.239 -1.997,-4.847 -1.629,-7.316 -1.595,-0.676 -3.022,-1.806 -4.058,-3.355 -1.519,-2.274 -1.882,-4.976 -1.244,-7.43 -1.755,-0.505 -3.347,-1.605 -4.441,-3.243 -1.578,-2.361 -1.727,-5.256 -0.662,-7.678 -1.968,-0.185 -3.839,-1.22 -5.023,-2.991 -1.81,-2.708 -1.417,-6.241 0.751,-8.496 -2.339,0.787 -5,-0.026 -6.438,-2.176 -1.72,-2.574 -1.029,-6.054 1.544,-7.773 2.575,-1.72 6.056,-1.028 7.776,1.546 1.434,2.151 1.168,4.922 -0.453,6.782 2.911,-1.141 6.327,-0.152 8.133,2.556 1.186,1.771 1.425,3.897 0.842,5.787 2.646,-0.058 5.265,1.187 6.843,3.548 1.092,1.638 1.499,3.53 1.294,5.344 2.512,0.351 4.87,1.721 6.389,3.995 1.035,1.55 1.533,3.299 1.548,5.033 2.422,0.603 4.639,2.064 6.135,4.302 0.99,1.483 1.548,3.129 1.706,4.787 2.359,0.787 4.487,2.323 5.977,4.551 0.951,1.423 1.535,2.981 1.795,4.567 2.32,0.927 4.395,2.537 5.888,4.772 0.92,1.376 1.526,2.867 1.857,4.393 2.286,1.043 4.326,2.699 5.824,4.942 0.888,1.328 1.504,2.755 1.889,4.217 2.268,1.142 4.285,2.858 5.797,5.12 0.86,1.288 1.493,2.66 1.918,4.069 2.247,1.228 4.243,2.993 5.763,5.269 0.832,1.246 1.454,2.568 1.908,3.924 2.243,1.306 4.24,3.111 5.779,5.414 0.805,1.204 1.421,2.477 1.894,3.78 2.239,1.375 4.232,3.228 5.787,5.556 0.778,1.164 1.395,2.385 1.884,3.637 2.238,1.44 4.227,3.347 5.799,5.7 6.142,9.19 3.668,21.62 -5.521,27.76 -9.191,6.141 -21.62,3.668 -27.763,-5.522 -1.572,-2.354 -2.571,-4.92 -3.046,-7.538 -0.971,-0.93 -1.862,-1.969 -2.641,-3.133 -1.554,-2.328 -2.503,-4.878 -2.918,-7.473 m -61.6,-138.138 c -1.315,-1.313 -1.315,-3.443 0,-4.757 1.314,-1.316 3.444,-1.316 4.759,0 1.312,1.314 1.312,3.444 0,4.757 -1.315,1.315 -3.445,1.315 -4.759,0 m 7.616,9.4 c -1.806,-1.807 -1.806,-4.735 0,-6.542 1.807,-1.807 4.735,-1.807 6.542,0 1.806,1.807 1.806,4.735 0,6.542 -1.807,1.806 -4.735,1.806 -6.542,0 m -12.259,-18.801 c -0.82,0.823 -2.154,0.823 -2.974,0 -0.821,-0.82 -0.821,-2.15 0,-2.972 0.82,-0.819 2.154,-0.819 2.974,0 0.822,0.822 0.822,2.152 0,2.972 m 106.655,134.066 c -1.061,-0.709 -2.07,-1.527 -3.006,-2.463 -2.022,-2.021 -3.498,-4.375 -4.462,-6.881 -1.116,-0.712 -2.179,-1.544 -3.155,-2.519 -1.996,-1.998 -3.421,-4.344 -4.314,-6.838 -1.174,-0.709 -2.29,-1.55 -3.303,-2.563 -1.975,-1.974 -3.354,-4.313 -4.17,-6.797 -1.231,-0.697 -2.396,-1.554 -3.446,-2.603 -1.952,-1.952 -3.293,-4.284 -4.022,-6.759 -1.293,-0.675 -2.507,-1.553 -3.593,-2.639 -1.936,-1.937 -3.203,-4.282 -3.836,-6.756 -1.364,-0.644 -2.65,-1.515 -3.779,-2.645 -1.92,-1.92 -3.131,-4.278 -3.649,-6.752 -1.441,-0.594 -2.793,-1.475 -3.966,-2.647 -1.916,-1.916 -3.047,-4.311 -3.422,-6.798 -1.532,-0.522 -2.972,-1.382 -4.195,-2.603 -1.917,-1.917 -2.966,-4.37 -3.161,-6.877 -1.633,-0.413 -3.179,-1.247 -4.456,-2.522 -1.935,-1.936 -2.871,-4.489 -2.822,-7.026 -1.753,-0.242 -3.446,-1.027 -4.791,-2.374 -1.992,-1.994 -2.768,-4.735 -2.344,-7.318 -1.902,0.058 -3.821,-0.632 -5.273,-2.082 -2.177,-2.18 -2.648,-5.41 -1.429,-8.052 -2.086,0.763 -4.513,0.323 -6.186,-1.351 -2.302,-2.297 -2.302,-6.025 0,-8.326 2.298,-2.3 6.027,-2.3 8.326,0 1.673,1.675 2.113,4.101 1.352,6.186 2.642,-1.219 5.871,-0.748 8.049,1.428 1.451,1.453 2.14,3.373 2.083,5.274 2.583,-0.423 5.324,0.352 7.316,2.344 1.349,1.347 2.133,3.039 2.375,4.792 2.537,-0.048 5.09,0.889 7.026,2.825 1.276,1.277 2.11,2.822 2.523,4.453 2.507,0.196 4.959,1.244 6.875,3.161 1.223,1.221 2.083,2.664 2.606,4.196 2.487,0.375 4.88,1.506 6.794,3.42 1.174,1.172 2.054,2.525 2.65,3.968 2.473,0.516 4.831,1.727 6.751,3.647 1.128,1.129 2,2.414 2.643,3.779 2.475,0.632 4.82,1.9 6.757,3.837 1.085,1.086 1.966,2.3 2.641,3.592 2.474,0.732 4.807,2.073 6.761,4.026 1.047,1.048 1.905,2.213 2.602,3.444 2.483,0.817 4.822,2.195 6.797,4.169 1.013,1.013 1.855,2.129 2.563,3.303 2.494,0.893 4.839,2.318 6.836,4.315 0.976,0.975 1.809,2.037 2.52,3.153 2.507,0.964 4.861,2.442 6.881,4.463 0.936,0.936 1.753,1.944 2.464,3.004 2.523,1.027 4.888,2.563 6.934,4.611 8.211,8.212 8.211,21.527 0,29.737 -8.208,8.212 -21.523,8.212 -29.735,0 -2.047,-2.047 -3.585,-4.412 -4.61,-6.936 M 361.311,336.96 c -1.499,-1.002 -1.901,-3.026 -0.901,-4.523 1,-1.499 3.026,-1.901 4.524,-0.9 1.498,1 1.901,3.026 0.899,4.522 -1,1.497 -3.026,1.899 -4.522,0.901 m -17.374,-17.314 c 0.682,0.456 0.863,1.375 0.41,2.056 -0.455,0.68 -1.376,0.864 -2.058,0.408 -0.679,-0.454 -0.862,-1.374 -0.409,-2.055 0.455,-0.682 1.377,-0.864 2.057,-0.409 m 36.393,32.161 c -2.313,-1.545 -2.937,-4.675 -1.391,-6.989 1.547,-2.315 4.678,-2.938 6.991,-1.393 2.314,1.549 2.936,4.678 1.392,6.992 -1.548,2.314 -4.678,2.938 -6.992,1.39 m -25.894,-26.215 c 1.088,0.725 1.382,2.2 0.655,3.289 -0.729,1.088 -2.203,1.381 -3.291,0.653 -1.091,-0.725 -1.382,-2.201 -0.655,-3.287 0.729,-1.089 2.202,-1.383 3.291,-0.655 m 16.385,18.792 c -1.907,-1.273 -2.42,-3.853 -1.146,-5.759 1.273,-1.903 3.851,-2.416 5.758,-1.142 1.905,1.272 2.417,3.851 1.143,5.755 -1.272,1.906 -3.851,2.42 -5.755,1.146 m 109.226,83.645 c -1.602,-0.369 -3.167,-1.013 -4.615,-1.98 -2.123,-1.419 -3.719,-3.326 -4.763,-5.466 -1.648,-0.322 -3.261,-0.967 -4.744,-1.958 -2.126,-1.419 -3.69,-3.361 -4.657,-5.535 -1.687,-0.265 -3.344,-0.879 -4.856,-1.89 -2.126,-1.42 -3.656,-3.397 -4.534,-5.606 -1.726,-0.196 -3.434,-0.786 -4.978,-1.817 -2.13,-1.425 -3.608,-3.454 -4.38,-5.705 -1.774,-0.107 -3.544,-0.66 -5.128,-1.718 -2.143,-1.432 -3.573,-3.526 -4.217,-5.827 -1.823,0.006 -3.665,-0.511 -5.292,-1.6 -2.171,-1.449 -3.551,-3.638 -4.029,-6.009 -1.869,0.156 -3.801,-0.29 -5.482,-1.414 -2.216,-1.479 -3.521,-3.809 -3.775,-6.266 -1.921,0.368 -3.982,0.013 -5.735,-1.159 -2.305,-1.54 -3.504,-4.105 -3.414,-6.684 -1.965,0.706 -4.226,0.51 -6.096,-0.74 -2.531,-1.69 -3.565,-4.78 -2.764,-7.555 -1.95,1.402 -4.633,1.545 -6.749,0.133 -2.722,-1.818 -3.452,-5.502 -1.634,-8.226 1.818,-2.723 5.501,-3.454 8.224,-1.635 2.115,1.413 3.01,3.946 2.46,6.284 2.257,-1.801 5.507,-2.029 8.04,-0.339 1.869,1.249 2.916,3.264 3.014,5.351 2.348,-1.071 5.179,-0.945 7.482,0.595 1.755,1.172 2.872,2.94 3.265,4.856 2.369,-0.705 5.019,-0.391 7.235,1.089 1.679,1.123 2.832,2.737 3.404,4.524 2.373,-0.464 4.922,-0.03 7.092,1.42 1.629,1.089 2.81,2.594 3.503,4.278 2.373,-0.285 4.855,0.237 6.998,1.669 1.586,1.058 2.774,2.481 3.553,4.079 2.374,-0.146 4.813,0.442 6.946,1.866 1.543,1.031 2.741,2.382 3.582,3.901 2.378,-0.033 4.79,0.624 6.916,2.045 1.512,1.01 2.713,2.306 3.602,3.761 2.38,0.062 4.771,0.762 6.897,2.182 1.483,0.991 2.695,2.235 3.623,3.636 2.379,0.145 4.752,0.889 6.876,2.308 1.447,0.968 2.641,2.168 3.594,3.507 2.391,0.214 4.765,1.012 6.901,2.439 6.807,4.548 8.639,13.753 4.091,20.56 -4.55,6.807 -13.753,8.638 -20.562,4.089 -2.135,-1.428 -3.78,-3.315 -4.894,-5.443 M 366.574,320.434 c 0.737,-1.777 2.775,-2.623 4.552,-1.886 1.779,0.737 2.621,2.776 1.886,4.553 -0.738,1.777 -2.776,2.621 -4.551,1.886 -1.779,-0.737 -2.623,-2.776 -1.887,-4.553 m 10.239,4.241 c 0.937,-2.265 3.531,-3.337 5.794,-2.4 2.262,0.938 3.335,3.531 2.399,5.794 -0.938,2.261 -3.532,3.336 -5.793,2.4 -2.263,-0.938 -3.337,-3.531 -2.4,-5.794 m -29.859,-10.654 c -0.807,-0.334 -1.191,-1.26 -0.856,-2.067 0.334,-0.808 1.259,-1.194 2.068,-0.859 0.808,0.335 1.192,1.26 0.857,2.068 -0.334,0.808 -1.26,1.193 -2.069,0.858 M 394.086,326 c 2.747,1.14 4.052,4.29 2.915,7.035 -1.137,2.747 -4.29,4.054 -7.037,2.915 -2.747,-1.137 -4.051,-4.285 -2.914,-7.035 1.138,-2.747 4.289,-4.051 7.036,-2.915 m -36.378,-6.498 c -1.294,-0.534 -1.907,-2.018 -1.372,-3.31 0.536,-1.293 2.018,-1.906 3.31,-1.372 1.294,0.538 1.91,2.019 1.374,3.31 -0.538,1.297 -2.02,1.91 -3.312,1.372 m 144.528,72.363 c -1.59,-0.102 -3.19,-0.448 -4.746,-1.093 -2.399,-0.994 -4.4,-2.546 -5.918,-4.441 -1.616,-0.058 -3.251,-0.384 -4.833,-1.039 -2.385,-0.989 -4.338,-2.571 -5.785,-4.495 -1.657,10e-4 -3.343,-0.313 -4.97,-0.987 -2.384,-0.989 -4.309,-2.613 -5.681,-4.588 -1.687,0.068 -3.41,-0.209 -5.072,-0.896 -2.384,-0.987 -4.273,-2.657 -5.554,-4.684 -1.718,0.15 -3.494,-0.092 -5.198,-0.798 -2.391,-0.99 -4.246,-2.727 -5.419,-4.826 -1.747,0.256 -3.581,0.069 -5.331,-0.656 -2.412,-0.997 -4.22,-2.822 -5.26,-5.004 -1.777,0.393 -3.686,0.269 -5.494,-0.479 -2.445,-1.012 -4.21,-2.962 -5.074,-5.257 -1.796,0.58 -3.799,0.554 -5.679,-0.225 -2.515,-1.041 -4.229,-3.188 -4.836,-5.643 -1.797,0.856 -3.931,0.984 -5.915,0.163 -2.666,-1.106 -4.321,-3.613 -4.478,-6.314 -1.736,1.329 -4.11,1.726 -6.275,0.831 -3.233,-1.339 -4.766,-5.046 -3.43,-8.278 1.34,-3.231 5.047,-4.766 8.277,-3.427 2.165,0.897 3.564,2.855 3.852,5.021 2.02,-1.798 4.963,-2.401 7.628,-1.294 1.984,0.821 3.403,2.42 4.069,4.295 2.165,-1.306 4.897,-1.611 7.41,-0.571 1.881,0.78 3.316,2.178 4.175,3.859 2.233,-1.014 4.862,-1.144 7.305,-0.131 1.808,0.75 3.245,2.012 4.224,3.547 2.277,-0.809 4.847,-0.819 7.255,0.178 1.75,0.726 3.181,1.891 4.237,3.308 2.311,-0.652 4.85,-0.57 7.242,0.419 1.703,0.706 3.132,1.792 4.24,3.113 2.339,-0.527 4.857,-0.372 7.239,0.615 1.661,0.688 3.078,1.712 4.221,2.951 2.365,-0.427 4.874,-0.214 7.26,0.774 1.626,0.674 3.04,1.643 4.211,2.814 2.385,-0.336 4.884,-0.075 7.269,0.914 1.585,0.656 2.97,1.582 4.155,2.685 2.413,-0.268 4.924,0.048 7.325,1.044 1.556,0.643 2.931,1.529 4.129,2.582 2.431,-0.202 4.943,0.144 7.352,1.142 8.08,3.347 11.918,12.61 8.57,20.691 -3.347,8.082 -12.61,11.918 -20.691,8.572 -2.408,-0.998 -4.429,-2.531 -6.006,-4.392 M 384.782,315.199 c -2.555,-0.507 -4.215,-2.992 -3.708,-5.548 0.511,-2.557 2.993,-4.216 5.55,-3.708 2.553,0.509 4.215,2.993 3.705,5.549 -0.508,2.555 -2.992,4.215 -5.547,3.707 m 139.243,40.067 c -2.594,-0.516 -4.917,-1.616 -6.888,-3.116 -1.536,0.158 -3.121,0.094 -4.716,-0.222 -2.587,-0.515 -4.893,-1.641 -6.817,-3.187 -1.553,0.201 -3.163,0.169 -4.786,-0.154 -2.576,-0.511 -4.858,-1.668 -6.722,-3.26 -1.578,0.254 -3.224,0.253 -4.883,-0.077 -2.557,-0.509 -4.797,-1.705 -6.593,-3.343 -1.606,0.322 -3.303,0.343 -5.011,0.003 -2.558,-0.509 -4.781,-1.752 -6.505,-3.46 -1.623,0.397 -3.351,0.467 -5.098,0.12 -2.554,-0.507 -4.739,-1.813 -6.374,-3.595 -1.642,0.499 -3.428,0.615 -5.229,0.257 -2.568,-0.511 -4.739,-1.896 -6.267,-3.782 -1.649,0.62 -3.482,0.813 -5.337,0.444 -2.592,-0.516 -4.735,-2.017 -6.127,-4.033 -1.648,0.787 -3.549,1.076 -5.477,0.692 -2.643,-0.526 -4.768,-2.191 -5.971,-4.383 -1.619,1.017 -3.61,1.448 -5.631,1.046 -2.757,-0.549 -4.871,-2.5 -5.768,-4.962 -1.528,1.382 -3.662,2.055 -5.837,1.622 -3.119,-0.621 -5.298,-3.304 -5.413,-6.351 -1.139,2.219 -3.624,3.524 -6.19,3.014 -3.103,-0.62 -5.118,-3.633 -4.501,-6.739 0.617,-3.101 3.635,-5.116 6.737,-4.499 2.565,0.511 4.361,2.666 4.566,5.148 1.273,-2.769 4.311,-4.414 7.433,-3.795 2.175,0.433 3.888,1.873 4.771,3.734 1.769,-1.931 4.468,-2.924 7.224,-2.376 2.024,0.402 3.698,1.561 4.805,3.119 1.949,-1.565 4.549,-2.291 7.194,-1.765 1.929,0.384 3.574,1.379 4.795,2.737 2.058,-1.329 4.611,-1.895 7.203,-1.38 1.855,0.369 3.474,1.248 4.76,2.452 2.135,-1.158 4.669,-1.607 7.237,-1.095 1.801,0.358 3.407,1.147 4.734,2.237 2.191,-1.022 4.712,-1.391 7.264,-0.882 1.748,0.347 3.319,1.074 4.666,2.064 2.247,-0.92 4.777,-1.217 7.335,-0.708 1.707,0.339 3.265,1.007 4.625,1.919 2.288,-0.826 4.814,-1.074 7.372,-0.564 1.662,0.33 3.181,0.958 4.542,1.796 2.332,-0.756 4.88,-0.952 7.456,-0.44 1.622,0.323 3.122,0.91 4.482,1.69 2.368,-0.692 4.93,-0.85 7.518,-0.336 1.593,0.318 3.084,0.866 4.442,1.6 2.396,-0.629 4.961,-0.757 7.554,-0.241 9.128,1.815 15.054,10.686 13.239,19.813 -1.815,9.126 -10.686,15.054 -19.813,13.238 M 374.626,304.59 c 2.008,0.399 3.311,2.349 2.912,4.358 -0.399,2.007 -2.351,3.311 -4.359,2.912 -2.009,-0.401 -3.312,-2.35 -2.913,-4.36 0.399,-2.006 2.352,-3.31 4.36,-2.91 m -25.98,-1.391 c 0.183,-0.91 1.071,-1.503 1.983,-1.321 0.913,0.182 1.503,1.069 1.323,1.979 -0.18,0.914 -1.067,1.509 -1.98,1.325 -0.913,-0.182 -1.506,-1.069 -1.326,-1.983 m 13.981,0.032 c 1.459,0.291 2.408,1.711 2.117,3.17 -0.289,1.463 -1.709,2.41 -3.17,2.121 -1.458,-0.292 -2.408,-1.708 -2.117,-3.171 0.289,-1.461 1.709,-2.41 3.17,-2.12 m 16.632,-9.09 c 0,2.191 -1.778,3.97 -3.971,3.968 -2.192,0.002 -3.97,-1.777 -3.97,-3.968 0,-2.192 1.778,-3.973 3.97,-3.969 2.193,-0.004 3.971,1.777 3.971,3.969 m -16.003,2.887 c -1.595,0.003 -2.888,-1.294 -2.888,-2.887 -10e-4,-1.596 1.292,-2.888 2.888,-2.891 1.595,0.003 2.888,1.298 2.89,2.891 -0.002,1.593 -1.295,2.887 -2.89,2.887 m 29.119,-2.887 c -0.002,2.791 -2.264,5.051 -5.053,5.051 -2.794,0 -5.056,-2.26 -5.056,-5.051 0.002,-2.791 2.262,-5.054 5.056,-5.054 2.792,0 5.053,2.263 5.053,5.054 m -42.955,0 c 0,-0.997 0.808,-1.807 1.804,-1.807 0.998,0 1.804,0.809 1.804,1.807 0,0.998 -0.806,1.804 -1.804,1.802 -0.996,0 -1.804,-0.807 -1.804,-1.802 m 182.285,18.047 c -2.716,0 -5.281,-0.617 -7.591,-1.691 -1.418,0.384 -2.9,0.607 -4.438,0.607 -2.69,0.001 -5.222,-0.641 -7.481,-1.753 -1.442,0.431 -2.969,0.67 -4.552,0.67 -2.673,0 -5.188,-0.667 -7.398,-1.833 -1.459,0.482 -3.015,0.752 -4.636,0.752 -2.657,0 -5.145,-0.711 -7.301,-1.939 -1.477,0.544 -3.066,0.857 -4.731,0.857 -2.639,-10e-4 -5.095,-0.76 -7.186,-2.052 -1.493,0.622 -3.128,0.968 -4.845,0.968 -2.64,0 -5.088,-0.812 -7.115,-2.195 -1.493,0.706 -3.157,1.111 -4.918,1.111 -2.634,0.002 -5.053,-0.89 -6.996,-2.374 -1.495,0.822 -3.208,1.292 -5.035,1.293 -2.648,-0.002 -5.061,-0.993 -6.904,-2.613 -1.474,0.964 -3.235,1.531 -5.128,1.531 -2.684,0 -5.099,-1.133 -6.809,-2.939 -1.428,1.158 -3.245,1.853 -5.223,1.853 -2.765,0 -5.206,-1.354 -6.714,-3.43 -1.319,1.44 -3.212,2.35 -5.32,2.35 -2.962,0 -5.503,-1.786 -6.614,-4.338 -1.035,1.936 -3.071,3.254 -5.416,3.254 -3.389,0 -6.139,-2.748 -6.138,-6.136 -0.001,-3.391 2.749,-6.137 6.136,-6.137 2.346,0 4.383,1.318 5.418,3.254 1.112,-2.553 3.653,-4.336 6.614,-4.336 2.107,0 4,0.908 5.319,2.348 1.509,-2.076 3.95,-3.43 6.715,-3.43 1.979,0 3.797,0.695 5.225,1.852 1.711,-1.805 4.125,-2.937 6.807,-2.937 1.893,0 3.653,0.565 5.127,1.53 1.843,-1.621 4.256,-2.613 6.905,-2.613 1.827,0 3.541,0.471 5.037,1.293 1.942,-1.485 4.361,-2.377 6.994,-2.378 1.762,0.001 3.426,0.407 4.92,1.114 2.026,-1.383 4.474,-2.193 7.113,-2.191 1.715,0 3.35,0.345 4.841,0.965 2.093,-1.293 4.551,-2.051 7.19,-2.051 1.665,0 3.253,0.31 4.73,0.853 2.156,-1.226 4.644,-1.936 7.302,-1.936 1.62,0 3.174,0.269 4.632,0.75 2.211,-1.167 4.728,-1.835 7.402,-1.835 1.585,0 3.114,0.239 4.558,0.672 2.257,-1.111 4.788,-1.751 7.475,-1.751 1.538,-0.001 3.021,0.222 4.438,0.606 2.31,-1.074 4.875,-1.691 7.591,-1.691 9.967,0 18.049,8.082 18.049,18.049 0,9.966 -8.082,18.047 -18.049,18.047"
           style="fill:#231f20;fill-opacity:1;fill-rule:nonzero;stroke:none"
           id="path10696"
           inkscape:connector-curvature="0" /></g></g></g></svg>