<?xml version="1.0" encoding="utf-8"?>
<svg version="1.1" id="Layer_1" xmlns="http://www.w3.org/2000/svg" xmlns:xlink="http://www.w3.org/1999/xlink" x="0px" y="0px"
	 viewBox="0 0 1536.104 1655.915" enable-background="new 0 0 1536.104 1655.915" xml:space="preserve">
<g>
	<g>
		<path d="M774.787,816.949l-0.57-0.329c8.686-15.013-21.02-15.016-12.332,0l-0.57,0.329c-8.62-14.898-23.59,10.678-6.166,10.678
			v0.66c-17.424,0-2.454,25.576,6.166,10.678l0.57,0.329c-8.686,15.013,21.02,15.016,12.332,0l0.57-0.329
			c8.62,14.898,23.59-10.678,6.166-10.678v-0.66C798.377,827.628,783.407,802.051,774.787,816.949z M777.794,828.207
			c13.158,0,1.853,19.313-4.656,8.064l-0.43,0.248c6.561,11.339-15.871,11.337-9.312,0l-0.43-0.248
			c-6.509,11.25-17.813-8.064-4.656-8.064v-0.498c-13.158,0-1.853-19.313,4.656-8.064l0.43-0.248
			c-6.561-11.339,15.871-11.336,9.312,0l0.43,0.248c6.509-11.25,17.813,8.064,4.656,8.064V828.207z"/>
	</g>
	<g>
		<path d="M777.674,812.231l-0.814-0.47c12.409-21.447-30.029-21.452-17.617,0l-0.814,0.47c-12.314-21.282-33.7,15.255-8.808,15.255
			v0.943c-24.892,0-3.506,36.538,8.808,15.255l0.814,0.47c-12.409,21.447,30.029,21.452,17.616,0l0.814-0.47
			c12.314,21.282,33.7-15.255,8.808-15.255v-0.943C811.373,827.486,789.988,790.949,777.674,812.231z M781.969,828.313
			c18.797,0,2.647,27.59-6.651,11.519l-0.615,0.355c9.373,16.199-22.673,16.195-13.303,0l-0.615-0.355
			c-9.299,16.071-25.448-11.519-6.651-11.519v-0.712c-18.797,0-2.647-27.59,6.651-11.519l0.615-0.355
			c-9.373-16.199,22.673-16.195,13.303,0l0.615,0.355c9.299-16.071,25.448,11.519,6.651,11.519V828.313z"/>
	</g>
	<g>
		<path d="M781.797,805.492l-1.163-0.671c17.727-30.638-42.898-30.645-25.166,0l-1.163,0.671
			c-17.591-30.403-48.143,21.793-12.583,21.793v1.346c-35.559,0-5.008,52.197,12.583,21.793l1.163,0.671
			c-17.727,30.638,42.898,30.645,25.166,0l1.163-0.671c17.591,30.403,48.143-21.793,12.583-21.793v-1.346
			C829.94,827.284,799.389,775.088,781.797,805.492z M787.933,828.466c26.852,0,3.782,39.415-9.502,16.456l-0.878,0.507
			c13.39,23.141-32.39,23.136-19.004,0l-0.878-0.507c-13.284,22.959-36.354-16.456-9.502-16.456v-1.017
			c-26.852,0-3.782-39.415,9.502-16.456l0.878-0.507c-13.39-23.141,32.39-23.136,19.004,0l0.878,0.507
			c13.284-22.959,36.354,16.456,9.502,16.456V828.466z"/>
	</g>
	<g>
		<path d="M787.688,795.863l-1.661-0.959c25.325-43.769-61.283-43.779-35.952,0l-1.661,0.959
			c-25.13-43.433-68.776,31.133-17.976,31.133v1.923c-50.799,0-7.155,74.567,17.976,31.133l1.661,0.959
			c-25.325,43.769,61.283,43.779,35.952,0l1.661-0.959c25.13,43.433,68.776-31.133,17.976-31.133v-1.923
			C856.464,826.996,812.819,752.429,787.688,795.863z M796.454,828.684c38.361,0,5.402,56.307-13.574,23.509l-1.254,0.724
			c19.128,33.059-46.272,33.051-27.148,0l-1.254-0.724c-18.977,32.798-51.934-23.509-13.574-23.509v-1.452
			c-38.361,0-5.402-56.307,13.574-23.509l1.254-0.724c-19.128-33.059,46.272-33.051,27.148,0l1.254,0.724
			c18.977-32.798,51.934,23.509,13.574,23.509V828.684z"/>
	</g>
	<g>
		<path d="M796.104,782.109l-2.372-1.37c36.178-62.526-87.547-62.542-51.36,0l-2.372,1.37c-35.9-62.047-98.251,44.475-25.68,44.475
			v2.748c-72.57,0-10.221,106.524,25.68,44.475l2.373,1.37c-36.178,62.527,87.547,62.542,51.36,0l2.372-1.37
			c35.9,62.047,98.251-44.475,25.68-44.475v-2.748C894.354,826.584,832.005,720.06,796.104,782.109z M808.627,828.995
			c54.801,0,7.718,80.438-19.392,33.584l-1.792,1.034c27.326,47.227-66.103,47.216-38.783,0l-1.792-1.034
			c-27.11,46.855-74.192-33.584-19.392-33.584v-2.075c-54.801,0-7.718-80.438,19.392-33.584l1.792-1.034
			c-27.326-47.227,66.103-47.216,38.783,0l1.792,1.034c27.11-46.855,74.192,33.584,19.392,33.584V828.995z"/>
	</g>
	<g>
		<path d="M808.127,762.459l-3.389-1.957c51.683-89.324-125.067-89.345-73.371,0l-3.389,1.957
			c-51.286-88.639-140.359,63.536-36.686,63.536v3.925c-103.672,0-14.602,152.177,36.686,63.536l3.389,1.957
			c-51.683,89.324,125.067,89.345,73.371,0l3.389-1.957c51.286,88.639,140.359-63.536,36.686-63.536v-3.925
			C948.484,825.995,859.414,673.818,808.127,762.459z M826.016,829.44c78.287,0,11.025,114.912-27.702,47.978l-2.559,1.478
			c39.037,67.467-94.432,67.451-55.405,0l-2.559-1.478c-38.729,66.936-105.988-47.978-27.703-47.978v-2.964
			c-78.287,0-11.025-114.912,27.703-47.978l2.559-1.478c-39.037-67.467,94.432-67.451,55.405,0l2.559,1.478
			c38.729-66.936,105.988,47.978,27.702,47.978V829.44z"/>
	</g>
	<g>
		<path d="M825.302,734.388l-4.842-2.796c73.833-127.605-178.667-127.636-104.816,0l-4.842,2.796
			c-73.266-126.627-200.513,90.765-52.408,90.765v5.608c-148.102,0-20.859,217.395,52.408,90.765l4.842,2.795
			c-73.833,127.605,178.667,127.636,104.816,0l4.842-2.795c73.266,126.627,200.513-90.765,52.408-90.765v-5.608
			C1025.812,825.154,898.569,607.758,825.302,734.388z M850.858,830.075c111.838,0,15.75,164.16-39.575,68.54l-3.656,2.111
			c55.767,96.382-134.903,96.359-79.15,0l-3.656-2.111c-55.326,95.622-151.412-68.54-39.575-68.54v-4.235
			c-111.838,0-15.75-164.16,39.575-68.54l3.656-2.111c-55.767-96.382,134.903-96.359,79.15,0l3.656,2.111
			c55.326-95.622,151.412,68.54,39.575,68.54V830.075z"/>
	</g>
	<g>
		<path d="M849.838,694.287l-6.917-3.994c105.475-182.293-255.238-182.337-149.738,0l-6.917,3.994
			C581.6,513.391,399.819,823.952,611.397,823.952v8.011c-211.575,0-29.799,310.565,74.869,129.665l6.917,3.994
			c-105.475,182.293,255.238,182.337,149.738,0l6.917-3.994c104.666,180.896,286.447-129.665,74.869-129.665v-8.011
			C1136.281,823.952,954.506,513.387,849.838,694.287z M886.347,830.982c159.769,0,22.5,234.514-56.536,97.914l-5.223,3.016
			c79.667,137.688-192.719,137.655-113.071,0l-5.223-3.016c-79.038,136.603-216.302-97.914-56.536-97.914v-6.049
			c-159.769,0-22.5-234.514,56.536-97.914l5.223-3.016c-79.667-137.688,192.719-137.655,113.071,0l5.223,3.016
			c79.038-136.603,216.302,97.914,56.536,97.914V830.982z"/>
	</g>
	<g>
		<path d="M884.889,637l-9.881-5.705c150.679-260.418-364.626-260.482-213.911,0L651.215,637
			C501.693,378.577,242.005,822.236,544.26,822.236v11.444c-302.25,0-42.57,443.664,106.955,185.235l9.881,5.705
			c-150.679,260.419,364.626,260.482,213.911,0l9.881-5.705c149.523,258.423,409.21-185.235,106.955-185.235v-11.444
			C1294.094,822.236,1034.414,378.571,884.889,637z M937.044,832.279c228.242,0,32.144,335.02-80.765,139.877l-7.462,4.308
			c113.81,196.698-275.313,196.65-161.53,0l-7.462-4.308c-112.911,195.147-309.003-139.877-80.765-139.877v-8.642
			c-228.242,0-32.143-335.02,80.765-139.877l7.462-4.308c-113.81-196.698,275.313-196.65,161.53,0l7.462,4.308
			c112.911-195.147,309.003,139.877,80.765,139.877V832.279z"/>
	</g>
	<g>
		<path d="M934.962,555.161l-14.116-8.15c215.256-372.026-520.895-372.117-305.587,0l-14.116,8.15
			C387.539,185.986,16.556,819.783,448.349,819.783v16.349c-431.785,0-60.815,633.805,152.793,264.622l14.116,8.15
			c-215.256,372.027,520.894,372.116,305.587,0l14.116-8.15c213.604,369.175,584.585-264.622,152.793-264.622v-16.349
			C1519.54,819.783,1148.57,185.977,934.962,555.161z M1009.47,834.13c326.059,0,45.919,478.6-115.379,199.824l-10.66,6.154
			c162.585,280.997-393.304,280.929-230.758,0l-10.66-6.154C480.712,1312.737,200.581,834.13,526.635,834.13v-12.346
			c-326.059,0-45.919-478.6,115.379-199.824l10.66-6.154c-162.586-280.997,393.304-280.929,230.758,0l10.66,6.154
			c161.302-278.782,441.433,199.824,115.379,199.824V834.13z"/>
	</g>
	<g>
		<path d="M1006.495,438.248l-20.166-11.643c307.508-531.466-744.135-531.595-436.553,0l-20.166,11.643
			C224.462-89.145-305.513,816.28,311.333,816.28v23.356c-616.836,0-86.878,905.436,218.276,378.031l20.166,11.643
			c-307.508,531.467,744.135,531.595,436.553,0l20.166-11.643c305.148,527.393,835.122-378.031,218.276-378.031V816.28
			C1841.607,816.28,1311.649-89.157,1006.495,438.248z M1112.935,836.776c465.799,0,65.599,683.714-164.827,285.463l-15.228,8.792
			c232.265,401.424-561.863,401.327-329.654,0l-15.228-8.792c-230.431,398.26-630.619-285.463-164.827-285.463v-17.637
			c-465.799,0-65.599-683.714,164.827-285.463l15.228-8.792c-232.265-401.424,561.863-401.327,329.654,0l15.228,8.792
			c230.431-398.26,630.619,285.463,164.827,285.463V836.776z"/>
	</g>
</g>
</svg>
