<?xml version="1.0" encoding="utf-8"?>

<!DOCTYPE svg PUBLIC "-//W3C//DTD SVG 1.1//EN" "http://www.w3.org/Graphics/SVG/1.1/DTD/svg11.dtd">
<svg version="1.1" id="Layer_1" xmlns="http://www.w3.org/2000/svg" xmlns:xlink="http://www.w3.org/1999/xlink" x="0px" y="0px"
	 viewBox="-123.9178 -137.9259 1972.8356 2195.8518" enable-background="new -123.9178 -137.9259 1972.8356 2195.8518"
	 xml:space="preserve">
<path d="M1602.61,0h3.49c5.89,1.08,10.62,5.1,14.85,9.1c6.53,6.48,11.87,14.02,17.6901,21.11c11.45,13.68,19.01,30.86,20.11,48.75
	c1.84,25.01-6.9301,49.45-5.14,74.46c8.79-4.49,18.66-7.16,26.38-13.54c1.65-1.54,3.87-3.29,3.46-5.84
	c-0.3999-4.49-2.34-8.63-3.6799-12.89c5.52-1.26,9.37,3.86,14.26,5.32c5.4099-0.63,10.28-4.17,15.85-3.71
	c2.46,0.82,3.4399,3.65,4.86,5.63c5.8201,9.78,9.74,20.84,10.26,32.28v5.18c-0.59,8.19-3.92,15.74-6.89,23.27
	c-16.4299,40.91-41.0499,78.16-54.9399,120.15c-12.8201,37.03-17.9,76.78-13.88,115.8c1.0699,11.05,2.83,22.02,5.0499,32.9
	c2.7201,13.7-0.58,27.94,3.11,41.51c1.13,4.28,1.9,8.84,4.5701,12.51c2.63,3.58,5.66,6.84,8.34,10.39
	c-6.52-2.07-13.04-4.31-19.87-5.08c-0.86,5.57,2.52,10.49,5.13,15.11c2.96,4.3,5.63,9.98,11.4301,10.77
	c-1.0701,0.36-2.12,0.73-3.14,1.11c-5.17-1.81-10.4501-3.27-15.6901-4.82c1.03,11.72,7.17,21.97,14.47,30.88
	c-4.8999,0.25-9.7899,1.03-14.6899,0.6801c-3.3199-0.25-6.27-1.88-9.1-3.46c1.36,5.08,3.0499,10.16,5.96,14.6
	c1.12,2.06,3.14,3.98,2.6901,6.55c-5.0601-2.27-9.89-5.05-14.3101-8.39c2.78,8.73,4.2,18.58,10.89,25.39
	c-5.29,1.22-10.14-2.41-15.03-3.8799c0.97,3.64,1.98,7.28,3.17,10.8799c-1.97-0.72-3.91-2.11-6.0801-1.53
	c-1.6799,2.17-1.2799,5.05-1.12,7.61c1.78,18.14-0.1499,36.42-3.21,54.31c-1.6899,9.41-3.85,18.77-7.0599,27.79
	c-0.5601,1.78-1.5901,3.35-2.9401,4.63c-0.52-3.1201-1.0599-6.25-2.3099-9.16c0.5399,9.57-0.7201,19.23-3.89,28.28
	c-0.8201,2.25-2.3101,4.14-3.75,6.0099c0.0499-4.97-0.0701-9.96-1.0601-14.85c-0.9399,16.12-8.9299,30.58-17.15,44.06
	c-3.25,5.31-7.0299,10.28-10.23,15.62c-3.72,8.18-3.26,17.47-2.21,26.19c-1.05-0.92-2.3-1.66-2.72-3.04
	c-1.86-4.52-3.12-9.24-4.75-13.83c-0.92,8.07-0.74,16.25,0.35,24.3c-5-1.57-5.9-7.18-7.48-11.44
	c-1.7101,24.08-3.67,48.16-3.8301,72.3c0.3,6.9301,0.29,14,2.41,20.67c0.53,1.71,1.1,4.2-1.12,4.95c-4.46-2.79-6.97-7.63-9.86-11.84
	c-3.0701-4.88-5.9-9.9-8.91-14.8c2.63,12.11,4.13,25.15,11.42,35.56c-1.91,2.09-4.77,2.57-7.16,0.98
	c-8.6799-4.94-15.38-12.55-22.29-19.61c3.16,7.5,7.26,14.79,8.37,22.98c0.67,3.96,0.39,7.98,0.0901,11.97
	c-3.9601-4.06-7.8201-8.21-11.75-12.29c3.25,9.2,6.7999,18.29,10.0399,27.4901c-5.4299-0.1-10.2699-2.7-15.1399-4.76
	c2.2899,7.21,6.0199,13.83,9.5199,20.5c-7.0399-3.98-15.36-4.28-23.13-2.71c5.5601,2.32,11.8201,4.07,15.92,8.8
	c1.46,1.6,1.26,3.9,1.58,5.92c-7.3899-2.05-15.73-1.28-22.3899,2.59c-4.76,2.96-4.66,9.3-3.76,14.17
	c2.34,11.46,7.6599,22.04,13.34,32.18c-6.34-1.46-12.64-3.0699-18.76-5.27c5.4301,10.34,12.76,20.04,22.5,26.68
	c-7.25,3.99-15.92,2.96-23.84,4.21c1.26,3.74,2.38,7.66,4.7899,10.87c2.0701,2.7001,5.3201,4.02,8.2001,5.6801
	c-7.3101,7.61-18.39,9.2-28.4401,9.0599c6.26,6.04,15.79,11.3601,24.52,7.51c0.42,0.65,1.25,1.9601,1.67,2.61
	c-1.91,1.8401-4.1,3.4401-6.7001,4.1001c-11.97,3.7999-24.5299,5.49-37.0399,6.14c2.4099,1.8999,4.86,3.7999,7.6699,5.11
	c3.9601,2,8.5601,2.25,12.4501,4.46c-1.73,1.7-3.65,3.23-5.9501,4.05c-11.6,4.5599-23.7899,7.37-35.97,9.88
	c6.71,1.2899,13.75,2.8199,19.03,7.48c0.0699,0.95,0.21,2.85,0.28,3.7999c-0.54-0.62-1.63-1.87-2.1801-2.49
	c-11.34,3.0801-22.83,6.77-32.64,13.4c11.61,1.33,23.42,3.76,33.5701,9.84c5.8999,3.39,10.76,8.24,15.4199,13.14
	c-18.27-5.24-37.4199-5.21-56.24-4.45c5.79,5.33,13.01,9.45,17.3201,16.1899c-12.9301-3.5399-26.26-5.14-39.4701-7.23
	c-0.2999,33.84,4.4301,67.87-0.5599,101.55c-2.41,11.13-2.78,22.5399-4.01,33.83c-4.3,49.67-7.5699,99.46-8.36,149.33
	c-0.39,31.9501-0.03,63.99,3.41,95.79c1.6499,16.87,5.6899,33.4,10.86,49.52c10.02,30.9399,22.13,61.1799,35.33,90.89
	c18.14-3,37.84-2.64,54.24,6.58c15.24,8.85,28.61,21.8301,35.84,38.09c4.3601,9.52,5.4701,20.2001,4.24,30.54
	c-2.8099-3.03-5.61-6.04-8.4199-9.0499c-8.3301,6.4299-17.63,11.96-27.9301,14.5c-4.49,1.34-9.45,0.6699-13.7,2.83
	c-6.72,3.22-13.6901,6.25-21.13,7.25c-5.01,0.72-10.01-0.6-15.02-0.36c-12.35,0.34-25.04-0.5601-36.6-5.23
	c-8.2001-3.3301-15.8-9.1001-19.61-17.27c-2.75-7.0701-8.26-12.4601-12.48-18.63c-28.12-38.4601-53.4-79.37-71.25-123.67
	c-3.3-1.25-6.54-2.87-10.0801-3.2c-3.3099-0.3201-5.9099,2.0599-8.4199,3.8099c0.84-6.4099,1.2799-12.86,2.11-19.26
	c-4.36-1.7-8.23,1.2101-11.42,3.8401c-1.29,0.74-2.4399,2.5-4.09,1.7899c2.2999-6.86,6.14-13.08,8.86-19.77
	c-8.9401,0.41-14.12,8.6001-19.6901,14.4501c0.42-11.64-0.4199-24.8,7.67-34.26c-2.46,0.6-5.2,0.6801-7.25,2.3099
	c-2.11,1.79-3.39,4.4901-5.98,5.7001c1.33-9.6801,2.28-20.22,8.73-28.0701c-7.5,0.62-13.08,5.8501-18.35,10.65
	c0.73-9.5599,2.59-19.22,7.41-27.62c-1.7201-0.23-3.62-1.3099-5.2101-0.1799c-2.6799,1.7699-4.09,4.8099-5.9,7.36
	c0.2101-14.67,1.4701-29.3301,0.9901-43.99c-2.77,22.5699-7.5801,44.86-9.92,67.5c-2.36,22.24-4.09,44.97,0.46,67.0599
	c3.9401,20.01,10.5801,39.36,16.1,58.97c7.3401-4.13,15.39-7.58,23.9601-7.62c9.9-0.21,19.27,4.42,26.6,10.8101
	c12.29,10.76,20.84,24.87,29.78,38.35c3.76,5.8,7.5299,11.59,11.26,17.41c-3.66-0.52-7.3-1.11-10.9401-1.65
	c-4.95,6.4401-12.45,10.1801-20.0699,12.46c-8.27,2.7101-16.9701,3.52-25.5701,4.4401c-11.72,0.96-23.84,0.71-34.97-3.48
	c-13.12,4.4099-27.41,6.2999-41.05,3.3099c-10.22-2.1899-20.25-6.1799-28.7599-12.2899c-10.2301-11.8-19.3-25.0801-24.01-40.1101
	c-2.49-8.47-3.4601-17.2699-5.0801-25.9199c-7.28-43.4501-16.38-86.65-28.7899-128.9501c-12.1901-42.09-21.04-85.09-28.15-128.3199
	c-0.65-3.16-0.64-6.6-2.3-9.4301c-1.62-2.4399-4.8099-1.46-7.22-1.61c0.65-3.52,3.65-5.5699,5.72-8.2c-0.29-2.67-1.01-5.8-3.63-7.1
	c-2.41-1.17-5.16-1.26-7.73-1.7101c3.15-2.73,7.22-4.6599,9.4-8.33c-2.29-6.04-8.03-11.8-14.98-10.88
	c1.37-1.8101,2.48-3.96,4.5-5.14c2.11-1.11,4.46-1.62,6.74-2.3099c-1.12-1.66-2.0601-3.8-4.2001-4.25
	c-3.34-0.91-6.5499,0.9099-9.62,1.9099c0.9701-7.0699,8-10.74,12.05-16c-1.4301-1.63-2.55-4.14-4.99-4.25
	c-3.42,0.53-5.87,3.29-8.6,5.16c0.1599-8.67,5.74-16.2,12.8999-20.63c-3.59-2.2-7.0299,1.03-10.3099,2.29
	c0.15-8.85,2.35-17.52,5.09-25.88c0.89-2.9301,2.3101-5.6801,4.4301-7.9c0.59-6.39,2.5-12.52,4.4099-18.6
	c-5.5699,7.8099-10.5099,16.23-13.24,25.49c-4.37-0.41-6.4099-4.38-8.23-7.8101c-5.89,7.9301-9.88,17.16-12.23,26.7301
	c-0.45-0.1201-1.35-0.3601-1.8-0.4801c-3.2599-6.5199-4.97-13.64-6.84-20.64c-1.53-6.12-3.02-12.2699-3.7-18.5499
	c-4.41,10.02-8.02,20.36-11.92,30.58c-1.53-1.28-2.82-2.8199-3.28-4.77c-2.51-8.1699-3.94-16.6699-4.23-25.21
	c-4.8,5.29-9.64,11.37-9.52,18.92c-4.18-3.54-8.24-7.54-9.74-12.99c-3.09,8.89-6.22,17.8199-10.32,26.3199
	c-1.24-0.76-2.75-1.28-3.43-2.64c-3.23-5.61-4.69-12-6.3-18.21c-3.59,10.4-8,20.58-13.86,29.91c-2.55,3.9099-5.57,8.76-10.86,8.74
	c-0.34-13.38-3.26-26.5801-6.63-39.48c-5.82,10.22-9.02,21.85-16.09,31.37c-3.45,4.6899-7.85,8.58-12.68,11.7899
	c1.53-4.39,2.9901-9.01,2.31-13.71c-0.9-7.78-4.33-14.9301-7.3199-22.0601c-2.26,13.4-6.85,26.8-16.05,37.0901
	c0.12-12.9-6.54-24.39-13.36-34.8501c-0.74,8.8501-1.95,17.8501-5.41,26.1001c-0.71,2.12-2.5,3.49-4.2401,4.74
	c-2.5-4.6-2.39-9.97-2.8-15.03c-0.45-6.0601-0.37-12.13-0.74-18.1801c-2.86,7.75-4.75,16.0901-9.73,22.8601
	c-2.04,2.8899-4.79,5.1599-7.5,7.3999c-0.92-8.6699-3.54-17.26-8.87-24.2699c-0.93,4.22-1.69,8.47-2.46,12.73
	c-9.14-4.12-10.2-15.14-13.73-23.3201c-3.11,12.36-5.65,25.49-1.67,37.99c-4.59-4.7-9.14-9.52-12.49-15.2
	c-3.49-5.7-5.96-11.9301-8.58-18.05c-2.75,7.3401-6.95,14.3301-13.02,19.38c-2.22,1.9-5.1,2.64-7.83,3.48
	c0.72-8.88-0.81-17.95-4.31-26.13c-1.12-2.86-3.25-5.1-5.52-7.0699c0.04,4.26,0.34,8.6901-1.0699,12.8
	c-1.92,5.86-5.57,10.9099-8.59,16.23c-3.78-12.0801-7.8-24.14-13.03-35.6801c-2.3701-4.72-4.45-9.99-9.05-13
	c-5.85,7.97-5,18.4-7.68,27.5c-0.3,0.26-0.91,0.78-1.21,1.04c-3.41-2.3201-4.96-6.28-6.77-9.8c-5.37-11.26-9.87-22.96-13.29-34.96
	c-3.85,11.78-5.71,24.72-1.76,36.74c-1.63,0.08-2.65-1.11-3.57-2.1799c-4.77-5.91-9.83-11.91-11.85-19.4
	c-1.03,6.1599-1.96,12.34-3.11,18.49c-8.65-6.52-14.9-15.64-18.94-25.61c-1.26,7.4099-2.14,14.8999-3.61,22.2799
	c-1.9-1.1899-2.44-3.37-3.15-5.2999c-2.49-7.2001-4.87-14.5-8.58-21.1801c-2.22-3.9099-5.7401-7.61-10.41-8.2
	c-6.4-0.79-12.21,2.58-17.59,5.5499c7.29,9.05,8.58,21.1101,9.78,32.26c2.25,33.49-1.44,67.16-8.18,99.9601
	c-2.63,13.9099-7.05,27.63-14.73,39.62c-0.97-2.78-1.98-5.53-3.06-8.24c-4.59,10.0699-4.09,21.51-7.55,31.9199
	c-0.79,2.4501-2.36,4.53-3.9,6.5701c-3.12-9.5601-6.78-19.8301-15.36-25.88c3.07,9.96,6.56,20.38,4.57,30.9199
	c-0.89,5.38-3.89,10.0801-7.29,14.2301c-4.19-7.13-6.06-16.1101-13.31-20.9801c1.17,5.7301-0.3,11.4801-2.46,16.79
	c-2.15,5.59-4.85,10.98-8.09,16.03c-1.97-1.92-0.45-4.6801-0.42-6.98c0.5-5.04,1.48-11.67-3.51-14.8401
	c-12.07,17.9801-24.09,36.0701-38.18,52.5601c-14.44,17.0599-31.18,33.24-52.18,41.8199c-17.62,7.6801-32.5,20.41-45.59,34.28
	c-24.24,26.22-42.7,57.54-55.37,90.86c-4.55,12.24-8.28,24.8-10.89,37.6c-2.21,8.4401-0.45,17.2001,0.73,25.67
	c6.08,33.5601,25.33,63.4401,49.3,87.15c8.06,7.87,16.6,15.29,25.93,21.63c19.75-8.53,43.49-9.26,62.91,0.5599
	c12.18,6.14,20.17,17.8101,26.36,29.5601c3.87,7.63,8.79,15.1799,9.28,23.98c0.5,4.88-0.76,9.71-2.67,14.1801
	c-2.98-2.88-5.94-7.15-10.58-6.8301c-4.69,0.91-7.65,5.29-12.14,6.76c-10.52,3.72-21.98,1.9401-32.61-0.2999
	c-3.34-0.5701-6.91-2.6801-10.17-0.77c-6.22,3.02-13.07,4.4199-19.92,4.97h-6.36c-11.52-0.67-22.84-3.0699-34.05-5.66
	c-7.29-1.76-14.82-2.5599-21.86-5.2c-8.08-3-15.56-7.46-22.33-12.76c-25.19-20.49-54.8-34.35-81.71-52.29
	c-3.86-3.08-9.39-5.88-10.15-11.23c-0.01-19.6899-4.66-38.98-9.81-57.86c-3.4-11.7-7.09-23.35-12.05-34.48
	c-3.06,8.46-4.62,17.8199-10.38,25.03c-2.36,3.12-5.91,4.95-9.42,6.5c1.18-5.9301,2.25-12.03,1.15-18.05
	c-0.62-4.42-2.52-8.5-4.52-12.4399c-0.32,17.1399-5.78,33.7599-13.42,48.96c-0.43,0.28-1.29,0.85-1.71,1.14
	c-0.97-10.98-0.86-22.23-4.49-32.77c-2.25-7.4-6.7-13.9-12-19.4501c-1.06,9.8101-7.87,17.63-15.64,23.13
	c0.63-12.2799,1.34-25.24-4.29-36.58c-0.29,10.76-5.29,20.5601-10.33,29.8101c-0.52,1.23-1.65,1.9399-2.77,2.62
	c0.42-6.77,2.52-13.49,1.42-20.3c-0.48-3.79-2.42-7.16-4.47-10.29c-1.05,6.9701-1.98,13.9701-3.51,20.86
	c-0.46,1.7001-0.89,3.6001-2.34,4.79c-2.49,0.6901-3.95-1.75-4.95-3.59c-2.92-5.98-4.07-12.61-5.42-19.0701
	c-1.95-10.6499-3.42-21.47-3.07-32.3099c-9.76,4.04-15.04,14.54-15.58,24.6899c-12.57-7.0599-23.05-17.72-29.66-30.5499
	c-8.95-17.3101-12.4-36.76-15.27-55.84c-3.52-22.9501-5.7-46.4301-14.12-68.25c-1.76,2.6499-3.65,5.33-4.4,8.49
	c-1.46,5.2-0.69,10.6399-0.6,15.96c0.08,4.38-1.04,8.66-2.04,12.9c-8.2-20.9601-7.29-43.9401-5.09-65.92
	c1.4-13.55,3.33-27.03,4.72-40.5699c-1.55,0.3099-3.29,0.5599-4.41,1.84c-6.42,6.3-9.4,15.13-15.08,21.99
	c-1.25,1.66-4.27,2.29-5.3,0.0699c-2.1-4.7899-1.19-10.23-1.03-15.2899c2.06-23.29,7.35-46.12,12.54-68.86
	c3.68-14.03,6.8-28.29,12.5-41.6801c-6.12,2-9.04,8.12-12.04,13.3c-2.92,4.9199-4.67,10.6799-8.93,14.6899
	c-2.71-3.62-2.47-8.28-2.14-12.54c1.28-13.23,4.34-26.21,8.02-38.96c-2.65,3.63-5.15,7.37-7.83,10.99
	c-1.33-13.83,2.09-27.6,8.11-39.99c-4.24,5.55-8.31,11.23-12.53,16.8101c-0.58-8,0.34-16.0901,2.92-23.6801
	c2.84-8.95,7.65-17.0699,11.52-25.58c-2.04,2.03-2.74,6.1699-6.02,6.5399c1.88-6.1499,4.08-12.1899,6.33-18.2
	c-5.36,3.97-10.61,8.09-15.89,12.1901c2.99-12.4801,3.53-25.53,8.03-37.64c2.51-6.9301,6.29-13.3301,10.58-19.3101
	c-9.15-1.3099-14.78,6.9501-19.41,13.4c-4.8-14.22-6.25-29.52-3.86-44.35c4.85-32.4501,21.47-61.3201,31.54-92.1901
	c-9.64,4.74-18.95,11.55-23.38,21.67c-1.86-1.27-3.41-3.1801-2.98-5.58c0.72-9.5801,4.5-18.54,7.76-27.4601
	c4.32-11.01,9.07-21.88,14.84-32.21c-9.71,5.48-20.22,10.73-26.81,20.08c-1.04-1.02-2.06-2.0599-2.69-3.38v-1.5399
	c0.66-6.6001,3.13-12.8301,5.6-18.92c6.55-15.3199,14-30.3101,23.2-44.23c-3.26,0.95-6.62,1.9199-9.34,4.0399
	c-5.2,3.77-8.03,9.6901-10.75,15.3101c-2.24-2.74-1.05-6.53-1.17-9.74c0.73-15.83,7.87-30.68,17.83-42.76
	c-4.23,2.07-8.48,4.08-12.74,6.09c1.2-5.04,2.62-10.05,4.87-14.73c6.72-14.75,18.5-26.24,27.62-39.43c-2.8,0.76-5.62,1.53-8.25,2.79
	c-7.92,3.52-12.61,11.3-19.75,15.96c4.72-14.02,11.32-27.54,20.72-39.03c9.74-12.58,21.93-22.94,34.29-32.83
	c-7.55,2.81-15.11,5.64-22.64,8.52c17.17-22.1201,38.45-41.19,63.19-54.47c-6.1,1.14-12.17,2.43-18.25,3.61
	c6.05-7.02,12.2-13.99,18.98-20.33c15.9-14.96,34.12-27.2401,53.11-37.9c32.53-18.08,67.14-31.97,101.15-46.94
	c-5.12-1.15-10.29-2.09-15.41-3.2c26.73-14.56,56.47-22.8,86.56-26.61c-3.94-2.43-7.91-4.8-11.89-7.14
	c6.37-2.62,13.15-4.49,20.1-4.38c7.78-0.28,15.33,1.76,22.89,3.25c-2.56-3.86-7.09-5.07-11.34-6.03c6.06-3.29,12.47-6.4,19.47-6.81
	c8.15-0.65,15.92,2.41,23.93,3.3c4.32,0.52,8.66-0.15,12.99-0.35c37.38-2.29,74.74-5.03,111.99-8.89
	c85.11-8.94,170.05-24,251.1-52.03c-6.85-4.34-15.24-3.05-22.9-3.68c-0.39-0.34-1.18-1.03-1.5699-1.37
	c13.59-3.18,27.61-6.85,41.65-4.63c-3.72-3.04-8.29-5.36-13.21-5.16c-2.46-0.07-5.11,0.83-7.36-0.54c4.45-3.36,9.27-6.28,14.5-8.25
	c8.86-3.55,18.65-3.33,27.85-1.38c-6.59-4-14.29-5.85-21.98-5.58c-3.17-0.2-6.71,0.87-9.5099-1.11c7.89-2.79,16.06-5.04,24.42-5.71
	c-3.02-1.39-6.02-2.81-9-4.26c17.35-8.46,37.03-8.78,55.9-9.74c12.89-4.26,25.35-9.83,38.25-14.14
	c25.15-9.06,51.41-15.21,78.13-16.96c-9.54-7.0699-21.78-4.05-32.73-4.87c2.03-2.78,5.42-3.86,8.4-5.29
	c19.21-8.69,40.66-8.73,61.14-11.98c-10.62-3.65-22.34-6.58-33.39-3.01c-0.39-2.61,0.84-5,3.18-6.21
	c9.39-5.74,20.25-8.3,30.69-11.43c11.78-3.03,23.62-6.1,35.74-7.44c-6.38-3.5-12.9-7.4-20.29-8.13c-4.61-0.5-9.12,0.77-13.5699,1.73
	c4.65-4.45,9.55-8.79,15.4199-11.57c11.52-5.97,24.8-5.9,37.0601-9.44c-5.86-8.3-15.8-12.51-25.71-13.06
	c-5.79-0.88-11.8401,0.64-17.42-1.38c5.02-2.75,10.66-4,16.13-5.54c15.2-4,30.97-5.11,46.63-5.3c-13.28-8.4-29.55-6.95-44.34-10.17
	c20.21-8.04,41.86-11.86,63.51-13.1c-3.7001-1-7.4301-1.88-11.14-2.77c6.72-2.35,13.36-4.99,20.38-6.33
	c15.61-3.34,31.6899-2.04,47.47-3.87c-7.01-7.97-16.9401-12.97-27.29-14.88c-2.8199-0.58-5.85-0.64-8.3199-2.29
	c4.27-1.35,8.7899-1.39,13.23-1.49c15.36-0.35,30.49,2.76,45.66,4.79c-4.29-4.51-7.8501-10.95-5.78-17.29
	c1.4299-4.42,6.2-5.94,9.59-8.49c6.01-4.57,11.03-10.26,16.01-15.88c12.01-14.04,23.37-28.62,34.88-43.06
	c12.4301-15.17,24.51-30.76,38.97-44.09c5.04-4.41,10.16-9.06,16.55-11.43c1.54-0.72,3.5699-1.1,4.13-2.98
	c10.58-22.49,23.21-44.02,37.66-64.23c18.33-25.23,39.6399-49.01,66.2799-65.68c16.26-10.11,34.7101-17.29,53.9401-18.53
	c5.59-0.32,10.78-2.77,16.36-3.23c9.89-1.35,20.65,0.76,29.79-4.17c7.1599-5.15,12.3899-12.47,17.37-19.63
	c14.5699-21.5,27.47-44.51,46.1599-62.84c5.3401-4.8,8.5701-11.35,13.3401-16.64C1585.27,9.6,1592.61,1.82,1602.61,0z"/>
</svg>
