<?xml version="1.0" encoding="utf-8"?>

<!DOCTYPE svg PUBLIC "-//W3C//DTD SVG 1.1//EN" "http://www.w3.org/Graphics/SVG/1.1/DTD/svg11.dtd">
<svg version="1.1" id="Layer_1" xmlns="http://www.w3.org/2000/svg" xmlns:xlink="http://www.w3.org/1999/xlink" x="0px" y="0px"
	 viewBox="444.0414 -45.5972 1671.9586 1691.1945" enable-background="new 444.0414 -45.5972 1671.9586 1691.1945"
	 xml:space="preserve">
<path d="M2070.6836,63.0765c-6.448-7.3583-20.1396-5.689-28.7465-6.4023c-10.077-0.1333-22.1927-4.0738-31.6591-7.1241
	c-4.8888-1.5753-16.6349-3.1998-18.8849-7.7331c-1.5967-3.2168-1.7323-4.8293-3.6152-7.8495
	c-5.3043-8.5079-16.3206-19.7478-26.5076-21.7798c4.0153,4.6129,9.3969,7.8702,13.7693,12.1518
	c3.1488,3.0833,6.1584,6.3421,8.6442,9.9929c2.9469,4.3282,4.2356,5.9268-1.335,5.8681c1.3138-0.1547,2.4779-0.6404,3.7435-0.8934
	c-5.8722-12.7668-17.4243-18.3195-27.1406-27.3533c-4.3486-5.0185,0.6947-8.5399-7.7383-6.9612
	c-4.9277,0.9225-11.1169,0.3018-14.5846-4.4608c0.2729-0.1773,0.5459-0.3545,0.8188-0.5318c-5.2275,0-10.4551,0-15.6827,0
	c-2.3174,0-4.6348,0-6.9523,0c-1.7131,0-5.0154,3.0877-7.0763,3.7432c-12.2015,3.8808-22.7891,11.2808-33.5376,18.0085
	c-8.269,5.1758-17.9603,12.4594-28.2444,9.1963c-0.6566,3.1288,0.2886,6.1002,2.1223,8.6409
	c1.2579,1.7427,2.8007,3.2533,4.3333,4.7486c-0.5267,2.4823-1.6688,4.7738-2.9298,6.9529
	c-5.1183,8.8446-9.9153,17.6921-13.7794,27.1813c-8.9258,21.9196-15.1869,46.7629-16.2982,70.5191
	c-2.351,50.252,7.0404,100.168,20.0442,148.518c11.226,41.7397,25.9292,82.4833,37.4983,124.0857
	c6.2709,21.6075,12.0006,43.2734,17.5133,65.1088c5.493,21.7576,7.1471,44.1394,9.6061,66.3937
	c2.5968,22.3716-0.7429,47.7336-7.4977,69.0533c-6.2722,19.6092-23.4873,38.141-45.3053,37.7969
	c1.5615,3.9987,5.6084,4.4214,9.2179,5.4492c4.7809,1.3611-3.3552,10.5132-5.1864,12.6013
	c-8.7732,10.0033-20.2805,17.8619-32.735,22.4598c-12.1064,4.4694-25.1969,6.4127-38.074,4.2208
	c-12.8667-3.5467-23.6912-9.8184-34.0552-18.1179c-23.0951-18.4947-43.0079-42.2107-63.9697-63.0414
	c-11.1157-11.0463-22.1233-22.1866-33.9879-32.4297c-8.7781-7.5782-17.4037-17.0924-27.6193-22.6779
	c0.5825,5.4645,6.5381,21.0986-3.4883,11.5284c-8.386-8.02-18.9457-14.6682-29.5282-19.4156
	c-17.3962-7.8041-36.1021-10.3123-54.9625-10.42c-10.7677-0.0615-21.5394-0.0493-32.3013,0.3497
	c-10.0256,0.3718-18.3511-9.6872-27.856-12.6622c-9.0419-2.8301-19.3688-2.5775-28.7378-1.8542
	c-11.9489,0.9225-23.8231-0.5077-35.5981-2.7175c-23.6195-4.4326-43.9005-14.8511-68.623-10.3124
	c-25.02,4.5933-49.328,12.7153-73.7631,19.667c-22.2688,6.3354-44.5503,9.165-67.5114,11.4125
	c-22.5804,2.2104-48.4261,4.4619-70.5056-0.5811c-3.1475-0.7189-6.4087-0.933-9.62-0.5962c1.076,3.9112,4.1776,6.052,6.7002,8.9653
	c-4.397,3.7993-11.4261,2.4057-16.868,2.563c-7.1326,0.2063-14.588,1.7015-20.8652,5.1907
	c-4.7563,2.6438-10.5812,12.7134-15.4952,13.0019c-8.2853,0.4865-14.4368,1.1805-22.3442,4.056
	c-5.9052,2.0894-11.3468,6.2175-16.8508,9.2496c-8.9742,4.9438-17.9625,9.6512-27.9174,12.2759
	c-7.7962,2.0556-16.2532,2.7451-24.3201,2.3152c-8.4062-0.448-16.295-3.2735-24.5959-4.1127
	c-0.7997,3.9559,1.9785,6.4039,3.9244,9.4013c-4.3611,1.5761-7.9415-1.0399-12.3779-1.6125
	c-3.9027-0.5037-7.7913-1.1192-11.6993-1.5235c-11.0334-1.1414-22.3149-1.7467-33.3842-0.8746
	c-7.5976,0.5985-15.4305,1.3103-22.9871,2.3848c-9.6375,1.3704-18.7947,4.871-28.4011,6.1139
	c4.8077,3.9557,14.4219,3.805,15.0366,11.3317c0.4,4.8979-18.0577,11.4365-22.3297,14.1301
	c-15.1287,9.5395-30.0336,21.4515-42.4896,34.2221c-13.431,14.0846-26.0648,28.6818-36.9594,44.87
	c-6.3071,9.3716-12.4233,18.7857-18.1058,28.5634c-4.0659,6.9961-10.7447,14.8797-12.2654,22.9839
	c2.7919-0.3316,12.7238-3.6647,10.0864,2.1833c-2.9191,6.4725-7.4358,11.9022-10.1008,18.6657
	c-6.0577,15.3735-9.0648,32.0392-13.6115,47.9099c-3.6011,12.5699-7.1161,25.7707-13.3962,37.3474
	c-2.6165,4.8234-5.3211,10.0401-8.5643,14.4593c-3.6772,5.0107-8.499,8.9971-11.9735,14.223
	c6.9443,2.486,13.0176,0.3052,19.7386,1.6697c-1.7748,4.3418-5.1671,7.7872-7.838,11.5709
	c5.0305,3.366,10.9994,3.1626,16.7829,3.5045c6.6041,0.3904,5.3005,0.9526,4.9871,6.8328
	c-0.2192,6.9874-1.5184,10.8401-1.8891,17.6994c-0.4202,7.7762-0.0274,15.6058-1.0848,23.3413
	c-1.7712,12.9573-6.1382,25.3391-12.9747,36.4276c-4.1246,6.69-9.5517,12.1736-13.7019,18.8002
	c17.8541,4.9004,37.0697,0.9701,54.7352-4.012c12.5082-3.5276,24.8074-9.2377,36.2195-15.3835
	c10.6259-5.7224,19.3898-13.3522,29.3821-19.8798c5.2195-3.4097,12.4071-2.5993,18.3561-2.8542
	c6.3914-0.2738,12.9084-0.3442,19.2725-0.977c13.5248-1.3448,27.2555-4.7627,40.0305-9.3419
	c12.5173-4.4869,24.2728-10.5135,35.232-18.0355c4.3544-2.9886,8.6328-7.5402,13.3716-9.821
	c4.1841-2.0139,5.7323,8.0892,8.4927,10.9218c4.1376-3.1727,4.9099-8.3792,6.4874-13.0067
	c2.8363-4.9489,4.5558-10.1876,7.9794-14.8897c1.7934-2.4631,8.2576-10.9316,11.9294-7.7789
	c4.781,4.1051,7.602,11.2352,11.5461,16.1544c4.0336,5.0307,8.7836,9.3607,13.5486,13.6742
	c4.8564,4.3964,3.7384,8.4201,0.678,13.6408c-6.41,10.9349-10.6996,20.6206-12.3513,33.289
	c5.2172-1.9905,7.8202-7.6235,12.7795-10.3577c8.7537-4.8261,2.495,8.4542,1.7692,12.1656
	c-2.5712,12.7059-6.4971,30.9386,0.6168,43.0188c3.4399-4.5176,6.01-9.2329,11.1096-12.132
	c7.8193-4.4452,15.0585-6.7778,23.3479-9.9358c16.0282-6.1953,36.8829-6.8046,53.941-7.7211
	c8.3521-0.5403,16.5881-2.3383,24.9711-2.4886c8.8083-0.1424,19.2272-5.1408,27.8937-2.4427
	c6.4048,1.994,11.6781,9.5522,16.264,14.0709c3.3264,3.2777,6.8595,6.988,10.9397,9.3329
	c3.6885,2.1196,7.9823,2.8151,11.6906,4.8928c-1.3556,3.8363-7.6804,7.61-10.7172,10.0958
	c-4.3904,3.5938-8.8728,7.1025-12.8606,11.153c-9.6508,9.3928-19.6875,18.3757-29.5553,27.5372
	c-15.4402,14.335-29.876,29.0736-48.7632,38.9834c-20.6667,10.8434-43.2662,11.5938-65.6415,16.5212
	c-22.0182,4.8489-42.2159,20.6143-54.9154,38.8251c-14.8723,17.8065-24.7821,39.3881-39.2127,57.618
	c-14.0026,17.6895-29.5571,33.0105-45.6974,48.7112c-31.9327,30.934-67.7343,57.9854-100.5439,88.0081
	c-34.5828,31.6451-64.4247,67.9172-81.115,112.0256c-3.5042,9.2607-8.123,22.3535-18.8329,25.3761
	c-9.7534,2.1061-16.5383,0.3926-26.0452-2.0631c-8.4102-2.8865-17.5175-1.5537-26.2126-1.3629
	c-5.2572,0.1154-10.8051,1.8954-15.2216,4.7235c-4.6339,2.2252-6.2513,9.452-10.7095,10.0714
	c-10.6315,1.4458-19.2993-5.8896-27.9647-11.0187c-9.9968-5.9172-19.5958-11.2563-30.9429-14.1758
	c-10.018-2.4666-52.8448-11.965-50.2718,10.0182c-0.9619,7.3672,14.2811,17.4514,19.2813,21.3871
	c8.3206,6.8245,15.0477,15.837,21.5295,24.3824c6.8321,9.0073,13.9352,17.8247,20.5695,26.9703
	c3.7219,5.1307,9.0148,10.2432,15.2981,12.082c5.7917,1.6951,7.2502,3.0874,13.3026,3.0874c6.2912,0,12.5825,0,18.8737,0
	c2.3227,0,1.626-0.1189,4.1422-1.2803c4.5106-2.0818,9.6253-1.9952,14.4097-2.9871c11.6008-2.4047,23.4539-5.8962,34.9268-9.0051
	c11.3495-2.6998,23.2369-5.6952,34.8862-6.5558c10.0701-0.7439,20.1752-0.1938,30.2569-0.576
	c25.9067-0.9821,34.6267-21.6277,46.2411-40.9064c12.5541-20.8385,23.7276-42.3802,37.9501-62.2848
	c14.543-20.3531,29.9653-39.8496,46.175-58.8953c14.7923-17.3802,30.2303-34.0773,45.881-50.687
	c15.7093-16.6719,32.7133-33.0818,50.8304-46.9612c16.6816-12.7797,38.7254-17.499,57.8425-25.7036
	c22.9823-9.7841,42.5985-21.6729,59.765-40.0182c6.2753-6.7061,12.52-14.3778,16.4775-22.7286
	c8.3455-8.5555,15.4899-16.578,26.8433-21.2811c20.2075-8.3708,42.535-10.6375,63.0868-18.0406
	c18.714-6.7412,36.5612-18.4836,56.1957-22.2339c11.0975-2.114,22.1595-4.4412,33.2676-6.5405
	c6.0198-1.1377,11.9498-2.6187,17.9187-3.9882c3.101-0.7073,6.1998-1.425,9.2844-2.2015c2.6327-0.99,2.8073,5.5406,3.031,6.7427
	c2.094,11.7214,4.8546,23.668,4.9092,35.5754c0.0575,12.5448,0.0452,25.0272,0.0084,37.5724
	c-0.063,21.5232-4.0958,43.7551-9.0621,64.6985c-4.2905,18.094-10.2637,35.1749-19.5808,51.2056
	c-5.1232,8.8145-11.2961,15.892-12.7876,26.3735c-1.4656,10.2994,0.3585,18.5405,3.7606,27.999
	c2.5353,7.0488,11.9708,12.6198,18.2664,15.8656c9.2206,4.7539,20.3127,5.7399,30.511,4.9763
	c9.671-0.7241,19.2314-2.6595,28.8738-3.7035c9.5078-1.0293,19.0215-0.7805,28.5256-1.6207
	c-2.3673,0.9198,9.6357,1.4691,11.1873,1.4885c5.4561,0.0679,10.9147,0.0372,16.368-0.1592
	c-1.2991-1.1722-0.3939-1.6595-2.3184-1.8292c44.9247-0.5111,91.7538,2.1311,135.7921,11.2523
	c37.4202,7.7504,74.8008,16.8738,111.6893,27.4154c21.2827,6.0819,31.4469,29.2396,37.4032,49.052
	c2.2104,7.3524,4.2635,14.776,6.2271,22.1891c2.7759,10.4799,11.2222,16.411,21.2927,19.4558
	c6.0529,1.8301,22.191,5.8994,25.9807-1.9908c4.2273-8.8011-6.4268-23.686-9.3798-31.7788
	c-4.7794-13.0979,9.6879-14.5813,15.5278-4.9619c5.7133,9.4105,8.8179,20.121,13.7582,29.9154
	c4.9022,9.7188,11.7369,18.3456,22.8959,20.9515c6.3088,1.4733,12.4948,0.6484,18.7941,0.111
	c5.2411-0.4473,9.6348,1.6613,14.4849,3.326c4.6782,1.6058,9.1248,1.3313,13.9453,1.8053
	c11.7676,1.2218,24.9929,1.8018,36.1704-2.5731c19.1466-7.4941,12.0173-27.7773-2.9685-34.5883
	c-17.9723-8.1682-35.3047-14.4351-50.376-27.5319c-17.6046-15.2986-28.7655-39.3188-39.8911-59.3977
	c-9.5753-17.2809-20.4388-35.0375-36.0791-47.5662c-16.7357-13.4061-37.8318-13.2169-58.104-13.3041
	c-12.4165-0.0535-24.7738-1.3901-37.1622-2.0511c-12.0466-0.6427-24.1439-0.0074-36.1804-0.7281
	c-22.4535-2.52-45.0457-3.019-67.5112-5.5621c-10.7905-2.1346-21.8186-2.3203-32.6978-3.864
	c-11.6923-1.6591-23.2811-3.6669-34.8733-5.7753c-23.8348-4.3352-50.3119-8.3413-71.3333-21.2023
	c-8.7295-5.3429-17.8143-11.0985-22.0344-20.8921c-4.4845-10.4071-6.3384-24.8652-3.3302-35.8074
	c12.5468-45.6368,53.1641-77.6223,63.3955-124.7131c2.2891-10.4282,4.3292-21.6779,4.3982-32.3893
	c0.0438-6.8168-3.1254-28.4938,9.4698-19.8075c16.8191,11.5991,31.9838,24.375,50.3231,33.7197
	c2.795,1.4243,9.6663,4.0911,8.5845,8.395c-2.153,2.0712-5.0886,2.8967-7.083,5.2218c13.0698,6.0413,27.5074,5.6726,41.5358,6.8115
	c15.375,1.2483,30.9916-0.4177,46.3118-0.6918c11.3751-0.2034,22.8152-0.2677,34.1857-0.6693
	c2.8721-0.1014,13.6639-2.3602,15.0779,1.2058c0.5541,1.3975,0.068,3.472,1.0702,4.3617c4.7347,0.5857,9.5135-0.2327,14.0565-1.5474
	c16.3506-4.7321,31.2637-12.173,45.3295-21.7009c7.0095-4.7601,12.5457-10.4001,21.214-9.1444
	c7.8376,1.1354,16.1346-2.944,22.0255-7.7946c13.2516-10.9111,23.2123-25.0063,32.8959-39.0186
	c4.8623-7.0356,9.7236-14.0764,14.7147-21.0216c4.0945-5.6976,10.0693-15.9854,17.553-17.1516
	c-0.0328,5.1189-2.7388,11.2477-0.5742,16.2185c5.8013-3.2378,10.2228-10.5789,14.3702-15.6376
	c6.0071-7.327,11.1006-15.5205,15.8905-23.6842c8.9004-15.1694,16.151-31.9385,21.1702-48.779
	c4.9242-18.4509,10.3246-36.7744,15.2567-55.2249c2.2808-8.5317,3.7758-17.3234,6.6531-25.6848
	c1.0845-3.1515,2.4603-7.309,6.4539-5.8511c1.3805,4.0428,2.665,8.102,3.1268,12.3685
	c8.2667-6.7062,13.6396-16.3207,19.0591-25.2604c3.8508-6.3519,5.903-13.6352,10.3148-19.6727
	c3.5295-0.3013,1.5782,9.9438,1.5847,11.6135c14.7549-9.8807,23.4316-32.218,29.3367-48.1502
	c8.1841-22.0811,13.4994-45.7634,23.9147-66.9592c20.0999-40.9049,30.5043-85.4232,33.8802-130.8752
	c3.6138-48.6549,0.1184-99.1924-8.2496-147.1667c-4.0927-23.4638-11.8391-45.6182-18.5239-68.3693
	c-5.9583-20.2777-16.5438-39.7807-23.9543-59.6072c-12.1528-32.432-25.5505-68.6516-26.6152-103.677
	c-0.5359-17.6316-1.0048-34.85,1.8458-52.2361c2.2539-13.7471,5.564-29.4786,16.7401-38.8998
	c5.8616-4.6741,13.6863-6.3761,18.8558-12.007c5.3428-5.1158,8.7726-11.0192,13.3151-16.7608
	c5.2275-6.5055,10.0115-12.15,16.7609-17.0161c6.708-4.8003,14.134-7.7817,21.6102-11.1668
	c16.4015-7.4971,34.3877-12.0379,50.3856-20.2885c3.6143-1.8639,6.3557-4.1705,9.8049-6.5344
	C2070.8672,69.4042,2071.3567,69.3951,2070.6836,63.0765z M724.053,954.3571c-0.117-2.0149-0.117-4.2266-0.117-6.3385
	C724.0935,950.161,724.053,952.2092,724.053,954.3571z"/>
</svg>
