<?xml version="1.0"?>
<svg xmlns:rdf="http://www.w3.org/1999/02/22-rdf-syntax-ns#" xmlns="http://www.w3.org/2000/svg" xmlns:cc="http://web.resource.org/cc/" xmlns:dc="http://purl.org/dc/elements/1.1/" xmlns:sodipodi="http://inkscape.sourceforge.net/DTD/sodipodi-0.dtd" xmlns:svg="http://www.w3.org/2000/svg" id="svg2" viewBox="0 0 128 128" sodipodi:version="0.32" sodipodi:docname="silh62.svg" sodipodi:docbase="/home/nicu/Desktop/svg/silhouettes">
  <sodipodi:namedview id="base" bordercolor="#666666" borderopacity="1.0" pagecolor="#ffffff"/>
  <g id="layer1">
    <path id="path1358" d="m55.004 125.13c-1.636-1.65-1.395-4.49-0.979-6.63 0.414-4.2 1.563-8.34 1.545-12.6 0.268-5.23-0.455-10.683 1.37-15.707 1.255-1.994 1.497-4.459 1.814-6.749 0.307-2.49-0.926-4.776-0.797-7.239 0.065-2.371-0.121-4.713-0.527-7.024-0.33-3.127-0.682-6.27-1.081-9.381-0.118-2.287 0.367-4.516 0.024-6.741-0.478-2.291-0.991-4.582-1.245-6.91-0.789-1.923-0.982-4.585-1.629-6.159-1.201 3.252-1.065 6.813-2.027 10.137-0.485 2.549-1.098 5.204-0.657 7.785 1.886 0.588 1.486 3.031 0.01 3.619-1.79-2.59-1.521 1.763-0.491 2.581-1.79 1.126-5.457 0.064-5.238-2.574 0.742-2.032 2.529-3.604 1.883-6.068 0.065-3.803-0.761-7.644 0.187-11.399 0.333-2.184 0.455-4.383 1.115-6.489-0.039-1.763 1.485-4.239 0.649-5.544-1.929-0.051-0.638-0.871 0.464-0.838-0.56-2.824 1.283-5.332 2.197-7.872 0.717-2.649 4.393-2.641 4.959-5.143 0.53-4.658 1.86-9.2557 4.11-13.376 1.416-2.0154 4.077-2.5578 6.374-2.795 2.786 0.1623 4.366 2.9073 5.199 5.267 1.208 4.118 0.762 8.454 0.889 12.695 0.883 1.143 1.392 2.559 2.365 3.61 2.697-0.088 3.135 2.759 4.055 4.705 1.134 2.4 2.071 4.894 3.299 7.248 1.736 2.509 4.148 4.849 4.495 8.022-0.528 2.103-0.721 4.389-1.633 6.289-1.064 1.932-2.946 3.87-2.221 6.253 0.726 3.024 0.717 6.149 0.3 9.214 0.182 1.815 0.297 3.687 0.913 5.418-0.514 0.691-1.549 1.162-1.336 2.161-0.088 2.286-0.246 4.6-0.571 6.842-1.327 1.748-2.596 3.608-4.389 4.931-0.042-0.981-0.806-5.16-1.702-2.704-0.56 2.296-1.151 4.72-0.522 7.069 0.552 3.135 0.283 6.394-0.326 9.499-0.673 3.447-2.173 6.637-3.311 9.947-0.843 2.23-0.609 4.74-0.454 7.07 0.345 2.41 0.33 4.87 0.607 7.29-1.49 1.65-4.188 1.67-6.278 1.52-1.796 0.11-0.898-1.98-0.532-2.95 0.966-2.43 0.131-5.06 1.063-7.47 0.503-2.3 1.49-4.53 1.348-6.93 0.091-4.96-0.808-9.904-0.182-14.846 0.598-3.552-0.508-7.12 0.02-10.685-0.264-1.353-0.647 2.017-0.929 2.575-0.45 2.25-0.829 4.558-2.078 6.538-0.422 2.852-0.316 5.843-1.392 8.593-0.844 2.395-2.211 4.575-3.002 6.975-0.38 2.2-1.297 4.35-0.882 6.62 0.263 2.51-0.207 5.03 0.24 7.53-0.428 1.71 0.852 4.93-1.58 5.29-0.974-0.09-2.203 0.47-3.043-0.09-0.153-0.12-0.306-0.25-0.46-0.38zm25.343-76.539c2.482-0.832 2.151-3.642 1.465-5.613-0.81-2.251-3.047-3.58-4.618-5.281-1.104-0.779-1.891-2.94-2.685-3.331 0.141 1.457-0.082 1.851-0.512 1.448 0.612 2.132-2.466 3.313-0.78 5.025 0.758 2.085 2.059 4.022 3.778 5.466 1.092 0.527 2.125 3.225 3.352 2.286zm-3.16 35.338c0.057-0.584 0.124 0.502 0 0z"/>
  </g>
  <metadata>
    <rdf:RDF>
      <cc:Work>
        <dc:format>image/svg+xml</dc:format>
        <dc:type rdf:resource="http://purl.org/dc/dcmitype/StillImage"/>
        <cc:license rdf:resource="http://creativecommons.org/licenses/publicdomain/"/>
        <dc:publisher>
          <cc:Agent rdf:about="http://openclipart.org/">
            <dc:title>Openclipart</dc:title>
          </cc:Agent>
        </dc:publisher>
        <dc:title>Woman Silhouette 62</dc:title>
        <dc:date>2008-02-15T16:25:15</dc:date>
        <dc:description>Black silhouette defining a female body shape.</dc:description>
        <dc:source>http://openclipart.org/detail/14193/woman-silhouette-62-by-nicubunu</dc:source>
        <dc:creator>
          <cc:Agent>
            <dc:title>nicubunu</dc:title>
          </cc:Agent>
        </dc:creator>
        <dc:subject>
          <rdf:Bag>
            <rdf:li>clip art</rdf:li>
            <rdf:li>clipart</rdf:li>
            <rdf:li>image</rdf:li>
            <rdf:li>media</rdf:li>
            <rdf:li>outline</rdf:li>
            <rdf:li>people</rdf:li>
            <rdf:li>png</rdf:li>
            <rdf:li>public domain</rdf:li>
            <rdf:li>shape</rdf:li>
            <rdf:li>silhouette</rdf:li>
            <rdf:li>svg</rdf:li>
            <rdf:li>woman</rdf:li>
          </rdf:Bag>
        </dc:subject>
      </cc:Work>
      <cc:License rdf:about="http://creativecommons.org/licenses/publicdomain/">
        <cc:permits rdf:resource="http://creativecommons.org/ns#Reproduction"/>
        <cc:permits rdf:resource="http://creativecommons.org/ns#Distribution"/>
        <cc:permits rdf:resource="http://creativecommons.org/ns#DerivativeWorks"/>
      </cc:License>
    </rdf:RDF>
  </metadata>
</svg>
