<?xml version="1.0" encoding="utf-8"?>

<!DOCTYPE svg PUBLIC "-//W3C//DTD SVG 1.1//EN" "http://www.w3.org/Graphics/SVG/1.1/DTD/svg11.dtd">
<svg version="1.1" id="Layer_1" xmlns="http://www.w3.org/2000/svg" xmlns:xlink="http://www.w3.org/1999/xlink" x="0px" y="0px"
	 viewBox="0 0 1718.121 1640.492" enable-background="new 0 0 1718.121 1640.492" xml:space="preserve">
<g>
	<path d="M1694.574,1147.886c-0.993,2.668-2.947,3.682-5.853,2.833c-21.107-6.205-43.083-5.853-64.665-8.428
		c-16.743-1.996-33.31,0.093-49.639,3.64c-30.601,6.66-61.853,6.257-92.825,8.811c-11.262,0.931-22.431-1.841-33.682-2.379
		c-26.288-1.251-33.558-0.3-92.37-21.624c-8.015-2.906-13.103-6.608-27.964-16.133c-1.375,2.265,0.197,3.506,0.951,4.84
		c16.04,28.294,27.415,58.533,36.702,89.547c5.16,17.208,6.091,35.192,6.826,53.093c1.789,43.61,4.106,49.515-7.125,48.998
		c-43.879-1.986-100.116,4.664-192.776-43.072c-1.034-0.538-2.037-1.344-3.423-0.931c-1.003,1.334,0.124,2.255,0.807,3.102
		c18.087,22.089,37.064,74.014,37.488,108.948c0.196,16.391,4.53,26.123,1.799,48.347c-3.764,30.663-0.879,44.251-6.856,67.137
		c-10.828,41.449-3.589,71.677-0.445,100.623c0.579,5.336,0.548,10.714,3.475,15.605c1.541,2.565,1.251,5.119-2.099,6.577
		c-6.246,2.709-4.219-3.34-12.751-13.547c-33.476-40.063-39.588-50.26-71.326-70.167c-55.337-34.716-134.346-110.747-145.97-174.089
		c-0.786-4.323-1.737-8.615-2.74-13.527c-2.999,2.089-2.958,4.478-3.609,6.484c-30.631,92.97-69.309,122.495-103.787,158.494
		c-4.137,4.323-8.097,4.395-11.872-0.062c-27.105-31.986-68.533-51.563-104.966-165.816c-2.73,3.702-10.269,58.76-54.624,105.701
		c-19.328,20.445-16.298,21.552-31.583,33.744c-53.031,42.276-26.64,26.319-67.261,52.163c-32.586,20.724-43.9,39.38-70.86,70.767
		c-5.729,6.67-5.161,16.743-13.103,10.952c-1.386-1.013-2.068-2.161-1.2-3.692c5.181-9.152,4.261-19.494,5.667-29.339
		c6.887-48.016,5.988-54.541-1.479-90.333c-6.443-30.921-1.665-30.994-5.791-63.58c-3.289-25.978,2.265-35.657,2.316-53.414
		c0.072-27.767,12.255-55.917,22.203-80.86c3.63-9.07,8.852-15.647,17.653-27.984c-2.73-1.034-4.209,0.527-5.853,1.344
		c-72.028,36.113-120.085,43.362-192.672,43.931c-4.695,0.042-8.16-3.351-7.663-7.653c4.592-39.949-10.114-80.209,48.077-188.019
		c-0.972-1.107-1.83-0.807-2.647-0.207c-22.059,15.988-47.54,23.817-73.363,30.869c-32.596,8.904-29.391,3.309-64.645,8.532
		c-18.842,2.792-37.488-2.306-66.734-2.265c-30.259,0.041-57.788-15.854-116.714-6.07c-19.059,3.164-28.915,1.593-37.55,6.112
		c-3.309,1.737-5.109-0.093-6.35-2.771c-1.437-3.092,0.434-4.457,3.113-5.316c4.923-1.572,4.86-1.034,54.386-39.898
		c24.933-19.556,32.266-43.321,58.202-68.833c17.488-17.188,28.181-34.189,46.009-46.299c16.278-11.055,22.968-26.474,84.345-52.287
		c21.583-9.069,31.924-8.842,38.088-10.579c0.414-0.114,0.714-0.61,1.179-1.044c-1.2-1.748-3.257-1.748-4.953-2.254
		c-97.117-29.173-126.415-62.752-166.25-98.389c-9.173-8.201-2.306-8.149,33.827-41.594c53.041-49.091,135.36-68.544,139.031-71.439
		c-1.148-1.603-2.968-1.355-4.426-1.572c-76.827-11.376-134.626-75.503-159.445-101.057c-33.61-34.603-37.529-55.482-72.587-82.401
		c-44.53-34.199-35.316-27.374-48.491-33.672c-0.962-1.851,0.114-3.009,0.682-4.312c3.041-7.001,6.008-0.352,14.592,0.486
		c73.58,7.187,69.329,9.059,115.339-0.01c17.001-3.351,63.269-7.89,119.32-4.705c33.465,1.903,85.535,15.616,113.55,35.74
		c1.355,0.972,2.637,2.182,4.623,2.286c0.259-2.42-1.427-4.044-2.461-5.853C371.699,489.091,348.39,434.188,346.445,384
		c-2.048-52.762-4.426-55.503,8.863-54.541c15.729,1.138,65.131-0.817,97.189,7.797c56.651,15.212,97.396,36.454,97.396,36.454
		c1.044-1.106,0.145-1.975-0.393-2.596c-22.834-26.495-34.406-80.602-36.64-88.13c0,0-2.203-33.279-3.868-45.389
		c-2.068-14.985,2.079-29.504,2.823-57.168c1.169-43.269,16.971-51.976,7.249-116.538c-3.258-21.604-1.851-28.057-5.853-34.572
		c-1.975-3.206-0.341-5.016,2.44-6.319c2.792-1.303,4.768-0.362,5.76,2.503c2.285,6.619,2.978,6.133,36.195,46.082
		c15.781,18.977,30.332,27.684,51.976,41.583c22.1,14.199,86.92,68.058,110.592,110.178c24.716,43.972,24.778,55.286,27.901,70.56
		c2.523-0.393,2.379-2.41,2.885-3.909c27.229-81.729,59.505-113.767,75.783-131.13c30.58-32.627,33.848-36.474,39.473-30.59
		c51.708,53.952,67.768,60.125,106.28,165.981c1.417-0.879,1.758-2.11,1.893-3.299c3.62-30.756,31.914-81.946,54.355-103.26
		c11.996-11.407,12.844-18.635,32.927-34.448c32.431-25.533,36.474-32.834,48.988-39.846c50.167-28.139,89.247-83.839,91.284-89.723
		c2.265-6.567,11.872-2.813,8.325,3.651c-2.441,4.426-2.865,9.307-3.423,14.178c-12.193,106.745-4.602,29.825,6.515,175.837
		c1.499,19.639-1.241,14.013-3.185,49.774c-1.531,28.015-19.039,79.102-37.881,101.347c-0.693,0.817-1.717,1.737-1.086,3.154
		c1.965,0.755,3.206-0.807,4.643-1.551c89.185-46.03,142.134-42.121,191.897-44.044c11.045-0.424,9.318,4.437,7.425,43.62
		c-1.096,22.71,0.238,68.078-47.075,152.847c3.692-0.217,5.626-2.193,7.632-3.63c10.445-7.518,22.069-12.482,34.044-17.012
		c44.83-16.971,59.277-15.998,107.004-19.949c13.495-1.127,26.878,1.458,40.332,1.903c24.22,0.807,35.368,1.138,53.3,5.129
		c49.463,11.024,115.101-2.017,119.393-4.137c6.236-3.092,10.703,5.864,3.123,8.232c-5.812,1.81-10.187,5.74-14.83,9.318
		c-39.856,30.694-48.171,35.306-63.817,57.044c-49.474,68.719-121.513,139.703-205.227,151.482
		c4.343,2.896,8.263,3.413,11.851,4.488c94.252,28.232,123.86,63.859,162.651,97.427c2.999,2.585,3.009,7.973-0.072,10.269
		c-24.116,17.943-60.963,70.488-174.637,101.636c2.926,2.947,6.36,2.565,9.349,2.978c26.081,3.64,62.421,22.544,84.8,35.751
		c1.034,0.61,49.546,38.129,64.707,58.481c8.211,11.024,19.638,16.919,35.792,41.78c22.731,34.985,43.279,46.837,75.752,71.801
		C1690.655,1144.256,1696.674,1142.229,1694.574,1147.886z"/>
</g>
</svg>
